<?xml version="1.0" encoding="UTF-8" standalone="no"?>
<!-- Created with Inkscape (http://www.inkscape.org/) -->

<svg
   xmlns:dc="http://purl.org/dc/elements/1.1/"
   xmlns:cc="http://creativecommons.org/ns#"
   xmlns:rdf="http://www.w3.org/1999/02/22-rdf-syntax-ns#"
   xmlns:svg="http://www.w3.org/2000/svg"
   xmlns="http://www.w3.org/2000/svg"
   xmlns:xlink="http://www.w3.org/1999/xlink"
   xmlns:sodipodi="http://sodipodi.sourceforge.net/DTD/sodipodi-0.dtd"
   xmlns:inkscape="http://www.inkscape.org/namespaces/inkscape"
   width="210mm"
   height="297mm"
   viewBox="0 0 210 297"
   version="1.1"
   id="svg8"
   inkscape:version="0.92.4 (5da689c313, 2019-01-14)"
   sodipodi:docname="abstract-cube.svg">
  <defs
     id="defs2">
    <linearGradient
       inkscape:collect="always"
       id="linearGradient4832">
      <stop
         style="stop-color:#0088aa;stop-opacity:1"
         offset="0"
         id="stop4828" />
      <stop
         style="stop-color:#00ccff;stop-opacity:1"
         offset="1"
         id="stop4830" />
    </linearGradient>
    <linearGradient
       inkscape:collect="always"
       id="linearGradient4824">
      <stop
         style="stop-color:#0088aa;stop-opacity:1"
         offset="0"
         id="stop4820" />
      <stop
         style="stop-color:#00ccff;stop-opacity:1"
         offset="1"
         id="stop4822" />
    </linearGradient>
    <linearGradient
       inkscape:collect="always"
       xlink:href="#linearGradient4824"
       id="linearGradient4826"
       x1="-69.686592"
       y1="158.67493"
       x2="16.241211"
       y2="70.833267"
       gradientUnits="userSpaceOnUse" />
    <linearGradient
       inkscape:collect="always"
       xlink:href="#linearGradient4832"
       id="linearGradient4834"
       x1="-69.686592"
       y1="158.67493"
       x2="16.241211"
       y2="70.833267"
       gradientUnits="userSpaceOnUse" />
  </defs>
  <sodipodi:namedview
     id="base"
     pagecolor="#ffffff"
     bordercolor="#666666"
     borderopacity="1.0"
     inkscape:pageopacity="0.0"
     inkscape:pageshadow="2"
     inkscape:zoom="1"
     inkscape:cx="-87.827471"
     inkscape:cy="681.45052"
     inkscape:document-units="px"
     inkscape:current-layer="layer1"
     showgrid="false"
     inkscape:showpageshadow="false"
     showborder="false"
     inkscape:object-nodes="true"
     inkscape:snap-smooth-nodes="true"
     inkscape:snap-midpoints="true"
     inkscape:snap-intersection-paths="true"
     inkscape:object-paths="true"
     inkscape:window-width="1600"
     inkscape:window-height="1137"
     inkscape:window-x="-8"
     inkscape:window-y="-8"
     inkscape:window-maximized="1" />
  <metadata
     id="metadata5">
    <rdf:RDF>
      <cc:Work
         rdf:about="">
        <dc:format>image/svg+xml</dc:format>
        <dc:type
           rdf:resource="http://purl.org/dc/dcmitype/StillImage" />
        <dc:title></dc:title>
      </cc:Work>
    </rdf:RDF>
  </metadata>
  <g
     inkscape:label="Layer 1"
     inkscape:groupmode="layer"
     id="layer1">
    <g
       id="g4818"
       style="stroke:url(#linearGradient4826);stroke-opacity:1;fill-opacity:1;fill:url(#linearGradient4834)">
      <path
         id="path817"
         d="m 6.217553,143.50636 -0.05193,-3.60309 -2.672e-4,-1.6e-4 -19.1724738,11.06937 2.19e-4,-29.4061 25.466321,-14.70324 -2.6e-4,22.13879 3.146566,-1.81662 2.19e-4,-25.77211 -31.759451,18.33648 -1.38e-4,36.67274 z"
         style="opacity:0.55405405;fill:url(#linearGradient4834);fill-opacity:1;stroke:url(#linearGradient4826);stroke-width:0.89999998;stroke-linejoin:bevel;stroke-miterlimit:4;stroke-dasharray:none;stroke-opacity:1"
         inkscape:connector-curvature="0" />
      <path
         inkscape:connector-curvature="0"
         id="path835"
         d="m -19.300084,117.93301 3.146606,1.81669 31.759278,-18.33659 -3.146595,-1.816685 z"
         style="opacity:0.5270004;fill:url(#linearGradient4834);fill-opacity:1;stroke:url(#linearGradient4826);stroke-width:0.90000004;stroke-linecap:butt;stroke-linejoin:miter;stroke-miterlimit:4;stroke-dasharray:none;stroke-opacity:1" />
      <path
         id="path837"
         d="m 12.459162,129.00193 2.21e-4,-3.63316 -2.67e-4,-1.6e-4 -2.67e-4,-1.5e-4 -1.53e-4,-18.5047 -3.1464138,1.81636 -3.8e-5,14.87165 -12.8791623,-7.43579 -3.1467145,1.81688 16.0259201,9.25222 3.1466045,1.81669 z m -22.3192752,-16.51933 -6.8925248,-3.9794 -3.146716,1.81688 6.892525,3.9794 z"
         style="opacity:0.5270004;fill:url(#linearGradient4834);fill-opacity:1;stroke:url(#linearGradient4826);stroke-width:0.89999998;stroke-linecap:butt;stroke-linejoin:miter;stroke-miterlimit:4;stroke-dasharray:none;stroke-opacity:1"
         inkscape:connector-curvature="0" />
      <path
         id="path4588"
         d="m 9.3122576,123.55177 2.21e-4,-3.63316 -9.73281798,-5.61925 -3.14656542,1.81663 z m -16.0258067,-12.88579 -6.8930469,-3.97971 -3.146714,1.81689 6.8930465,3.9797 z"
         style="opacity:0.5270004;fill:url(#linearGradient4834);fill-opacity:1;stroke:url(#linearGradient4826);stroke-width:0.89999998;stroke-linecap:butt;stroke-linejoin:miter;stroke-miterlimit:4;stroke-dasharray:none;stroke-opacity:1"
         inkscape:connector-curvature="0" />
      <path
         style="opacity:0.5270004;fill:url(#linearGradient4834);fill-opacity:1;stroke:url(#linearGradient4826);stroke-width:0.90000004;stroke-linecap:butt;stroke-linejoin:miter;stroke-miterlimit:4;stroke-dasharray:none;stroke-opacity:1"
         d="m -19.300023,117.93304 3.146606,1.81669 -3.11e-4,36.67264 -3.146596,-1.81669 z"
         id="path4597"
         inkscape:connector-curvature="0" />
      <path
         inkscape:connector-curvature="0"
         style="opacity:0.5270004;fill:url(#linearGradient4834);fill-opacity:1;stroke:url(#linearGradient4826);stroke-width:0.90000004;stroke-linecap:butt;stroke-linejoin:miter;stroke-miterlimit:4;stroke-dasharray:none;stroke-opacity:1"
         d="m 6.1655922,139.90332 -3.1463479,1.81686 -2.605e-4,-1.5e-4 -2.605e-4,-1.5e-4 -16.0258413,9.2526 -1.47e-4,-3.63313 12.87938056,-7.43617 -12.87916156,-7.43579 1.59e-4,-3.63365 16.025614,9.25274 3.1466047,1.81669 z m -25.4658442,-11.06931 -6.892524,-3.9794 1.54e-4,-3.63366 6.892524,3.9794 z"
         id="path4622" />
      <path
         inkscape:connector-curvature="0"
         style="opacity:0.5270004;fill:url(#linearGradient4834);fill-opacity:1;stroke:url(#linearGradient4826);stroke-width:0.90000004;stroke-linecap:butt;stroke-linejoin:miter;stroke-miterlimit:4;stroke-dasharray:none;stroke-opacity:1"
         d="m -0.12788444,139.90318 -3.14630256,1.81678 -9.732819,-5.61925 -4e-5,-3.63332 z m -19.17232756,-7.43585 -6.893048,-3.97971 1.09e-4,-3.63358 6.893049,3.97971 z"
         id="path4624" />
      <path
         inkscape:connector-curvature="0"
         style="opacity:0.55405405;fill:url(#linearGradient4834);fill-opacity:1;stroke:url(#linearGradient4826);stroke-width:0.89999998;stroke-linejoin:bevel;stroke-miterlimit:4;stroke-dasharray:none;stroke-opacity:1"
         d="m -16.805394,71.10832 -3.094404,1.846519 v 3.09e-4 L -0.72720931,84.024314 -26.19375,98.727175 -51.66029,84.024314 -32.487401,72.955142 -35.633925,71.138448 -57.953339,84.024314 -26.19375,102.36056 5.5658395,84.024314 Z"
         id="path4638" />
      <path
         style="opacity:0.5270004;fill:url(#linearGradient4834);fill-opacity:1;stroke:url(#linearGradient4826);stroke-width:0.89999998;stroke-linecap:butt;stroke-linejoin:miter;stroke-miterlimit:4;stroke-dasharray:none;stroke-opacity:1"
         d="m -26.19375,105.99392 v -3.63339 L -57.953339,84.024483 v 3.633375 z"
         id="path4640"
         inkscape:connector-curvature="0" />
      <path
         inkscape:connector-curvature="0"
         style="opacity:0.5270004;fill:url(#linearGradient4834);fill-opacity:1;stroke:url(#linearGradient4826);stroke-width:0.89999998;stroke-linecap:butt;stroke-linejoin:miter;stroke-miterlimit:4;stroke-dasharray:none;stroke-opacity:1"
         d="m -32.487401,72.955142 -3.146524,1.816391 v 3.09e-4 3.08e-4 l -16.025461,9.25248 3.146222,1.816694 12.879239,-7.435788 v 14.871576 l 3.146825,1.816693 -3.08e-4,-18.504961 v -3.633386 z m -3.146524,27.588728 v 7.9588 l 3.146825,1.81669 v -7.9588 z"
         id="path4642" />
      <path
         inkscape:connector-curvature="0"
         style="opacity:0.5270004;fill:url(#linearGradient4834);fill-opacity:1;stroke:url(#linearGradient4826);stroke-width:0.89999998;stroke-linecap:butt;stroke-linejoin:miter;stroke-miterlimit:4;stroke-dasharray:none;stroke-opacity:1"
         d="m -35.633925,78.405521 -3.146525,1.816392 v 11.23849 l 3.146525,1.816694 z m -3.146525,20.321654 v 7.959405 l 3.146825,1.81669 v -7.9594 z"
         id="path4644" />
      <path
         inkscape:connector-curvature="0"
         id="path4646"
         d="m -26.19375,105.99385 v -3.63339 L 5.5658392,84.024413 v 3.633375 z"
         style="opacity:0.5270004;fill:url(#linearGradient4834);fill-opacity:1;stroke:url(#linearGradient4826);stroke-width:0.89999998;stroke-linecap:butt;stroke-linejoin:miter;stroke-miterlimit:4;stroke-dasharray:none;stroke-opacity:1" />
      <path
         id="path4648"
         d="m -19.899734,72.954837 3.146613,1.816392 v 3e-4 3.01e-4 L -0.72720975,84.024314 -3.8735203,85.841007 -16.753121,78.40522 v 14.871575 l -3.146914,1.816687 3.01e-4,-18.504958 v -3.633386 z m 3.146613,27.588723 v 7.9588 l -3.146914,1.8167 v -7.9588 z"
         style="opacity:0.5270004;fill:url(#linearGradient4834);fill-opacity:1;stroke:url(#linearGradient4826);stroke-width:0.89999998;stroke-linecap:butt;stroke-linejoin:miter;stroke-miterlimit:4;stroke-dasharray:none;stroke-opacity:1"
         inkscape:connector-curvature="0" />
      <path
         id="path4650"
         d="m -16.753121,78.40522 3.146525,1.81639 v 11.238491 l -3.146525,1.816694 z m 3.146525,20.32165 v 7.95941 l -3.146825,1.81669 v -7.95941 z"
         style="opacity:0.5270004;fill:url(#linearGradient4834);fill-opacity:1;stroke:url(#linearGradient4826);stroke-width:0.89999998;stroke-linecap:butt;stroke-linejoin:miter;stroke-miterlimit:4;stroke-dasharray:none;stroke-opacity:1"
         inkscape:connector-curvature="0" />
      <path
         inkscape:connector-curvature="0"
         style="opacity:0.55405405;fill:url(#linearGradient4834);fill-opacity:1;stroke:url(#linearGradient4826);stroke-width:0.89999998;stroke-linejoin:bevel;stroke-miterlimit:4;stroke-dasharray:none;stroke-opacity:1"
         d="m -58.604602,143.50666 0.05193,-3.60309 2.68e-4,-1.6e-4 19.172473,11.06937 -2.19e-4,-29.4061 -25.466321,-14.70324 2.6e-4,22.13879 -3.146566,-1.81662 -2.19e-4,-25.77211 31.759451,18.33648 1.38e-4,36.67274 z"
         id="path4654" />
      <path
         style="opacity:0.5270004;fill:url(#linearGradient4834);fill-opacity:1;stroke:url(#linearGradient4826);stroke-width:0.90000004;stroke-linecap:butt;stroke-linejoin:miter;stroke-miterlimit:4;stroke-dasharray:none;stroke-opacity:1"
         d="m -33.086965,117.93331 -3.146606,1.81669 -31.759278,-18.33659 3.146595,-1.816685 z"
         id="path4656"
         inkscape:connector-curvature="0" />
      <path
         inkscape:connector-curvature="0"
         style="opacity:0.5270004;fill:url(#linearGradient4834);fill-opacity:1;stroke:url(#linearGradient4826);stroke-width:0.89999998;stroke-linecap:butt;stroke-linejoin:miter;stroke-miterlimit:4;stroke-dasharray:none;stroke-opacity:1"
         d="m -64.846211,129.00223 -2.21e-4,-3.63316 2.67e-4,-1.6e-4 2.67e-4,-1.5e-4 1.53e-4,-18.5047 3.146414,1.81636 3.8e-5,14.87165 12.879162,-7.43579 3.146715,1.81688 -16.025921,9.25222 -3.146604,1.81669 z m 22.319275,-16.51933 6.892525,-3.9794 3.146716,1.81688 -6.892525,3.9794 z"
         id="path4658" />
      <path
         inkscape:connector-curvature="0"
         style="opacity:0.5270004;fill:url(#linearGradient4834);fill-opacity:1;stroke:url(#linearGradient4826);stroke-width:0.89999998;stroke-linecap:butt;stroke-linejoin:miter;stroke-miterlimit:4;stroke-dasharray:none;stroke-opacity:1"
         d="m -61.699307,123.55207 -2.21e-4,-3.63316 9.732818,-5.61925 3.146566,1.81663 z m 16.025807,-12.88579 6.893047,-3.97971 3.146714,1.81689 -6.893046,3.9797 z"
         id="path4660" />
      <path
         inkscape:connector-curvature="0"
         id="path4662"
         d="m -33.087026,117.93334 -3.146606,1.81669 3.11e-4,36.67264 3.146596,-1.81669 z"
         style="opacity:0.5270004;fill:url(#linearGradient4834);fill-opacity:1;stroke:url(#linearGradient4826);stroke-width:0.90000004;stroke-linecap:butt;stroke-linejoin:miter;stroke-miterlimit:4;stroke-dasharray:none;stroke-opacity:1" />
      <path
         id="path4664"
         d="m -58.552641,139.90362 3.146348,1.81686 2.6e-4,-1.5e-4 2.61e-4,-1.5e-4 16.025841,9.2526 1.47e-4,-3.63313 -12.879381,-7.43617 12.879162,-7.43579 -1.59e-4,-3.63365 -16.025614,9.25274 -3.146605,1.81669 z m 25.465844,-11.06931 6.892524,-3.9794 -1.54e-4,-3.63366 -6.892524,3.9794 z"
         style="opacity:0.5270004;fill:url(#linearGradient4834);fill-opacity:1;stroke:url(#linearGradient4826);stroke-width:0.90000004;stroke-linecap:butt;stroke-linejoin:miter;stroke-miterlimit:4;stroke-dasharray:none;stroke-opacity:1"
         inkscape:connector-curvature="0" />
      <path
         id="path4666"
         d="m -52.259165,139.90348 3.146303,1.81678 9.732819,-5.61925 4e-5,-3.63332 z m 19.172328,-7.43585 6.893048,-3.97971 -1.09e-4,-3.63358 -6.893049,3.97971 z"
         style="opacity:0.5270004;fill:url(#linearGradient4834);fill-opacity:1;stroke:url(#linearGradient4826);stroke-width:0.90000004;stroke-linecap:butt;stroke-linejoin:miter;stroke-miterlimit:4;stroke-dasharray:none;stroke-opacity:1"
         inkscape:connector-curvature="0" />
    </g>
  </g>
</svg>
