<?xml version="1.0" encoding="UTF-8" standalone="no"?>
<!-- Created with Inkscape (http://www.inkscape.org/) -->

<svg
   xmlns:dc="http://purl.org/dc/elements/1.1/"
   xmlns:cc="http://creativecommons.org/ns#"
   xmlns:rdf="http://www.w3.org/1999/02/22-rdf-syntax-ns#"
   xmlns:svg="http://www.w3.org/2000/svg"
   xmlns="http://www.w3.org/2000/svg"
   xmlns:xlink="http://www.w3.org/1999/xlink"
   xmlns:sodipodi="http://sodipodi.sourceforge.net/DTD/sodipodi-0.dtd"
   xmlns:inkscape="http://www.inkscape.org/namespaces/inkscape"
   width="210mm"
   height="297mm"
   viewBox="0 0 210 297"
   version="1.1"
   id="svg8"
   inkscape:version="0.92.4 (5da689c313, 2019-01-14)"
   sodipodi:docname="Okay.svg">
  <defs
     id="defs2">
    <linearGradient
       inkscape:collect="always"
       id="linearGradient1033">
      <stop
         style="stop-color:#00ccff;stop-opacity:0.53040541"
         offset="0"
         id="stop1029" />
      <stop
         style="stop-color:#008caf;stop-opacity:1"
         offset="1"
         id="stop1031" />
    </linearGradient>
    <linearGradient
       inkscape:collect="always"
       id="linearGradient1017">
      <stop
         style="stop-color:#ff00cc;stop-opacity:1;"
         offset="0"
         id="stop1013" />
      <stop
         style="stop-color:#930075;stop-opacity:1"
         offset="1"
         id="stop1015" />
    </linearGradient>
    <linearGradient
       inkscape:collect="always"
       xlink:href="#linearGradient1017"
       id="linearGradient1019"
       x1="-210.90593"
       y1="938.08557"
       x2="-210.90593"
       y2="976.45013"
       gradientUnits="userSpaceOnUse" />
    <linearGradient
       inkscape:collect="always"
       xlink:href="#linearGradient1033"
       id="linearGradient1035"
       x1="-220.67415"
       y1="933.05823"
       x2="-220.67415"
       y2="993.38324"
       gradientUnits="userSpaceOnUse" />
  </defs>
  <sodipodi:namedview
     id="base"
     pagecolor="#ffffff"
     bordercolor="#666666"
     borderopacity="1.0"
     inkscape:pageopacity="0.0"
     inkscape:pageshadow="2"
     inkscape:zoom="1"
     inkscape:cx="-735.51181"
     inkscape:cy="-2583.8801"
     inkscape:document-units="px"
     inkscape:current-layer="layer1"
     showgrid="false"
     inkscape:showpageshadow="false"
     showborder="false"
     inkscape:snap-smooth-nodes="false"
     inkscape:object-nodes="false"
     inkscape:snap-midpoints="false"
     inkscape:window-width="1600"
     inkscape:window-height="1137"
     inkscape:window-x="-8"
     inkscape:window-y="-8"
     inkscape:window-maximized="1" />
  <metadata
     id="metadata5">
    <rdf:RDF>
      <cc:Work
         rdf:about="">
        <dc:format>image/svg+xml</dc:format>
        <dc:type
           rdf:resource="http://purl.org/dc/dcmitype/StillImage" />
        <dc:title></dc:title>
      </cc:Work>
    </rdf:RDF>
  </metadata>
  <g
     inkscape:label="Layer 1"
     inkscape:groupmode="layer"
     id="layer1">
    <g
       id="g1039"
       transform="matrix(1.7845671,0,0,1.7845671,208.25848,-728.06894)">
      <path
         inkscape:connector-curvature="0"
         id="path981"
         d="m -222.17898,933.0466 a 20.45559,24.617918 0 0 0 -20.45558,24.61792 20.45559,24.617918 0 0 0 20.45558,24.61792 20.45559,24.617918 0 0 0 3.57939,-0.40275 20.455591,24.617918 0 0 0 1.9538,-0.54284 20.455591,24.617918 0 0 0 0.51723,-0.20629 20.455591,24.617918 0 0 0 1.44602,-0.59043 20.455591,24.617918 0 0 0 0.16066,-0.0863 20.455591,24.617918 0 0 0 12.73534,-21.29355 20.455591,24.617918 0 0 0 0.0632,-1.49571 20.45559,24.617918 0 0 0 -0.0567,-1.35869 13.23603,15.929314 0 0 0 -9.8e-4,-0.0135 13.23603,15.929314 0 0 0 -0.16324,-1.43986 13.23603,15.929315 0 0 0 -0.15079,-0.80964 13.23603,15.929314 0 0 0 -0.14692,-0.73777 13.23603,15.929315 0 0 0 -0.21952,-0.79672 13.23603,15.929314 0 0 0 -0.20578,-0.71087 13.23603,15.929315 0 0 0 -0.2831,-0.7631 13.23603,15.929314 0 0 0 -0.2655,-0.68661 13.23603,15.929315 0 0 0 -0.34581,-0.72639 13.23603,15.929314 0 0 0 -0.31876,-0.64729 13.23603,15.929315 0 0 0 -0.40081,-0.67575 13.23603,15.929314 0 0 0 -0.37805,-0.6168 13.23603,15.929315 0 0 0 -0.44635,-0.61213 13.23603,15.929314 0 0 0 -0.4326,-0.57543 13.23603,15.929315 0 0 0 -0.49576,-0.55629 13.23603,15.929314 0 0 0 -0.47942,-0.52218 13.23603,15.929315 0 0 0 -0.53227,-0.48754 13.23603,15.929314 0 0 0 -0.52669,-0.46738 13.23603,15.929315 0 0 0 -0.56663,-0.41879 13.23603,15.929314 0 0 0 -0.56621,-0.40429 13.23603,15.929315 0 0 0 -0.59628,-0.3469 13.23603,15.929314 0 0 0 -0.59842,-0.33555 13.23603,15.929315 0 0 0 -0.62377,-0.27452 13.23603,15.929314 0 0 0 -0.6212,-0.26058 13.23603,15.929315 0 0 0 -0.6401,-0.19751 13.23603,15.929314 0 0 0 -0.64567,-0.18611 13.23603,15.929315 0 0 0 -0.6517,-0.11894 13.23603,15.929314 0 0 0 -0.65513,-0.10752 13.23603,15.929315 0 0 0 -1.22134,-0.0744 13.23603,15.929314 0 0 0 -1.17451,0.0724 13.23603,15.929315 0 0 0 -0.64955,0.10132 13.23603,15.929314 0 0 0 -0.65642,0.11994 13.23603,15.929315 0 0 0 -1.14401,0.32056 13.23603,15.929314 0 0 1 9.64054,15.31484 13.23603,15.929314 0 0 1 -9.61133,15.3154 13.23603,15.929314 0 0 1 -1.14401,0.32053 13.23603,15.929314 0 0 1 -0.65643,0.11994 13.23603,15.929314 0 0 1 -0.64954,0.10133 13.23603,15.929314 0 0 1 -1.17451,0.0724 13.23603,15.929314 0 0 1 -1.22134,-0.0745 13.23603,15.929314 0 0 1 -0.65513,-0.10752 13.23603,15.929314 0 0 1 -0.6517,-0.11893 13.23603,15.929314 0 0 1 -0.64568,-0.18612 13.23603,15.929314 0 0 1 -0.64009,-0.1975 13.23603,15.929314 0 0 1 -0.6212,-0.26056 13.23603,15.929314 0 0 1 -0.62377,-0.27454 13.23603,15.929314 0 0 1 -0.59843,-0.33553 13.23603,15.929314 0 0 1 -0.59627,-0.34692 13.23603,15.929314 0 0 1 -0.56622,-0.4043 13.23603,15.929314 0 0 1 -0.56663,-0.41879 13.23603,15.929314 0 0 1 -0.52668,-0.46737 13.23603,15.929314 0 0 1 -0.53227,-0.48754 13.23603,15.929314 0 0 1 -0.47943,-0.52216 13.23603,15.929314 0 0 1 -0.49575,-0.55632 13.23603,15.929314 0 0 1 -0.43261,-0.57542 13.23603,15.929314 0 0 1 -0.44634,-0.61214 13.23603,15.929314 0 0 1 -0.37804,-0.6168 13.23603,15.929314 0 0 1 -0.40081,-0.67572 13.23603,15.929314 0 0 1 -0.31877,-0.64732 13.23603,15.929314 0 0 1 -0.34582,-0.72639 13.23603,15.929314 0 0 1 -0.26548,-0.68658 13.23603,15.929314 0 0 1 -0.28311,-0.76313 13.23603,15.929314 0 0 1 -0.20578,-0.71086 13.23603,15.929314 0 0 1 -0.21952,-0.79673 13.23603,15.929314 0 0 1 -0.14692,-0.73777 13.23603,15.929314 0 0 1 -0.15079,-0.80963 13.23603,15.929314 0 0 1 -0.16281,-1.43574 20.45559,24.617918 0 0 1 -4.3e-4,-0.004 13.23603,15.929314 0 0 1 0,-0.002 13.23603,15.929314 0 0 1 -9.8e-4,-0.0114 20.45559,24.617918 0 0 1 -0.0567,-1.35923 13.23603,15.929314 0 0 1 0.0525,-1.31836 20.45559,24.617918 0 0 1 0.0116,-0.1882 20.45559,24.617917 0 0 1 10.84771,-20.22283 20.45559,24.617918 0 0 1 0.18902,-0.13027 20.45559,24.617917 0 0 1 1.64922,-0.90324 20.45559,24.617918 0 0 1 0.2105,-0.1132 20.45559,24.617917 0 0 1 0.0545,-0.0295 l -8.5e-4,0.008 a 20.45559,24.617918 0 0 1 3.86206,-1.31735 20.45559,24.617918 0 0 1 3.57939,-0.40276 z"
         style="opacity:1;fill:url(#linearGradient1035);fill-opacity:1;stroke:none;stroke-width:0.24167523;stroke-miterlimit:4;stroke-dasharray:none;stroke-opacity:0" />
      <path
         inkscape:connector-curvature="0"
         id="path921"
         d="m -214.9592,933.0466 a 20.45559,24.617918 0 0 0 -1.79828,0.11997 20.45559,24.617918 0 0 0 -1.78111,0.28279 20.45559,24.617918 0 0 0 -1.93747,0.5382 20.45559,24.617918 0 0 0 -1.92459,0.77915 20.45559,24.617918 0 0 0 -0.0528,0.0212 20.455589,24.617917 0 0 0 -8.5e-4,5.1e-4 20.45559,24.617918 0 0 0 -0.19504,0.10495 20.45559,24.617918 0 0 0 -0.0155,0.008 20.455589,24.617917 0 0 0 -1.64922,0.90324 20.45559,24.617918 0 0 0 -0.18902,0.13027 20.45559,24.617918 0 0 0 -0.002,10e-4 20.45559,24.617918 0 0 0 -0.74191,0.5196 20.455589,24.617917 0 0 0 -1.21532,0.91409 20.45559,24.617918 0 0 0 -0.49661,0.43272 20.455589,24.617917 0 0 0 -1.12726,1.04955 20.45559,24.617918 0 0 0 -0.4747,0.50768 20.455589,24.617917 0 0 0 -1.01428,1.15657 20.45559,24.617918 0 0 0 -0.45408,0.59403 20.455589,24.617917 0 0 0 -0.89226,1.24288 20.45559,24.617918 0 0 0 -0.41757,0.67007 20.455589,24.617917 0 0 0 -0.77069,1.31992 20.45559,24.617918 0 0 0 -0.37289,0.74242 20.455589,24.617917 0 0 0 -0.64353,1.37628 20.45559,24.617918 0 0 0 -0.32349,0.81895 20.455589,24.617917 0 0 0 -0.51423,1.41609 20.45559,24.617918 0 0 0 -0.26205,0.87995 20.455589,24.617917 0 0 0 -0.38535,1.43572 20.45559,24.617918 0 0 0 -0.19804,0.95907 20.455589,24.617917 0 0 0 -0.25475,1.41971 20.45559,24.617918 0 0 0 -0.12458,1.03607 20.455589,24.617917 0 0 0 -0.16239,1.73043 20.45559,24.617918 0 0 0 -0.0116,0.1882 13.23603,15.929314 0 0 0 -0.0525,1.31836 20.45559,24.617918 0 0 0 0.0567,1.35923 13.23603,15.929314 0 0 0 9.7e-4,0.0114 13.23603,15.929314 0 0 0 0,0.002 13.23603,15.929314 0 0 0 0.16324,1.43987 13.23603,15.929314 0 0 0 0,0.001 13.23603,15.929314 0 0 0 0.15079,0.8086 13.23603,15.929314 0 0 0 0.14692,0.73777 13.23603,15.929314 0 0 0 0.21952,0.79673 13.23603,15.929314 0 0 0 0.14477,0.50098 13.23603,15.929314 0 0 0 0.061,0.20988 13.23603,15.929314 0 0 0 0,5.3e-4 13.23603,15.929314 0 0 0 0.27923,0.75172 13.23603,15.929314 0 0 0 0.004,0.0109 13.23603,15.929314 0 0 0 0.26548,0.68658 13.23603,15.929314 0 0 0 4.3e-4,10e-4 13.23603,15.929314 0 0 0 0.3454,0.72536 13.23603,15.929314 0 0 0 0.007,0.0129 13.23603,15.929314 0 0 0 0.31232,0.63438 13.23603,15.929314 0 0 0 9.7e-4,0.002 13.23603,15.929314 0 0 0 0.39223,0.66178 13.23603,15.929314 0 0 0 0.008,0.0119 13.23603,15.929314 0 0 0 0.37805,0.6168 13.23603,15.929314 0 0 0 0.002,0.002 13.23603,15.929314 0 0 0 0.43906,0.60232 13.23603,15.929314 0 0 0 0.006,0.008 13.23603,15.929314 0 0 0 0.43261,0.57542 13.23603,15.929314 0 0 0 4.2e-4,5.3e-4 13.23603,15.929314 0 0 0 0.49532,0.55579 13.23603,15.929314 0 0 0 0.38148,0.41566 13.23603,15.929314 0 0 0 0.098,0.1065 13.23603,15.929314 0 0 0 4.3e-4,5.3e-4 13.23603,15.929314 0 0 0 0.53183,0.48701 13.23603,15.929314 0 0 0 0.52668,0.46737 13.23603,15.929314 0 0 0 0.56578,0.41826 13.23603,15.929314 0 0 0 8.6e-4,5.3e-4 13.23603,15.929314 0 0 0 0.56621,0.4043 13.23603,15.929314 0 0 0 0.002,10e-4 13.23603,15.929314 0 0 0 0.59456,0.34589 13.23603,15.929314 0 0 0 0.22081,0.12407 13.23603,15.929314 0 0 0 0.37762,0.21146 13.23603,15.929314 0 0 0 0.003,10e-4 13.23603,15.929314 0 0 0 0.61303,0.26987 13.23603,15.929314 0 0 0 0.008,0.004 13.23603,15.929314 0 0 0 0.6212,0.26056 13.23603,15.929314 0 0 0 4.2e-4,0 13.23603,15.929314 0 0 0 0.62678,0.19338 13.23603,15.929314 0 0 0 0.0129,0.004 13.23603,15.929314 0 0 0 0.64568,0.18612 13.23603,15.929314 0 0 0 8.6e-4,0 13.23603,15.929314 0 0 0 0.64998,0.11893 13.23603,15.929314 0 0 0 8.6e-4,0 13.23603,15.929314 0 0 0 0.65513,0.10752 13.23603,15.929314 0 0 0 8.6e-4,0 13.23603,15.929314 0 0 0 1.22048,0.0745 13.23603,15.929314 0 0 0 1.17451,-0.0724 13.23603,15.929314 0 0 0 0.003,-5.1e-4 13.23603,15.929314 0 0 0 0.64697,-0.10082 13.23603,15.929314 0 0 0 0.0636,-0.0119 13.23603,15.929314 0 0 0 0.59284,-0.10806 13.23603,15.929314 0 0 0 0.002,-5.3e-4 13.23603,15.929314 0 0 0 1.14187,-0.32 13.23603,15.929314 0 0 1 -9.64054,-15.3154 13.23603,15.929314 0 0 1 9.61133,-15.31484 13.23603,15.929314 0 0 1 1.14401,-0.32056 13.23603,15.929313 0 0 1 0.002,-5e-4 13.23603,15.929314 0 0 1 0.65427,-0.11944 13.23603,15.929314 0 0 1 0.64955,-0.10132 13.23603,15.929314 0 0 1 0.002,0 13.23603,15.929314 0 0 1 1.17236,-0.0724 13.23603,15.929314 0 0 1 1.22133,0.0744 13.23603,15.929314 0 0 1 8.6e-4,0 13.23603,15.929314 0 0 1 0.65342,0.10752 13.23603,15.929313 0 0 1 8.6e-4,0 13.23603,15.929314 0 0 1 0.65169,0.11894 13.23603,15.929314 0 0 1 8.6e-4,5e-4 13.23603,15.929314 0 0 1 0.63193,0.18198 13.23603,15.929313 0 0 1 0.0129,0.004 13.23603,15.929314 0 0 1 0.6401,0.19751 13.23603,15.929314 0 0 1 4.3e-4,0 13.23603,15.929314 0 0 1 0.6126,0.25745 13.23603,15.929313 0 0 1 0.008,0.003 13.23603,15.929314 0 0 1 0.62377,0.27452 13.23603,15.929314 0 0 1 0.002,0.001 13.23603,15.929314 0 0 1 0.59628,0.33452 13.23603,15.929314 0 0 1 0.59628,0.3469 13.23603,15.929314 0 0 1 0.002,0.001 13.23603,15.929314 0 0 1 0.56406,0.40276 13.23603,15.929313 0 0 1 4.3e-4,5e-4 13.23603,15.929314 0 0 1 0.0747,0.0553 13.23603,15.929314 0 0 1 0.49188,0.36347 13.23603,15.929314 0 0 1 0.52669,0.46738 13.23603,15.929314 0 0 1 0.53227,0.48754 13.23603,15.929314 0 0 1 4.2e-4,5e-4 13.23603,15.929314 0 0 1 0.479,0.52168 13.23603,15.929314 0 0 1 0.49576,0.55629 13.23603,15.929314 0 0 1 4.3e-4,5.3e-4 13.23603,15.929314 0 0 1 0.42658,0.56714 13.23603,15.929313 0 0 1 0.006,0.008 13.23603,15.929314 0 0 1 0.44635,0.61213 13.23603,15.929314 0 0 1 9.7e-4,0.003 13.23603,15.929314 0 0 1 0.36946,0.60232 13.23603,15.929313 0 0 1 0.008,0.0119 13.23603,15.929314 0 0 1 0.40081,0.67575 13.23603,15.929314 0 0 1 8.6e-4,0.002 13.23603,15.929314 0 0 1 0.3179,0.64522 13.23603,15.929314 0 0 1 0.34582,0.72639 13.23603,15.929314 0 0 1 4.3e-4,10e-4 13.23603,15.929314 0 0 1 0.26077,0.67469 13.23603,15.929313 0 0 1 0.004,0.0109 13.23603,15.929314 0 0 1 0.28311,0.7631 13.23603,15.929314 0 0 1 0,5e-4 13.23603,15.929314 0 0 1 0.20578,0.71037 13.23603,15.929314 0 0 1 0.21952,0.79672 13.23603,15.929314 0 0 1 0.14692,0.73777 13.23603,15.929314 0 0 1 0.15079,0.80964 13.23603,15.929314 0 0 1 0,10e-4 13.23603,15.929314 0 0 1 0.16281,1.4347 13.23603,15.929313 0 0 1 4.3e-4,0.004 13.23603,15.929314 0 0 1 9.7e-4,0.0135 20.45559,24.617918 0 0 1 0.0568,1.35869 20.45559,24.617918 0 0 1 -0.0632,1.49571 20.45559,24.617918 0 0 1 -0.003,0.0491 20.45559,24.617918 0 0 1 -4.56917,13.99648 20.45559,24.617918 0 0 1 -0.0172,0.0269 20.45559,24.617918 0 0 1 -1.25055,1.66219 20.45559,24.617918 0 0 1 -0.14349,0.18508 20.45559,24.617918 0 0 1 -1.25484,1.36439 20.45559,24.617918 0 0 1 -0.28525,0.30092 20.45559,24.617918 0 0 1 -1.21962,1.08104 20.45559,24.617918 0 0 1 -0.45408,0.38931 20.45559,24.617918 0 0 1 -1.1496,0.81999 20.45559,24.617918 0 0 1 -0.63923,0.43947 20.45559,24.617918 0 0 1 -1.74932,0.97868 20.45559,24.617918 0 0 1 -0.16067,0.0863 20.45559,24.617918 0 0 1 -1.44601,0.59043 20.45559,24.617918 0 0 1 -0.51724,0.20629 20.45559,24.617918 0 0 1 -1.95379,0.54284 20.45559,24.617918 0 0 1 -3.57939,0.40275 h 7.21978 a 20.45559,24.617918 0 0 0 20.45559,-24.61792 20.45559,24.617918 0 0 0 -20.45559,-24.61792 z"
         style="opacity:1;fill:url(#linearGradient1019);fill-opacity:1;stroke:none;stroke-width:0.24167523;stroke-miterlimit:4;stroke-dasharray:none;stroke-opacity:0" />
    </g>
  </g>
</svg>
