<?xml version="1.0" encoding="UTF-8" standalone="no"?>
<!-- Created with Inkscape (http://www.inkscape.org/) -->

<svg
   xmlns:dc="http://purl.org/dc/elements/1.1/"
   xmlns:cc="http://creativecommons.org/ns#"
   xmlns:rdf="http://www.w3.org/1999/02/22-rdf-syntax-ns#"
   xmlns:svg="http://www.w3.org/2000/svg"
   xmlns="http://www.w3.org/2000/svg"
   xmlns:sodipodi="http://sodipodi.sourceforge.net/DTD/sodipodi-0.dtd"
   xmlns:inkscape="http://www.inkscape.org/namespaces/inkscape"
   width="210mm"
   height="297mm"
   viewBox="0 0 210 297"
   version="1.1"
   id="svg8"
   inkscape:version="0.92.4 (5da689c313, 2019-01-14)"
   sodipodi:docname="1.svg">
  <defs
     id="defs2" />
  <sodipodi:namedview
     id="base"
     pagecolor="#ffffff"
     bordercolor="#666666"
     borderopacity="1.0"
     inkscape:pageopacity="0.0"
     inkscape:pageshadow="2"
     inkscape:zoom="1"
     inkscape:cx="230"
     inkscape:cy="648"
     inkscape:document-units="px"
     inkscape:current-layer="layer1"
     showgrid="false"
     inkscape:showpageshadow="false"
     showborder="false"
     inkscape:snap-smooth-nodes="true"
     inkscape:object-nodes="true"
     inkscape:snap-intersection-paths="true"
     inkscape:object-paths="true"
     inkscape:snap-midpoints="true"
     inkscape:window-width="1600"
     inkscape:window-height="1137"
     inkscape:window-x="-8"
     inkscape:window-y="-8"
     inkscape:window-maximized="1" />
  <metadata
     id="metadata5">
    <rdf:RDF>
      <cc:Work
         rdf:about="">
        <dc:format>image/svg+xml</dc:format>
        <dc:type
           rdf:resource="http://purl.org/dc/dcmitype/StillImage" />
        <dc:title></dc:title>
      </cc:Work>
    </rdf:RDF>
  </metadata>
  <g
     inkscape:label="Layer 1"
     inkscape:groupmode="layer"
     id="layer1">
    <g
       id="g972"
       transform="translate(38.364583,23.283334)">
      <g
         id="g960">
        <path
           id="path848"
           d="M 21.486542,145.68516 A 18.25625,36.5125 0 0 1 5.196064,125.56339 h -18.009753 a 18.25625,36.5125 0 0 0 16.308565,20.12177 z"
           style="opacity:1;fill:#6600ff;fill-opacity:1;stroke:none;stroke-width:0.01243542;stroke-miterlimit:0;stroke-dasharray:none;stroke-opacity:1"
           inkscape:connector-curvature="0" />
        <path
           id="path850"
           d="M 3.494876,145.68516 A 18.25625,36.5125 0 0 0 19.768301,125.63419 24.209377,48.418755 0 0 1 3.494876,138.27683 24.209377,48.418755 0 0 1 -12.813689,125.56339 18.25625,36.5125 0 0 0 3.494876,145.68516 Z"
           style="opacity:1;fill:#ff00cc;fill-opacity:1;stroke:none;stroke-width:0.01243542;stroke-miterlimit:0;stroke-dasharray:none;stroke-opacity:1"
           inkscape:connector-curvature="0" />
        <path
           id="path852"
           d="M 21.486542,145.68516 A 18.256249,36.5125 0 0 0 37.795107,125.56339 H 19.785354 A 18.25625,36.5125 0 0 1 3.494876,145.68516 Z"
           style="opacity:1;fill:#00ccff;fill-opacity:1;stroke:none;stroke-width:0.01366289;stroke-miterlimit:0;stroke-dasharray:none;stroke-opacity:1"
           inkscape:connector-curvature="0" />
        <path
           inkscape:connector-curvature="0"
           style="opacity:1;fill:#6600ff;fill-opacity:1;stroke:none;stroke-width:0.01243542;stroke-miterlimit:0;stroke-dasharray:none;stroke-opacity:1"
           d="m -29.104167,105.44162 a 18.25625,36.5125 0 0 1 16.290479,20.12177 H 5.196065 A 18.25625,36.5125 0 0 0 -11.1125,105.44162 Z"
           id="path834" />
        <path
           inkscape:connector-curvature="0"
           style="opacity:1;fill:#ff00cc;fill-opacity:1;stroke:none;stroke-width:0.01243542;stroke-miterlimit:0;stroke-dasharray:none;stroke-opacity:1"
           d="M -11.1125,105.44162 A 18.25625,36.5125 0 0 0 -27.385925,125.4926 24.209377,48.418755 0 0 1 -11.1125,112.84996 24.209377,48.418755 0 0 1 5.196065,125.56339 18.25625,36.5125 0 0 0 -11.1125,105.44162 Z"
           id="ellipse817" />
        <path
           inkscape:connector-curvature="0"
           style="opacity:1;fill:#00ccff;fill-opacity:1;stroke:none;stroke-width:0.01366289;stroke-miterlimit:0;stroke-dasharray:none;stroke-opacity:1"
           d="m -29.104167,105.44162 a 18.256249,36.5125 0 0 0 -16.308564,20.12177 h 18.009753 A 18.25625,36.5125 0 0 1 -11.1125,105.44162 Z"
           id="rect838" />
        <path
           inkscape:connector-curvature="0"
           style="opacity:1;fill:#6600ff;fill-opacity:1;stroke:none;stroke-width:0.01243542;stroke-miterlimit:0;stroke-dasharray:none;stroke-opacity:1"
           d="m 36.093919,105.44162 a 18.25625,36.5125 0 0 1 16.290478,20.12177 H 70.39415 A 18.25625,36.5125 0 0 0 54.085585,105.44162 Z"
           id="path880" />
        <path
           inkscape:connector-curvature="0"
           style="opacity:1;fill:#ff00cc;fill-opacity:1;stroke:none;stroke-width:0.01243542;stroke-miterlimit:0;stroke-dasharray:none;stroke-opacity:1"
           d="M 54.085585,105.44162 A 18.25625,36.5125 0 0 0 37.81216,125.49259 24.209377,48.418755 0 0 1 54.085585,112.84995 24.209377,48.418755 0 0 1 70.39415,125.56339 18.25625,36.5125 0 0 0 54.085585,105.44162 Z"
           id="path882" />
        <path
           inkscape:connector-curvature="0"
           style="opacity:1;fill:#00ccff;fill-opacity:1;stroke:none;stroke-width:0.01366289;stroke-miterlimit:0;stroke-dasharray:none;stroke-opacity:1"
           d="M 36.093919,105.44162 A 18.256249,36.5125 0 0 0 19.785354,125.56339 H 37.795107 A 18.25625,36.5125 0 0 1 54.085585,105.44162 Z"
           id="path884" />
      </g>
    </g>
  </g>
</svg>
