<?xml version="1.0" encoding="UTF-8" standalone="no"?>
<!-- Created with Inkscape (http://www.inkscape.org/) -->

<svg
   xmlns:dc="http://purl.org/dc/elements/1.1/"
   xmlns:cc="http://creativecommons.org/ns#"
   xmlns:rdf="http://www.w3.org/1999/02/22-rdf-syntax-ns#"
   xmlns:svg="http://www.w3.org/2000/svg"
   xmlns="http://www.w3.org/2000/svg"
   xmlns:xlink="http://www.w3.org/1999/xlink"
   xmlns:sodipodi="http://sodipodi.sourceforge.net/DTD/sodipodi-0.dtd"
   xmlns:inkscape="http://www.inkscape.org/namespaces/inkscape"
   width="210mm"
   height="297mm"
   viewBox="0 0 210 297"
   version="1.1"
   id="svg8"
   inkscape:version="0.92.4 (5da689c313, 2019-01-14)"
   sodipodi:docname="2.0.svg">
  <defs
     id="defs2">
    <linearGradient
       inkscape:collect="always"
       id="linearGradient917">
      <stop
         style="stop-color:#0000ff;stop-opacity:1"
         offset="0"
         id="stop913" />
      <stop
         id="stop921"
         offset="0.47241089"
         style="stop-color:#00ffff;stop-opacity:1" />
      <stop
         style="stop-color:#ff00ff;stop-opacity:1"
         offset="1"
         id="stop915" />
    </linearGradient>
    <inkscape:path-effect
       effect="curvestitching"
       id="path-effect824"
       is_visible="true"
       count="30"
       startpoint_edge_variation="0;1"
       startpoint_spacing_variation="0;1"
       endpoint_edge_variation="0;1"
       endpoint_spacing_variation="0;1"
       strokepath="M 0,0 H 1"
       prop_scale="1"
       scale_y_rel="false" />
    <linearGradient
       inkscape:collect="always"
       xlink:href="#linearGradient917"
       id="linearGradient919"
       x1="-94.232117"
       y1="141.15521"
       x2="36.796562"
       y2="142.21355"
       gradientUnits="userSpaceOnUse"
       gradientTransform="translate(-34.925,15.08125)" />
  </defs>
  <sodipodi:namedview
     id="base"
     pagecolor="#ffffff"
     bordercolor="#666666"
     borderopacity="1.0"
     inkscape:pageopacity="0.0"
     inkscape:pageshadow="2"
     inkscape:zoom="1"
     inkscape:cx="-159.37753"
     inkscape:cy="560"
     inkscape:document-units="mm"
     inkscape:current-layer="layer1"
     showgrid="false"
     inkscape:showpageshadow="false"
     showborder="false"
     inkscape:window-width="1600"
     inkscape:window-height="1137"
     inkscape:window-x="-8"
     inkscape:window-y="-8"
     inkscape:window-maximized="1" />
  <metadata
     id="metadata5">
    <rdf:RDF>
      <cc:Work
         rdf:about="">
        <dc:format>image/svg+xml</dc:format>
        <dc:type
           rdf:resource="http://purl.org/dc/dcmitype/StillImage" />
        <dc:title></dc:title>
      </cc:Work>
    </rdf:RDF>
  </metadata>
  <g
     inkscape:label="Layer 1"
     inkscape:groupmode="layer"
     id="layer1">
    <path
       style="color:#000000;font-style:normal;font-variant:normal;font-weight:normal;font-stretch:normal;font-size:medium;line-height:normal;font-family:sans-serif;font-variant-ligatures:normal;font-variant-position:normal;font-variant-caps:normal;font-variant-numeric:normal;font-variant-alternates:normal;font-feature-settings:normal;text-indent:0;text-align:start;text-decoration:none;text-decoration-line:none;text-decoration-style:solid;text-decoration-color:#000000;letter-spacing:normal;word-spacing:normal;text-transform:none;writing-mode:lr-tb;direction:ltr;text-orientation:mixed;dominant-baseline:auto;baseline-shift:baseline;text-anchor:start;white-space:normal;shape-padding:0;clip-rule:nonzero;display:inline;overflow:visible;visibility:visible;opacity:1;isolation:auto;mix-blend-mode:normal;color-interpolation:sRGB;color-interpolation-filters:linearRGB;solid-color:#000000;solid-opacity:1;vector-effect:none;fill:url(#linearGradient919);fill-opacity:1;fill-rule:nonzero;stroke:none;stroke-width:0.26499999;stroke-linecap:butt;stroke-linejoin:miter;stroke-miterlimit:4;stroke-dasharray:none;stroke-dashoffset:0;stroke-opacity:1;color-rendering:auto;image-rendering:auto;shape-rendering:auto;text-rendering:auto;enable-background:accumulate"
       d="m -92.997916,95.899349 -0.24219,0.107422 13.515628,30.281249 -1.78125,-0.48438 -0.226563,-0.0781 -16.957035,-29.808593 -0.23046,0.130859 16.808589,29.546874 -1.890625,-0.65235 -20.380868,-28.933586 -0.21679,0.152343 20.16797,28.634763 -1.660156,-0.57422 -23.980474,-28.041011 -0.20117,0.171875 23.687503,27.699216 -1.373047,-0.47461 -27.802736,-27.134763 -0.1836,0.189454 27.400399,26.744139 -1.009766,-0.34961 -31.888673,-26.208983 -0.16797,0.203125 31.339846,25.757808 -0.27539,-0.0937 -0.314453,-0.13281 -36.251953,-25.218748 -0.15235,0.21875 35.138678,24.443358 -40.638678,-23.968748 -0.13476,0.228515 38.109374,22.476563 -43.585944,-21.744141 -0.11914,0.238282 42.167974,21.037109 -47.591794,-19.93359 -0.10157,0.24414 49.578134,20.76562 -54.744144,-18.89648 -0.0859,0.25 57.53516,19.85937 0.216796,0.10937 1.332032,0.78516 -62.974618,-17.10546 -0.0703,0.25585 63.908209,17.35938 0.111328,0.0644 1.478516,1.0293 -65.330083,-13.08594 -0.0527,0.25976 65.927735,13.20508 0.935547,0.65039 0.382812,0.31446 -66.000004,-8.86719 -0.0352,0.26172 66.423836,8.92578 1.300781,1.06836 -66.193367,-4.77344 -0.0195,0.26563 66.568366,4.80078 0.625,0.51172 0.740234,0.72265 -66.24414,-0.86719 -0.004,0.26563 66.523441,0.87109 1.476562,1.44141 -66.216803,2.81836 0.0117,0.26562 66.466802,-2.82812 0.259766,0.25195 1.291015,1.50977 -66.158203,6.16992 0.0254,0.26367 66.343751,-6.18555 1.345703,1.57422 1.587891,2.25196 -67.355475,7.4375 0.0293,0.26367 67.500003,-7.45313 0.835937,1.1875 2.253906,3.96094 -68.617186,7.36523 0.0273,0.26368 68.707034,-7.375 1.853516,4.15234 0.251953,0.75391 -68.716803,7.47851 0.0293,0.26367 68.77344,-7.48437 1.205078,3.5957 0.263672,1.13282 -68.14258,7.76562 0.0293,0.26367 68.173837,-7.76758 0.818359,3.51172 0.154297,1.11914 -67.046883,8.14453 0.0312,0.26368 67.052743,-8.14649 0.53125,3.82422 0.03516,0.68555 -65.523433,8.64648 0.0352,0.26172 65.501955,-8.64258 0.242187,4.61133 -63.650392,9.04102 0.0371,0.26367 63.626954,-9.03711 0.244141,4.67187 -61.781245,9.375 0.041,0.26172 61.753907,-9.37109 2.386719,45.75976 0.265624,-0.0137 -2.388671,-45.78711 0.65039,-0.0977 5.72461,41.17968 0.261718,-0.0371 -5.724609,-41.1836 1.173828,-0.17773 8.541016,36.68164 0.257812,-0.0606 -8.535156,-36.66016 1.728516,-0.26367 10.802734,32.26563 0.25,-0.084 -10.787109,-32.2207 2.326171,-0.35352 12.47461,27.94922 0.242187,-0.10742 -12.445312,-27.88281 2.978515,-0.45313 13.511719,23.75391 0.230469,-0.13086 -13.460938,-23.66406 3.673829,-0.5586 13.857421,19.67383 0.216797,-0.15234 -13.78125,-19.56641 4.431641,-0.67187 13.447266,15.72265 0.201172,-0.17187 -13.339844,-15.59766 5.263672,-0.79883 12.203125,11.91016 0.185547,-0.18945 -12.060547,-11.77149 6.175781,-0.93554 10.042969,8.2539 0.167968,-0.20508 -9.859375,-8.10351 7.195313,-1.0918 6.855469,4.76953 0.15039,-0.21679 -6.626953,-4.60938 8.347656,-1.26758 2.50586,1.47852 0.134765,-0.22852 -2.224609,-1.3125 85.87891,-13.0332 -0.0391,-0.26172 -86.201168,13.08203 -5.804688,-3.42383 8.94336,-1.26953 3.708984,1.84961 0.117188,-0.23828 -3.363282,-1.67773 76.972657,-10.9336 -0.03711,-0.26172 -77.353515,10.98633 -6.550782,-3.26758 9.648438,-1.27343 4.9824223,2.08789 0.103515,-0.24414 -4.5644533,-1.91211 68.103516,-8.98633 -0.03516,-0.26172 -68.552735,9.04492 -7.423828,-3.10937 10.4746103,-1.27149 6.339843,2.1875 0.08594,-0.25 -5.826172,-2.01172 59.2695307,-7.19921 -0.03125,-0.26368 -59.8105467,7.26563 -9.3808593,-3.23828 11.1601563,-1.27149 9.00976603,2.44727 0.07031,-0.25586 -8.36718703,-2.27344 52.0449217,-5.92969 -0.0293,-0.26367 -52.7070317,6.00586 -12.0351563,-3.26953 11.6953133,-1.27148 13.841797,2.77148 0.05078,-0.25976 -13.017578,-2.60743 16.140625,-1.75586 1.386718,0.18555 0.03516,-0.26367 -0.3183597,-0.043 30.0605467,-3.27148 -0.0293,-0.26368 -31.1289057,3.38868 -20.7421873,-2.78711 17.0292963,-1.82813 9.7226567,0.70117 0.01953,-0.26367 -8.2636717,-0.5957 29.2226557,-3.13672 -0.0293,-0.26367 -30.6796877,3.29297 -31.3906253,-2.26368 13.222656,-1.46093 32.623047,0.42773 0.002,-0.26562 -30.472656,-0.39844 28.271484,-3.12305 7.076172,-0.30078 -0.01172,-0.26367 -3.169921,0.13476 12.152343,-1.34179 -0.0293,-0.26367 -16.056641,1.77343 -49.416016,2.10157 61.757813,-5.75782 -0.02344,-0.26562 -67.003906,6.24804 -12.779297,0.54493 -8.316406,-0.10938 -6.822266,-0.49219 -3.052734,-0.41015 -1.683594,-32.281249 -0.265625,0.01367 1.681641,32.230459 -2.314453,-0.31055 -0.332032,-0.0664 -4.455078,-32.052728 -0.261718,0.03711 4.441406,31.960928 -2.488282,-0.49805 -7.376953,-31.685535 -0.257812,0.05859 7.349609,31.570305 -0.07617,-0.0156 -2.287109,-0.6211 -10.417969,-31.115225 -0.25,0.08594 10.361328,30.945305 -2.199218,-0.59766 z m 4.337891,27.861321 0.68164,0.28516 -0.371093,-0.0996 -0.21875,-0.10937 z m 1.910156,0.51368 0.503906,0.17382 0.05078,0.0586 z m -0.898438,0.31836 0.71875,0.35937 0.283203,0.27539 -0.8125,-0.47852 z m 0.753907,0.0234 0.783203,0.21289 0.296875,0.125 0.384765,0.44727 -1.349609,-0.67188 z m 1.142578,0.002 0.443359,0.15429 -0.40625,-0.11133 z m 0.480468,0.5625 1.578126,0.66015 0.01367,0.0215 -1.216797,-0.24414 z m -0.884765,0.15625 0.0957,0.0488 -0.05859,-0.0117 z m 1.994141,0.0215 0.158203,0.043 0.02344,0.0332 z m 0.558593,0.15234 1.707031,0.46289 0.158204,0.27735 -0.5625,-0.11328 -1.220704,-0.51172 z m -2.167969,0.20313 0.615235,0.12305 0.169922,0.084 0.49414,0.57617 -1.197265,-0.70508 z m -0.359374,0.125 0.28125,0.16797 0.117187,0.11328 -0.376953,-0.26172 z m 1.970703,0.19726 0.703125,0.14063 0.226562,0.32226 z m 2.625,0.0391 1.498047,0.51562 -1.357422,-0.27148 z m -2.84375,0.14843 1.017578,0.50782 -0.660157,-0.0898 z m 1.298828,0.0273 0.703125,0.14258 0.943359,0.39453 0.125,0.21875 -1.238281,-0.16602 -0.183594,-0.0918 z m 2.015625,0.4043 1.65039,0.33007 0.13086,0.29297 -0.431641,-0.0566 z m -3.564453,0.17382 0.224609,0.0293 0.443359,0.26172 0.490235,0.57422 -0.94336,-0.65821 z m 0.90039,0.11914 0.900391,0.1211 0.49414,0.70117 z m 2.695313,0.008 0.310547,0.1289 -0.25586,-0.0332 z m 1.9375,0.0937 0.923828,0.18554 0.916016,0.31641 -1.71875,-0.23047 z m -2.716797,0.15625 0.667969,0.0898 0.193359,0.3418 z m -0.595703,0.002 1.648437,0.82227 -1.125,-0.082 z m 95.609375,0.082 -26.501953,2.92578 -28.466797,-0.37304 4.220703,-0.39258 z m -94.015625,0.0508 1.03125,0.13867 0.724609,0.30274 0.169922,0.38281 -1.173828,-0.0859 -0.462891,-0.23047 z m -2.44336,0.19336 0.609375,0.35938 -0.322265,-0.0234 z m 4.484375,0.0801 1.876953,0.25195 0.150391,0.45313 -0.417969,-0.0312 z m 2.53125,0.008 1.001953,0.19922 -0.689453,-0.0918 z m -0.363281,0.28321 0.619141,0.084 1.408203,0.48633 -1.882813,-0.13672 z m -2.095703,0.0273 0.708984,0.29687 -0.595703,-0.043 z m -4.027344,0.2207 0.59375,0.043 0.171875,0.10156 0.613282,0.8711 -1.261719,-0.87696 z m -0.53125,0.01 0.472657,0.32812 0.27539,0.32422 -0.513672,-0.42383 z m 8.59961,0.004 0.253906,0.0352 0.01367,0.0586 z m -6.878907,0.0723 0.970704,0.0703 0.43164,0.75781 z m 7.41211,0 1.130859,0.15234 0.996094,0.26953 -1.554688,-0.11132 -0.542968,-0.1875 z m -6.123047,0.0937 0.115234,0.008 1.705078,0.85156 0.07617,0.17188 -1.308593,-0.0176 -0.01563,-0.01 z m 0.810547,0.0586 0.673828,0.0488 0.166016,0.36914 z m 0.974609,0.0703 1.240235,0.0898 0.646484,0.26953 0.191406,0.56836 -1.078125,-0.0137 -0.761719,-0.38086 z m 2.095703,0.15039 2.09375,0.15039 0.152344,0.65625 -0.353516,-0.004 -1.888672,-0.79102 z m -5.041015,0.0117 1.21289,0.71485 -0.714843,-0.008 z m 10.595703,0.084 0.298828,0.0606 -0.107422,-0.008 z m -3.185547,0.0762 0.396484,0.0273 1.84961,0.63868 -2.097657,-0.0273 z m 1.419922,0.10156 0.925781,0.0664 0.03711,0.26563 z m -3.673828,0.0723 1.070312,0.44727 -0.923828,-0.0117 z m 4.86914,0.0137 0.71875,0.0527 1.705078,0.46289 -1.951171,-0.0254 -0.423829,-0.14649 z m -10.542969,0.11914 0.332032,0.23047 -0.134766,-0.002 z m 12.638672,0.0332 0.484375,0.0332 0.0039,0.0977 z m 0.75,0.0527 0.09961,0.008 1.652344,0.33008 -1.111329,-0.0137 -0.630859,-0.17188 z m 2.207032,0.16016 0.798828,0.0566 1.138672,0.15234 -0.949219,-0.0117 z m -15.169922,0.25195 0.296875,0.004 0.300781,0.20898 0.558594,0.79297 -0.994141,-0.81641 z m 0.779297,0.01 0.894531,0.0117 0.582031,1.02149 -1.46875,-1.02149 z m 1.521484,0.0195 0.966797,0.0137 0.339844,0.75781 z m 1.259766,0.0176 0.410156,0.004 1.474609,0.73633 0.146485,0.4414 -1.175782,0.0488 -0.416015,-0.24414 z m 1.023437,0.0117 0.619141,0.01 0.121093,0.36133 z m 0.900391,0.0137 1.488281,0.0195 0.517578,0.21484 0.19336,0.83203 -0.863282,0.0371 -1.160156,-0.58008 z m 33.201172,0.0137 -1.462891,0.13476 -1.330078,-0.0176 z m -30.972657,0.0137 2.242188,0.0312 0.125,0.90625 -0.148438,0.006 -2.214843,-0.92774 z m 2.509766,0.0332 0.324219,0.004 2.21875,0.76758 0.002,0.0195 -2.421875,0.10156 z m 1.167969,0.0156 1.33789,0.0176 0.02344,0.45313 z m 1.603515,0.0215 0.574219,0.008 2.265625,0.61524 -2.296875,0.0976 -0.513672,-0.17773 z m 1.638672,0.0215 1.501953,0.0195 2.341797,0.46875 -1.767578,0.0762 z m -12.544922,0.0215 1.705078,1.00586 0.03906,0.084 -1.097656,0.0469 z m 15.490235,0.0176 1.71875,0.0215 2.220703,0.29883 -1.927734,0.082 z m 3.925781,0.0508 1.304688,0.0176 1.722656,0.12304 -1.501953,0.0645 z m 9.615234,0.125 3.605469,0.0488 -2.644531,0.24609 -2.919922,-0.21094 z m -23.328125,0.0273 1.519532,0.63672 -1.357422,0.0566 z m 29.445313,0.0527 28.814453,0.3789 -12.525391,1.38282 -19.830078,-1.42969 z m -10.394531,0.10351 3.630859,0.26172 -2.791016,0.25977 -3.152343,-0.42383 z m -25.607422,0.0664 1.02539,0.71289 -0.507812,0.0234 z m 21.78125,0.0957 3.490234,0.46875 -2.716797,0.25391 -3.107422,-0.62305 z m -3.447266,0.14649 3.300781,0.66211 -2.380859,0.2207 -2.935547,-0.79688 z m -13.789062,0.0547 0.492187,0.2461 -0.404297,0.0176 z m 26.308593,0.0137 19.982422,1.4414 -8.085937,0.89258 -15.128907,-2.03125 z m -15.410156,0.0547 3.056641,0.83008 -2.683594,0.25195 -2.828125,-0.97656 z m -3.177734,0.13477 2.912109,1.00586 -3.115234,0.29101 -0.1875,-0.0781 -0.0625,-1.19922 z m -0.71875,0.0312 0.05469,1.07226 -2.328125,-0.97461 z m -2.896485,0.12305 0.248047,0.10351 0.183594,1.31641 -0.320312,0.0293 -1.882813,-0.93945 -0.09961,-0.42969 z m -8.738281,0.0293 0.08984,0.0742 h -0.02539 z m 26.53125,0.0391 15.210938,2.04296 -6.041016,0.66797 -12.148438,-2.43359 z m -19.933594,0.0234 0.0625,0.26563 -0.496093,-0.24805 z m -0.982422,0.041 1.123047,0.56055 0.216797,0.93359 -0.753906,0.0703 -1.097656,-0.64844 -0.294922,-0.88086 z m -1.082031,0.0469 0.222657,0.66407 -1.066407,-0.62891 z m 4.736328,0.043 2.320313,0.97266 -2.15625,0.19922 z m -6.066406,0.0137 1.681641,0.99219 0.191406,0.57227 -0.875,0.082 -0.554688,-0.38477 -0.560546,-1.25781 z m -0.402344,0.0176 0.425782,0.95117 -1.314453,-0.91406 z m -1.363281,0.0566 0.595703,1.04883 -1.240234,-1.02148 z m -1.041016,0.0449 0.185547,0.15235 0.359375,0.50976 -0.582031,-0.5664 -0.07617,-0.0918 z m 22.236329,0.0762 12.199218,2.44336 -4.722656,0.52148 -10.035156,-2.72656 z m -20.714844,0.1875 1.517578,1.05468 0.119141,0.26954 -0.726563,0.0683 -0.220703,-0.18164 z m 17.402344,0.12109 10.070312,2.73633 -4.328125,0.47656 -8.550781,-2.95117 z m -12.275391,0.10547 1.302734,0.65039 -1.126953,0.10547 z m 8.830078,0.2168 8.574219,2.95898 -4.292969,0.47461 -7.484375,-3.13672 z m -14.523437,0.0781 1.048828,0.86133 0.02539,0.0469 -0.390625,0.0371 -0.05664,-0.0566 z m 51.035156,0.0625 31.3671873,2.26172 -16.6464843,1.78711 -23.179688,-3.11524 z m -40.275391,0.20898 7.501953,3.14258 -3.714843,0.41016 -3.832032,-1.91016 -0.08398,-1.63086 z m -6.878906,0.0195 0.519531,0.30664 -0.404297,0.0391 z m 6.484375,0.0176 0.07617,1.46875 -2.308594,-1.15234 -0.01367,-0.10742 z m -2.917969,0.27149 0.44336,0.22266 0.234375,1.68554 -2.066407,-1.2207 -0.128906,-0.54492 z m -1.783203,0.16601 0.07813,0.33594 -0.501953,-0.29492 z m -0.875,0.082 1.037109,0.61132 0.38086,1.64063 -1.816406,-1.26563 -0.308594,-0.91992 z m -0.976562,0.0918 0.214843,0.64258 -0.839843,-0.58398 z m 4.365234,0.0254 2.279297,1.13672 0.0957,1.83789 -2.136719,-1.26172 z m -5.400391,0.0703 1.390625,0.96679 0.507813,1.51758 -1.544922,-1.26953 -0.533203,-1.19727 z m -0.458984,0.043 0.355469,0.79688 -0.90625,-0.74609 z m 39.164062,0.0586 23.164063,3.11328 -11.300781,1.21289 -18.136719,-3.63281 z m -40.263671,0.0449 0.390625,0.68555 -0.675782,-0.66016 z m 0.402343,0.16992 1.292969,1.0625 0.574219,1.28906 -1.19336,-1.16601 z m 4.519532,0.29297 2.03125,1.19727 0.234375,1.68164 -0.13086,0.0137 -1.74414,-1.21289 z m 28.199218,0.28125 18.128907,3.63086 -8.335938,0.89453 -14.675781,-3.98633 z m -32.880859,0.16406 0.623047,0.60938 0.382812,0.66992 -0.589843,-0.6875 z m 9.271484,0.14844 3.328125,1.66016 -3.011718,0.33203 -0.21875,-0.12891 z m -6.199218,0.0176 1.765625,1.22851 0.289062,1.23829 -0.392578,0.0449 -1.132812,-0.93164 z m 24.207031,0.28906 14.669922,3.98438 -6.855469,0.73632 -12.255859,-4.23046 z m -25.365234,0.24609 1.460937,1.20118 0.298828,0.89258 -0.388672,0.043 -0.740234,-0.72461 z m 5.089843,0.22266 2.107422,1.24414 v 0.0254 l -1.902344,0.21094 z m 15.220703,0.0879 12.251954,4.23047 -6.117188,0.65625 -10.509766,-4.40234 z m -20.916015,0.26563 1.013672,0.99023 0.287109,0.64453 -0.191406,0.0215 -0.501953,-0.58985 z m 15.998047,0.27734 10.507812,4.40234 -5.189453,0.55664 -9.099609,-4.54101 z m -12.144532,0.0644 1.253907,0.87305 -1.023438,0.11133 z m 7.875,0.40821 9.097657,4.53906 -4.267579,0.45703 -7.896484,-4.6582 z m -9.277343,0.1914 0.607421,0.49805 -0.425781,0.0469 z m 60.53125,0.0898 20.7480463,2.78711 -15.906249,1.73046 -16.3789073,-3.27929 z m -54.761719,0.10547 7.896484,4.6582 -3.433594,0.36719 -4.503906,-3.13282 -0.09766,-1.87695 z m -0.402344,0.0449 0.08594,1.65429 -1.955078,-1.35937 -0.01172,-0.0879 z m -2.380859,0.26172 0.265625,0.18554 0.257812,1.85547 -1.701172,-1.39844 -0.115234,-0.49804 z m -3.910157,0.0488 0.109376,0.10547 -0.05859,0.006 z m 2.351563,0.125 0.04492,0.19336 -0.212891,-0.17578 z m -0.535156,0.0586 0.679687,0.55664 0.398438,1.71289 -1.433594,-1.39844 -0.267578,-0.80273 z m -0.892578,0.0977 0.123047,0.3711 -0.351563,-0.34571 z m 3.548828,0.0606 1.921875,1.33789 0.103515,2.00977 -1.761718,-1.44922 z m -4.117188,0.004 0.876953,0.85547 0.488282,1.46289 -1.111328,-1.30078 -0.445313,-0.99805 z m -0.46875,0.0508 0.115235,0.25781 -0.210938,-0.24805 z m -0.115234,0.39453 0.611328,0.71484 0.359375,0.80469 -0.552734,-0.7832 z m 49.267578,0.0801 16.3828133,3.28125 -11.5351573,1.25586 -13.34375,-3.625 z m -46.207031,0.14648 1.65625,1.36133 0.261718,1.88672 -1.503906,-1.46875 z m -1.1875,0.58789 1.361328,1.32617 0.394531,1.69532 -1.220703,-1.42774 z m 38.171875,0.25586 13.347656,3.625 -9.109375,0.99219 -11.207031,-3.86914 z m -33.146485,0.01 4.085938,2.8418 -2.66211,0.2871 -1.316406,-1.08203 z m -5.679687,0.34375 0.955078,1.11914 0.4375,1.30664 -0.849609,-1.20508 z m 3.798828,0.41015 1.728516,1.42188 0.05859,1.11523 -0.818359,0.0879 -0.699219,-0.68359 z m 27.439453,0.0508 11.210938,3.86914 -7.746094,0.84375 -9.66211,-4.04883 z m -28.871094,0.59961 1.451172,1.41796 0.0918,0.64844 -0.814453,0.0879 -0.3125,-0.36719 z m 22.128907,0.12304 9.664062,4.04883 -6.515625,0.70898 -8.404297,-4.19335 z m -23.083985,0.4707 1.128906,1.31641 0.06836,0.29688 -0.580078,0.0605 -0.105469,-0.14843 z m 17.337891,0.14649 8.404297,4.19336 -5.408203,0.58984 -7.322266,-4.31836 z m -12.945313,0.25977 0.929688,0.76367 -0.884766,0.0937 z m 8.177735,0.25195 7.322265,4.31836 -4.439453,0.48437 -6.365234,-4.42968 z m -12.878907,0.16406 0.583985,0.82617 0.01953,0.0605 -0.191406,0.0215 -0.03125,-0.0547 z m 8.994141,0.25391 6.365235,4.42773 -3.566407,0.38867 -5.505859,-4.52734 z m -5.96875,0.0488 0.298828,0.29297 -0.255859,0.0274 z m 2.892578,0.28126 5.507813,4.52539 -2.78711,0.30273 -3.828125,-3.73438 -0.05078,-0.9707 z m -1.421875,0.15234 0.03516,0.66601 -0.61914,-0.60351 z m -0.925781,0.0996 0.980469,0.95703 0.107422,2.0625 -1.361328,-1.5918 -0.191407,-1.3789 z m -0.728516,0.0781 0.136719,0.97657 -0.777344,-0.90821 z m 48.929688,0.0723 12.0468753,3.27148 -11.0507813,1.25782 -10.21875,-3.5254 z m -49.888672,0.0293 1.164063,1.36132 0.255859,1.85157 -1.083985,-1.53907 -0.388671,-1.66796 z m -0.316406,0.0352 0.246093,1.0625 -0.71289,-1.01367 z m -0.876953,0.0937 0.203125,0.60742 -0.337891,-0.59375 z m 0.423828,0.43555 0.859375,1.2207 0.335937,1.43945 -0.738281,-1.29882 z m 40.820312,0.47656 10.22461,3.5293 -9.166016,1.04492 -8.886719,-3.72266 z m -37.101562,0.01 3.466797,3.38281 -2.082032,0.22656 -1.27539,-1.48828 z m -1.466797,0.68359 1.316406,1.53906 0.08008,1.54493 -0.302734,0.0332 -0.824219,-1.16797 z m 30.197265,0.2168 8.890626,3.72461 -7.6875,0.87695 -7.78711,-3.88477 z m -31.183593,0.41015 1.003906,1.42383 0.162109,1.16602 -0.238281,0.0273 -0.537109,-0.94531 z m 24.111328,0.35938 7.789062,3.88672 -6.433593,0.73242 -6.822266,-4.02344 z m -24.484375,0.50976 0.513672,0.90235 0.210937,0.9082 -0.02539,0.002 -0.367188,-0.82031 z m 18.576172,0.13477 6.826172,4.02539 -5.353516,0.60938 -5.962891,-4.14649 z m -15.617188,0.24023 0.933594,1.08985 -0.871094,0.0957 z m 10.726563,0.29102 5.964843,4.15039 -4.396484,0.5 -5.179687,-4.25781 z m -11.976563,0.36133 0.44336,0.62695 -0.34961,0.0391 z m 7.998047,0.0723 5.181641,4.25782 -3.546875,0.40429 -4.462891,-4.35547 z m -3.167969,0.34375 4.462891,4.35743 -2.783203,0.3164 -3.798828,-4.44336 z m 44.195313,0.0977 9.390625,3.24023 -10.398438,1.26368 -8.238281,-3.45118 z m -46.632813,0.16797 3.800782,4.44531 -2.089844,0.23828 -2.742188,-3.89453 -0.03516,-0.67187 z m -3.126953,0.002 0.03906,0.0684 -0.02344,0.002 z m 1.794922,0.14258 0.01172,0.23633 -0.154297,-0.22071 z m -0.443359,0.0488 0.482422,0.68359 0.103515,1.9961 -0.9375,-1.64844 -0.136719,-0.97852 z m -0.75,0.082 0.04492,0.32812 -0.177735,-0.31445 z m -0.419922,0.0449 0.564453,0.99219 0.216797,1.56641 -0.613281,-1.375 -0.273438,-1.17188 z m 39.792969,0.62695 8.246093,3.45313 -8.724609,1.06055 -7.275391,-3.63086 z m -37.853516,0.33789 2.416016,3.43165 -1.455079,0.16601 -0.851562,-1.49414 z m 29.615234,0.59961 7.28125,3.63477 -7.351562,0.89258 -6.419922,-3.78711 z m -30.638671,0.0488 0.871093,1.5293 0.08008,1.53906 -0.130859,0.0137 -0.568359,-1.26953 z m 23.710937,0.74024 6.423828,3.79101 -6.185547,0.75196 -5.642578,-3.92579 z m -24.142578,0.1875 0.427734,0.96093 0.154297,1.10352 -0.333984,-0.99609 z m 18.339844,0.47461 5.646484,3.92773 -5.162109,0.62695 -4.925782,-4.04882 z m -4.806641,0.54687 4.927734,4.05274 -4.253906,0.51562 -4.261719,-4.1582 z m -11.9375,0.0957 0.533203,0.9375 -0.482422,0.0547 z m 8.011719,0.35352 4.263672,4.16016 -3.44336,0.41796 -3.640625,-4.25781 z m 38.443359,0.27539 7.433594,3.11523 -9.585938,1.26368 -6.636718,-3.31055 z m -41.582031,0.082 3.644531,4.25977 -2.705078,0.32812 -3.0625,-4.34765 z m -5.652344,0.002 0.158203,0.35546 -0.107422,0.0137 z m 3.230469,0.27343 3.0625,4.34961 -2.033203,0.2461 -2.517578,-4.42579 z m -1.775391,0.20117 2.519531,4.42969 -1.419921,0.17188 -1.667969,-3.74024 -0.04297,-0.79101 z m -0.875,0.10157 0.0039,0.084 -0.03516,-0.082 z m -0.308593,0.0332 0.351562,0.78711 0.08594,1.6582 -0.488282,-1.45703 -0.132812,-0.9668 z m 37.695312,0.43359 6.644531,3.31446 -8.136719,1.07422 -5.914062,-3.49024 z m -7.839844,0.95118 5.921875,3.49414 -6.914062,0.91211 -5.244141,-3.64844 z m -29.203125,0.0781 1.355469,3.03711 -0.847656,0.10352 -0.40625,-1.2168 z m 22.574219,0.72852 5.248047,3.65039 -5.84375,0.77148 -4.609375,-3.79101 z m -23.080078,0.21875 0.341797,1.01953 0.0625,1.16992 -0.244141,-1.04883 z m 17.511719,0.45703 4.613281,3.79297 -4.894531,0.64648 -4.013672,-3.91797 z m -4.63086,0.5625 4.015625,3.91992 -4.046875,0.53516 -3.449219,-4.03321 z m -3.794922,0.46094 3.451172,4.03515 -3.277343,0.43164 -2.91211,-4.13476 z m 35.53125,0.0684 6.556641,3.27149 -8.890625,1.26367 -5.857422,-3.45508 z m -38.568359,0.30079 2.914062,4.13671 -2.574218,0.33985 -2.404297,-4.22656 z m -5.390625,0.11328 0.08789,0.26367 -0.07422,0.008 z m 3.041016,0.17187 2.40625,4.22852 -1.931641,0.25586 -1.923828,-4.3086 z m -1.72461,0.20899 1.923828,4.31054 -1.332031,0.17578 -1.466797,-4.3789 z m -1.142578,0.13867 1.46875,4.38281 -0.783203,0.10352 -0.771484,-3.30664 -0.06055,-1.16211 z m 35.167969,0.20312 5.861328,3.45703 -7.617188,1.08204 -5.205078,-3.6211 z m -7.351563,0.97071 5.210938,3.62304 -6.505859,0.92383 -4.589844,-3.77148 z m -6.24414,0.82226 4.59375,3.77539 -5.521485,0.78516 -4.005859,-3.9082 z m -21.578125,0.6875 0.427734,1.83789 -0.273437,0.0371 -0.0918,-0.65039 z m 16.310547,0.008 4.007812,3.91211 -4.642578,0.66016 -3.447266,-4.0332 z m -4.396485,0.58008 3.451172,4.03516 -3.841797,0.54492 -2.917969,-4.14258 z m -3.605468,0.47657 2.919921,4.14648 -3.111328,0.44141 -2.414062,-4.24415 z m 33.09375,0.1289 5.808593,3.42578 -8.302734,1.25977 -5.169922,-3.59766 z m -35.982422,0.25195 2.416015,4.24805 -2.441406,0.3457 -1.935547,-4.33398 z m -2.234375,0.29493 1.935547,4.33789 -1.816407,0.25781 -1.478515,-4.41602 z m -1.626953,0.21484 1.480468,4.41992 -1.242187,0.17578 -1.046875,-4.48828 z m -1.072266,0.14062 1.046875,4.49219 -0.710938,0.10157 -0.632812,-4.55469 z m 32.867187,0.24024 5.175782,3.60156 -7.154297,1.08594 -4.570313,-3.75781 z m -6.904297,0.98047 4.574219,3.75976 -6.136719,0.93164 -3.998046,-3.90039 z m -5.890624,0.83789 3.998046,3.90234 -5.228515,0.79492 -3.447266,-4.0332 z m -20.335938,0.14258 0.337891,2.42968 -0.208985,0.0293 z m 15.347656,0.5664 3.451172,4.03516 -4.40039,0.66602 -2.925782,-4.15235 z m -4.169922,0.5918 2.927735,4.1543 -3.644531,0.55273 -2.425782,-4.26172 z m -3.423828,0.48633 2.425782,4.26367 -2.949219,0.44727 -1.947266,-4.36133 z m -2.742187,0.38867 1.947265,4.36328 -2.300781,0.34961 -1.490234,-4.45117 z m -2.109375,0.30078 1.490234,4.45313 -1.703125,0.25781 -1.056641,-4.53125 z m -1.53125,0.2168 1.054687,4.53515 -1.148437,0.17383 -0.640625,-4.60547 z m -0.996094,0.14062 0.640625,4.60742 -0.628906,0.0957 -0.244141,-4.66992 z"
       id="path817"
       inkscape:connector-curvature="0" />
    <path
       style="opacity:1;fill:#ff00ff;fill-opacity:1"
       d=""
       id="path828"
       inkscape:connector-curvature="0"
       transform="scale(0.26458333)" />
  </g>
</svg>
