<?xml version="1.0" encoding="UTF-8" standalone="no"?>
<!-- Created with Inkscape (http://www.inkscape.org/) -->

<svg
   xmlns:dc="http://purl.org/dc/elements/1.1/"
   xmlns:cc="http://creativecommons.org/ns#"
   xmlns:rdf="http://www.w3.org/1999/02/22-rdf-syntax-ns#"
   xmlns:svg="http://www.w3.org/2000/svg"
   xmlns="http://www.w3.org/2000/svg"
   xmlns:sodipodi="http://sodipodi.sourceforge.net/DTD/sodipodi-0.dtd"
   xmlns:inkscape="http://www.inkscape.org/namespaces/inkscape"
   width="210mm"
   height="297mm"
   viewBox="0 0 210 297"
   version="1.1"
   id="svg8"
   inkscape:version="0.92.4 (5da689c313, 2019-01-14)"
   sodipodi:docname="abstract.svg">
  <defs
     id="defs2" />
  <sodipodi:namedview
     id="base"
     pagecolor="#ffffff"
     bordercolor="#666666"
     borderopacity="1.0"
     inkscape:pageopacity="0.0"
     inkscape:pageshadow="2"
     inkscape:zoom="1"
     inkscape:cx="-438.07743"
     inkscape:cy="1825.1539"
     inkscape:document-units="mm"
     inkscape:current-layer="layer1"
     showgrid="false"
     inkscape:showpageshadow="false"
     showborder="false"
     inkscape:window-width="1600"
     inkscape:window-height="1137"
     inkscape:window-x="-8"
     inkscape:window-y="-8"
     inkscape:window-maximized="1" />
  <metadata
     id="metadata5">
    <rdf:RDF>
      <cc:Work
         rdf:about="">
        <dc:format>image/svg+xml</dc:format>
        <dc:type
           rdf:resource="http://purl.org/dc/dcmitype/StillImage" />
        <dc:title></dc:title>
      </cc:Work>
    </rdf:RDF>
  </metadata>
  <g
     inkscape:label="Layer 1"
     inkscape:groupmode="layer"
     id="layer1">
    <g
       id="g886"
       transform="translate(37.306249,60.854167)">
      <path
         id="path877"
         transform="scale(0.26458333)"
         d="m -446.8418,-875.125 c -0.11716,0 -1.18851,0.55961 -2.65625,1.34961 l -40.87304,23.59766 c 0.0216,8.64845 0.0351,17.72719 0.0351,26.87109 0,8.93116 -0.0126,17.77312 -0.0332,26.24414 l 89.92187,-51.91602 c -24.98668,-14.3472 -45.78315,-26.14648 -46.39453,-26.14648 z"
         style="opacity:1;fill:#00d4aa;fill-opacity:1;stroke:none;stroke-width:0;stroke-miterlimit:0;stroke-dasharray:none;stroke-opacity:1"
         inkscape:connector-curvature="0" />
      <path
         inkscape:connector-curvature="0"
         id="path820"
         d="m -129.63859,-266.28866 c 0.10681,0.0701 0.18221,0.12265 0.19017,0.13643 0.2082,0.36061 0.2082,41.28076 0,41.64138 -0.20303,0.35166 -33.88802,19.80546 -35.9513,20.77393 -0.10684,-0.0702 -0.18221,-0.12265 -0.19017,-0.13643 -0.20821,-0.36062 -0.20821,-41.28075 0,-41.64138 0.20304,-0.35165 33.88749,-19.80515 35.9513,-20.77393 z"
         style="opacity:1;fill:#00ffe8;fill-opacity:1;stroke:none;stroke-width:0;stroke-miterlimit:0;stroke-dasharray:none;stroke-opacity:1" />
      <path
         id="rect845"
         transform="scale(0.26458333)"
         d="m -669.82422,-954.78711 c -0.40369,0.26495 -0.68866,0.46354 -0.71875,0.51563 -0.39345,0.68146 -0.58984,39.68791 -0.58984,78.69336 0,39.00544 0.19639,78.00991 0.58984,78.6914 0.30427,0.52702 20.65328,12.48443 45.41016,26.85742 v -159.52929 c -22.83045,-13.10455 -41.8346,-23.8875 -44.69141,-25.22852 z"
         style="opacity:1;fill:#00ccff;fill-opacity:1;stroke:none;stroke-width:0;stroke-miterlimit:0;stroke-dasharray:none;stroke-opacity:1"
         inkscape:connector-curvature="0" />
      <path
         inkscape:connector-curvature="0"
         style="opacity:1;fill:#00ccff;fill-opacity:1;stroke:none;stroke-width:0;stroke-miterlimit:0;stroke-dasharray:none;stroke-opacity:1"
         d="m -153.73014,-238.79059 c -0.10681,0.0701 -0.18221,0.12265 -0.19017,0.13643 -0.1041,0.1803 -0.15606,10.50076 -0.15606,20.82095 0,10.32019 0.052,20.64012 0.15606,20.82043 0.0805,0.13945 5.46451,3.30318 12.01477,7.10603 v -42.20879 c -6.04056,-3.46725 -11.06874,-6.32024 -11.8246,-6.67505 z"
         id="path850" />
      <path
         id="rect852"
         transform="scale(0.26458333)"
         d="m -536,-1031.8652 c -0.11696,0 -1.18852,0.5596 -2.65625,1.3496 l -131.16797,75.72849 c 5.16997,3.25522 23.85326,14.20699 45.56836,26.80859 l 134.65039,-77.74028 c -24.98668,-14.3472 -45.78316,-26.1464 -46.39453,-26.1464 z"
         style="opacity:1;fill:#00d4aa;fill-opacity:1;stroke:none;stroke-width:0;stroke-miterlimit:0;stroke-dasharray:none;stroke-opacity:1"
         inkscape:connector-curvature="0" />
      <path
         inkscape:connector-curvature="0"
         style="opacity:1;fill:#00d4aa;fill-opacity:1;stroke:none;stroke-width:0;stroke-miterlimit:0;stroke-dasharray:none;stroke-opacity:1"
         d="m -118.55451,-259.60222 c -0.031,0 -0.31446,0.14806 -0.7028,0.35708 l -34.70486,20.03649 c 1.36789,0.86128 6.31118,3.75894 12.05663,7.09311 l 35.62625,-20.56878 c -6.61106,-3.79603 -12.11346,-6.9179 -12.27522,-6.9179 z"
         id="path857" />
      <path
         id="path863"
         transform="scale(0.26458333)"
         d="m -401.68555,-955.02734 -134.65039,77.74023 v 159.5293 c 0.58866,-0.34176 1.0806,-0.62985 1.66406,-0.96875 0.003,0.0788 0.005,0.28119 0.008,0.35547 l 131.16601,-75.73047 c 1.41801,-0.87606 2.43947,-1.52371 2.49805,-1.625 0.30588,-0.52944 0.48432,-24.43929 0.55273,-53.25196 l -89.92187,51.91602 c 0.0206,-8.47102 0.0332,-17.31298 0.0332,-26.24414 0,-9.32401 -0.0127,-18.59978 -0.0351,-27.40039 l 85.63476,-49.44336 c 1.41801,-0.87613 2.43751,-1.52371 2.4961,-1.625 0.30587,-0.52944 0.48627,-24.43925 0.55468,-53.25195 z"
         style="opacity:1;fill:#00ffe8;fill-opacity:1;stroke:none;stroke-width:0;stroke-miterlimit:0;stroke-dasharray:none;stroke-opacity:1"
         inkscape:connector-curvature="0" />
    </g>
  </g>
</svg>
