<?xml version="1.0" encoding="UTF-8" standalone="no"?>
<!-- Created with Inkscape (http://www.inkscape.org/) -->

<svg
   xmlns:dc="http://purl.org/dc/elements/1.1/"
   xmlns:cc="http://creativecommons.org/ns#"
   xmlns:rdf="http://www.w3.org/1999/02/22-rdf-syntax-ns#"
   xmlns:svg="http://www.w3.org/2000/svg"
   xmlns="http://www.w3.org/2000/svg"
   xmlns:sodipodi="http://sodipodi.sourceforge.net/DTD/sodipodi-0.dtd"
   xmlns:inkscape="http://www.inkscape.org/namespaces/inkscape"
   width="210mm"
   height="297mm"
   viewBox="0 0 210 297"
   version="1.1"
   id="svg8"
   inkscape:version="0.92.4 (5da689c313, 2019-01-14)"
   sodipodi:docname="batttery.svg">
  <defs
     id="defs2" />
  <sodipodi:namedview
     id="base"
     pagecolor="#ffffff"
     bordercolor="#666666"
     borderopacity="1.0"
     inkscape:pageopacity="0.0"
     inkscape:pageshadow="2"
     inkscape:zoom="0.35"
     inkscape:cx="-198.57143"
     inkscape:cy="1045.7143"
     inkscape:document-units="px"
     inkscape:current-layer="layer1"
     showgrid="false"
     inkscape:showpageshadow="false"
     showborder="false"
     inkscape:snap-smooth-nodes="false"
     inkscape:object-nodes="false"
     inkscape:object-paths="true"
     inkscape:window-width="1600"
     inkscape:window-height="1137"
     inkscape:window-x="-8"
     inkscape:window-y="-8"
     inkscape:window-maximized="1" />
  <metadata
     id="metadata5">
    <rdf:RDF>
      <cc:Work
         rdf:about="">
        <dc:format>image/svg+xml</dc:format>
        <dc:type
           rdf:resource="http://purl.org/dc/dcmitype/StillImage" />
        <dc:title></dc:title>
      </cc:Work>
    </rdf:RDF>
  </metadata>
  <g
     inkscape:label="Layer 1"
     inkscape:groupmode="layer"
     id="layer1">
    <path
       style="opacity:1;fill:#000000;fill-opacity:1;stroke:#0000ff;stroke-width:0.01214863;stroke-miterlimit:0;stroke-dasharray:none;stroke-opacity:1"
       d="m -58.964358,-72.721216 c -22.339514,9e-6 -40.449483,6.818114 -40.449746,15.228749 v 9.641225 a 97.484418,21.047773 0 0 0 -57.034676,19.126447 V 223.8485 a 97.484418,21.047773 0 0 0 97.484422,21.04773 97.484418,21.047773 0 0 0 97.48442,-21.04773 V -28.724795 a 97.484418,21.047773 0 0 0 -57.034676,-19.121782 v -9.64589 c -2.66e-4,-8.410635 -18.11023,-15.22874 -40.449744,-15.228749 z m 40.449744,38.332592 a 81.861463,22.328229 0 0 1 41.411665,19.393528 81.861463,22.328229 0 0 1 -81.861409,22.3280352 81.861463,22.328229 0 0 1 -81.861412,-22.3280352 81.861463,22.328229 0 0 1 41.411666,-19.379962 v 10.398809 c -1.97e-4,8.410751 18.109906,15.2287373 40.449746,15.228746 22.339839,-8.7e-6 40.44994,-6.817995 40.449744,-15.228746 z M -140.82577,78.336838 c -6.2e-4,9.761521 36.65016,17.674872 81.861412,17.674878 21.711195,-2e-6 42.533074,-1.862033 57.8850964,-5.176723 C 14.27276,87.520304 22.897268,83.024482 22.897051,78.336838 V 203.60963 c 2.97e-4,4.68765 -8.624291,9.18347 -23.9763126,12.49816 -15.3520224,3.31469 -36.1739014,5.17672 -57.8850964,5.17672 -45.211252,-1e-5 -81.862062,-7.91336 -81.861412,-17.67488 v -9.5433 c 0.0184,3.91292 10.82237,7.42093 27.90623,9.8142 v -17.42518 c -17.08391,-2.39314 -27.88788,-5.90125 -27.90623,-9.81419 v -22.57435 c 0.0184,3.91292 10.82235,7.42093 27.90623,9.8142 v -17.42518 c -17.0839,-2.39314 -27.88788,-5.90127 -27.90623,-9.8142 v -22.57476 c 0.0183,3.91293 10.82233,7.42092 27.90623,9.81419 v -17.42518 c -17.08386,-2.39326 -27.88783,-5.90127 -27.90623,-9.814191 z"
       id="path854"
       inkscape:connector-curvature="0" />
  </g>
</svg>
