<?xml version="1.0" encoding="UTF-8" standalone="no"?>
<!-- Created with Inkscape (http://www.inkscape.org/) -->

<svg
   xmlns:dc="http://purl.org/dc/elements/1.1/"
   xmlns:cc="http://creativecommons.org/ns#"
   xmlns:rdf="http://www.w3.org/1999/02/22-rdf-syntax-ns#"
   xmlns:svg="http://www.w3.org/2000/svg"
   xmlns="http://www.w3.org/2000/svg"
   xmlns:sodipodi="http://sodipodi.sourceforge.net/DTD/sodipodi-0.dtd"
   xmlns:inkscape="http://www.inkscape.org/namespaces/inkscape"
   width="210mm"
   height="297mm"
   viewBox="0 0 210 297"
   version="1.1"
   id="svg8"
   inkscape:version="0.92.4 (5da689c313, 2019-01-14)"
   sodipodi:docname="cubes.svg">
  <defs
     id="defs2" />
  <sodipodi:namedview
     id="base"
     pagecolor="#ffffff"
     bordercolor="#666666"
     borderopacity="1.0"
     inkscape:pageopacity="0.0"
     inkscape:pageshadow="2"
     inkscape:zoom="0.8088945"
     inkscape:cx="396.85039"
     inkscape:cy="561.25984"
     inkscape:document-units="mm"
     inkscape:current-layer="layer1"
     showgrid="false"
     inkscape:showpageshadow="false"
     showborder="false"
     inkscape:snap-nodes="false"
     inkscape:window-width="1600"
     inkscape:window-height="1137"
     inkscape:window-x="-8"
     inkscape:window-y="-8"
     inkscape:window-maximized="1" />
  <metadata
     id="metadata5">
    <rdf:RDF>
      <cc:Work
         rdf:about="">
        <dc:format>image/svg+xml</dc:format>
        <dc:type
           rdf:resource="http://purl.org/dc/dcmitype/StillImage" />
        <dc:title></dc:title>
      </cc:Work>
    </rdf:RDF>
  </metadata>
  <g
     inkscape:label="Layer 1"
     inkscape:groupmode="layer"
     id="layer1">
    <g
       id="g925">
      <g
         transform="translate(14.363091,-3.023809)"
         id="g884">
        <path
           style="opacity:1;fill:#7f2aff;fill-opacity:1;stroke:#000000;stroke-width:0.26643947;stroke-miterlimit:4;stroke-dasharray:none;stroke-opacity:0"
           d="m -31.764071,-9.6808656 c -0.008,9.21e-5 -0.0062,0.00596 0,0.014275 0.0064,-0.00876 0.0082,-0.014363 0,-0.014275 z m 0,0.014275 c -0.604725,0.8260236 -65.508732,40.5808066 -69.292509,42.4620476 -0.0154,0.878036 -0.0346,1.559196 -0.0622,1.631569 0.99262,0.11854 69.688649,40.199105 70.298379,41.015523 C -30.215655,74.6165 34.693078,34.858572 38.47261,32.979974 38.48802,32.100681 38.50661,31.41936 38.5344,31.348402 37.540636,31.22923 -31.154293,-8.8497943 -31.764019,-9.6665905 Z M 38.534314,31.348402 c 0.0015,1.85e-4 0.0044,0.001 0.0056,0.001 -9.9e-5,-0.0025 -4.1e-4,-0.0063 -5.1e-4,-0.009 -0.0018,10e-4 -0.0034,0.0036 -0.0051,0.0079 z m -69.354795,44.094147 c -0.0064,0.0088 -0.0082,0.01436 0,0.01427 0.008,-8.9e-5 0.0062,-0.0059 0,-0.01427 z M -101.11886,34.427026 c -0.002,-1.81e-4 -0.004,-10e-4 -0.006,-10e-4 1.1e-4,0.0027 4.1e-4,0.0068 5.1e-4,0.0095 0.002,-0.0012 0.003,-0.0039 0.005,-0.0084 z"
           id="path864"
           inkscape:connector-curvature="0" />
        <path
           style="opacity:1;fill:#6600ff;fill-opacity:1;stroke:#000000;stroke-width:0.2662088;stroke-miterlimit:4;stroke-dasharray:none;stroke-opacity:0"
           d="m 38.476445,32.01444 c -0.0085,8.8e-5 -0.0063,0.0059 5.28e-4,0.01427 0.0064,-0.0083 0.0079,-0.01436 -5.28e-4,-0.01427 z m 5.28e-4,0.01427 c -0.627865,0.807211 -70.898528,40.863426 -71.923663,40.998404 0.395473,0.890043 1.200481,73.610676 0.914227,80.040226 0.475578,0.28084 0.785488,0.47283 0.823282,0.51884 0.627766,-0.80709 70.876838,-40.85065 71.923135,-40.9979 -0.395479,-0.89107 -1.199956,-73.61122 -0.913699,-80.040734 -0.475578,-0.280864 -0.785491,-0.472809 -0.823282,-0.518834 z m 1.736981,80.55957 c 0.0042,0.009 0.0086,0.0137 0.01269,0.007 0.0042,-0.007 -0.0018,-0.008 -0.01269,-0.007 z m -71.923135,40.9979 c -0.0064,0.008 -0.0079,0.0144 5.28e-4,0.0143 0.0085,-8e-5 0.0063,-0.006 -5.28e-4,-0.0143 z M -33.44669,73.027111 c -0.0042,-0.0095 -0.0086,-0.0142 -0.01269,-0.0071 -0.0041,0.007 0.0023,0.0085 0.01269,0.0071 z"
           id="path866"
           inkscape:connector-curvature="0" />
        <path
           inkscape:connector-curvature="0"
           id="path879"
           d="m -101.129,32.064055 c 0.008,8.8e-5 0.006,0.0059 -5.2e-4,0.0142 -0.006,-0.0083 -0.008,-0.01429 5.2e-4,-0.0142 z m -5.2e-4,0.0142 c 0.61365,0.803437 69.293302,40.672353 70.295227,40.8067 -0.386519,0.885882 -1.173301,73.266485 -0.893528,79.665975 -0.46481,0.27953 -0.767704,0.47062 -0.804642,0.51641 -0.613553,-0.80331 -69.272097,-40.65963 -70.294707,-40.80619 0.38653,-0.88691 1.17279,-73.267034 0.89301,-79.666485 0.46481,-0.27955 0.76771,-0.470598 0.80464,-0.516408 z m -1.69765,80.182895 c -0.004,0.009 -0.008,0.0136 -0.0124,0.007 -0.004,-0.007 0.002,-0.008 0.0124,-0.007 z m 70.294707,40.80619 c 0.0063,0.008 0.0077,0.0143 -5.16e-4,0.0142 -0.0083,-8e-5 -0.0062,-0.006 5.16e-4,-0.0142 z m 1.69817,-80.182385 c 0.0041,-0.0095 0.0084,-0.01413 0.0124,-0.0071 0.004,0.007 -0.0022,0.0085 -0.0124,0.0071 z"
           style="opacity:1;fill:#330080;fill-opacity:1;stroke:#000000;stroke-width:0.26256189;stroke-miterlimit:4;stroke-dasharray:none;stroke-opacity:0" />
      </g>
      <g
         transform="translate(77.689327,-89.355106)"
         id="g911">
        <path
           inkscape:connector-curvature="0"
           id="path886"
           d="m 47.610924,-165.40706 c -0.008,1e-4 -0.0062,0.006 0,0.0143 0.0064,-0.009 0.0082,-0.0144 0,-0.0143 z m 0,0.0143 c -0.604725,0.82602 -65.508732,40.58081 -69.292509,42.46205 -0.0154,0.87803 -0.0346,1.55919 -0.0622,1.63157 0.99262,0.11854 69.688649,40.199101 70.298379,41.015519 0.604746,-0.826049 65.513476,-40.583979 69.293016,-42.462579 0.0154,-0.87929 0.034,-1.56061 0.0618,-1.63157 -0.99376,-0.11917 -69.688688,-40.19819 -70.298414,-41.01499 z m 70.298386,41.01499 c 10e-4,1.9e-4 0.004,0.001 0.006,0.001 -1e-4,-0.002 -4.1e-4,-0.006 -5.1e-4,-0.009 -0.002,10e-4 -0.003,0.004 -0.005,0.008 z m -69.354796,44.094149 c -0.0064,0.0088 -0.0082,0.01436 0,0.01427 0.008,-8.9e-5 0.0062,-0.0059 0,-0.01427 z m -70.298379,-41.015519 c -0.002,-1.9e-4 -0.004,-0.001 -0.006,-0.001 1.1e-4,0.003 4.1e-4,0.007 5.1e-4,0.01 0.002,-0.001 0.003,-0.004 0.005,-0.008 z"
           style="opacity:1;fill:#ff80e5;fill-opacity:1;stroke:#000000;stroke-width:0.26643947;stroke-miterlimit:4;stroke-dasharray:none;stroke-opacity:0" />
        <path
           inkscape:connector-curvature="0"
           id="path888"
           d="m 117.85144,-123.71175 c -0.008,9e-5 -0.006,0.006 5.3e-4,0.0143 0.006,-0.008 0.008,-0.0144 -5.3e-4,-0.0143 z m 5.3e-4,0.0143 c -0.62787,0.80721 -70.89853,40.863426 -71.923665,40.998404 0.395473,0.890043 1.200481,73.610676 0.914227,80.040226 0.475578,0.28084 0.785488,0.47283 0.823282,0.51884 0.627766,-0.80709 70.876836,-40.85065 71.923136,-40.9979 -0.39548,-0.89107 -1.19996,-73.61122 -0.9137,-80.04073 -0.47558,-0.28087 -0.78549,-0.47281 -0.82328,-0.51884 z m 1.73698,80.55957 c 0.004,0.009 0.009,0.0137 0.0127,0.007 0.004,-0.007 -0.002,-0.008 -0.0127,-0.007 z m -71.923136,40.9979 c -0.0064,0.008 -0.0079,0.0144 5.28e-4,0.0143 0.0085,-8e-5 0.0063,-0.006 -5.28e-4,-0.0143 z m -1.737509,-80.559069 c -0.0042,-0.0095 -0.0086,-0.0142 -0.01269,-0.0071 -0.0041,0.007 0.0023,0.0085 0.01269,0.0071 z"
           style="opacity:1;fill:#ff2ad4;fill-opacity:1;stroke:#000000;stroke-width:0.2662088;stroke-miterlimit:4;stroke-dasharray:none;stroke-opacity:0" />
        <path
           style="opacity:1;fill:#aa0088;fill-opacity:1;stroke:#000000;stroke-width:0.26256189;stroke-miterlimit:4;stroke-dasharray:none;stroke-opacity:0"
           d="m -21.754005,-123.66214 c 0.008,9e-5 0.006,0.006 -5.2e-4,0.0142 -0.006,-0.008 -0.008,-0.0143 5.2e-4,-0.0142 z m -5.2e-4,0.0142 c 0.61365,0.80343 69.293302,40.672348 70.295227,40.806695 -0.386519,0.885882 -1.173301,73.266485 -0.893528,79.665975 -0.46481,0.27953 -0.767704,0.47062 -0.804642,0.51641 -0.613553,-0.80331 -69.272097,-40.65963 -70.294707,-40.80619 0.38653,-0.88691 1.17279,-73.26703 0.89301,-79.66648 0.46481,-0.27955 0.76771,-0.4706 0.80464,-0.51641 z m -1.69765,80.18289 c -0.004,0.009 -0.008,0.0136 -0.0124,0.007 -0.004,-0.007 0.002,-0.008 0.0124,-0.007 z m 70.294707,40.80619 c 0.0063,0.008 0.0077,0.0143 -5.16e-4,0.0142 -0.0083,-8e-5 -0.0062,-0.006 5.16e-4,-0.0142 z m 1.69817,-80.182385 c 0.0041,-0.0095 0.0084,-0.01413 0.0124,-0.0071 0.004,0.007 -0.0022,0.0085 -0.0124,0.0071 z"
           id="path890"
           inkscape:connector-curvature="0" />
      </g>
      <g
         transform="matrix(0.99999447,0,0,1.0046252,-219.22468,18.848681)"
         id="g906">
        <path
           style="opacity:1;fill:#55ddff;fill-opacity:1;stroke:#000000;stroke-width:0.26643947;stroke-miterlimit:4;stroke-dasharray:none;stroke-opacity:0"
           d="m 272.88473,-152.55587 c -0.008,1e-4 -0.006,0.006 0,0.0143 0.006,-0.009 0.008,-0.0144 0,-0.0143 z m 0,0.0143 c -0.60472,0.82602 -65.50873,40.58081 -69.29251,42.46205 -0.0154,0.87803 -0.0346,1.55919 -0.0622,1.63157 0.99262,0.11854 69.68865,40.199101 70.29838,41.015519 0.60475,-0.826049 65.51348,-40.583979 69.29302,-42.462579 0.0154,-0.87929 0.034,-1.56061 0.0618,-1.63157 -0.99376,-0.11917 -69.68869,-40.19819 -70.29841,-41.01499 z m 70.29839,41.01499 c 0.001,1.9e-4 0.004,10e-4 0.006,10e-4 -10e-5,-0.002 -4.1e-4,-0.006 -5.1e-4,-0.009 -0.002,0.001 -0.003,0.004 -0.005,0.008 z m -69.3548,44.094149 c -0.006,0.0088 -0.008,0.01436 0,0.01427 0.008,-8.9e-5 0.006,-0.0059 0,-0.01427 z m -70.29838,-41.015519 c -0.002,-1.9e-4 -0.004,-10e-4 -0.006,-10e-4 1.1e-4,0.003 4.1e-4,0.007 5.1e-4,0.01 0.002,-10e-4 0.003,-0.004 0.005,-0.008 z"
           id="path897"
           inkscape:connector-curvature="0" />
        <path
           style="opacity:1;fill:#00ccff;fill-opacity:1;stroke:#000000;stroke-width:0.2662088;stroke-miterlimit:4;stroke-dasharray:none;stroke-opacity:0"
           d="m 343.12525,-110.86056 c -0.008,9e-5 -0.006,0.006 5.3e-4,0.0143 0.006,-0.008 0.008,-0.0144 -5.3e-4,-0.0143 z m 5.3e-4,0.0143 c -0.62787,0.80721 -70.89853,40.863426 -71.92367,40.998404 0.39548,0.890043 1.20049,73.6106765 0.91423,80.040226 0.47558,0.28084 0.78549,0.47283 0.82328,0.51884 0.62777,-0.8070895 70.87684,-40.85065 71.92314,-40.9979 -0.39548,-0.89107 -1.19996,-73.61122 -0.9137,-80.04073 -0.47558,-0.28087 -0.78549,-0.47281 -0.82328,-0.51884 z m 1.73698,80.55957 c 0.004,0.009 0.009,0.0137 0.0127,0.007 0.004,-0.007 -0.002,-0.008 -0.0127,-0.007 z m -71.92314,40.9979 c -0.006,0.008 -0.008,0.0144 5.3e-4,0.0143 0.008,-8e-5 0.006,-0.006 -5.3e-4,-0.0143 z m -1.73751,-80.559069 c -0.004,-0.0095 -0.009,-0.0142 -0.0127,-0.0071 -0.004,0.007 0.002,0.0085 0.0127,0.0071 z"
           id="path899"
           inkscape:connector-curvature="0" />
        <path
           inkscape:connector-curvature="0"
           id="path901"
           d="m 203.5198,-110.81095 c 0.008,9e-5 0.006,0.006 -5.2e-4,0.0142 -0.006,-0.008 -0.008,-0.0143 5.2e-4,-0.0142 z m -5.2e-4,0.0142 c 0.61365,0.80343 69.29331,40.672348 70.29523,40.806695 -0.38652,0.885882 -1.1733,73.2664855 -0.89353,79.6659755 -0.46481,0.27953 -0.7677,0.4706195 -0.80464,0.5164095 -0.61355,-0.8033095 -69.2721,-40.65963 -70.29471,-40.80619 0.38653,-0.88691 1.17279,-73.26703 0.89301,-79.66648 0.46481,-0.27955 0.76771,-0.4706 0.80464,-0.51641 z m -1.69765,80.18289 c -0.004,0.009 -0.008,0.0136 -0.0124,0.007 -0.004,-0.007 0.002,-0.008 0.0124,-0.007 z m 70.29471,40.80619 c 0.006,0.008 0.008,0.0143 -5.1e-4,0.0142 -0.008,-8e-5 -0.006,-0.006 5.1e-4,-0.0142 z m 1.69817,-80.182385 c 0.004,-0.0095 0.008,-0.01413 0.0124,-0.0071 0.004,0.007 -0.002,0.0085 -0.0124,0.0071 z"
           style="opacity:1;fill:#0088aa;fill-opacity:1;stroke:#000000;stroke-width:0.26256189;stroke-miterlimit:4;stroke-dasharray:none;stroke-opacity:0" />
      </g>
    </g>
    <g
       id="g951">
      <g
         id="g933"
         transform="translate(14.363091,-3.023809)">
        <path
           inkscape:connector-curvature="0"
           id="path927"
           d="m -31.764071,-9.6808656 c -0.008,9.21e-5 -0.0062,0.00596 0,0.014275 0.0064,-0.00876 0.0082,-0.014363 0,-0.014275 z m 0,0.014275 c -0.604725,0.8260236 -65.508732,40.5808066 -69.292509,42.4620476 -0.0154,0.878036 -0.0346,1.559196 -0.0622,1.631569 0.99262,0.11854 69.688649,40.199105 70.298379,41.015523 C -30.215655,74.6165 34.693078,34.858572 38.47261,32.979974 38.48802,32.100681 38.50661,31.41936 38.5344,31.348402 37.540636,31.22923 -31.154293,-8.8497943 -31.764019,-9.6665905 Z M 38.534314,31.348402 c 0.0015,1.85e-4 0.0044,0.001 0.0056,0.001 -9.9e-5,-0.0025 -4.1e-4,-0.0063 -5.1e-4,-0.009 -0.0018,10e-4 -0.0034,0.0036 -0.0051,0.0079 z m -69.354795,44.094147 c -0.0064,0.0088 -0.0082,0.01436 0,0.01427 0.008,-8.9e-5 0.0062,-0.0059 0,-0.01427 z M -101.11886,34.427026 c -0.002,-1.81e-4 -0.004,-10e-4 -0.006,-10e-4 1.1e-4,0.0027 4.1e-4,0.0068 5.1e-4,0.0095 0.002,-0.0012 0.003,-0.0039 0.005,-0.0084 z"
           style="opacity:1;fill:#7f2aff;fill-opacity:1;stroke:#000000;stroke-width:0.26643947;stroke-miterlimit:4;stroke-dasharray:none;stroke-opacity:0" />
        <path
           inkscape:connector-curvature="0"
           id="path929"
           d="m 38.476445,32.01444 c -0.0085,8.8e-5 -0.0063,0.0059 5.28e-4,0.01427 0.0064,-0.0083 0.0079,-0.01436 -5.28e-4,-0.01427 z m 5.28e-4,0.01427 c -0.627865,0.807211 -70.898528,40.863426 -71.923663,40.998404 0.395473,0.890043 1.200481,73.610676 0.914227,80.040226 0.475578,0.28084 0.785488,0.47283 0.823282,0.51884 0.627766,-0.80709 70.876838,-40.85065 71.923135,-40.9979 -0.395479,-0.89107 -1.199956,-73.61122 -0.913699,-80.040734 -0.475578,-0.280864 -0.785491,-0.472809 -0.823282,-0.518834 z m 1.736981,80.55957 c 0.0042,0.009 0.0086,0.0137 0.01269,0.007 0.0042,-0.007 -0.0018,-0.008 -0.01269,-0.007 z m -71.923135,40.9979 c -0.0064,0.008 -0.0079,0.0144 5.28e-4,0.0143 0.0085,-8e-5 0.0063,-0.006 -5.28e-4,-0.0143 z M -33.44669,73.027111 c -0.0042,-0.0095 -0.0086,-0.0142 -0.01269,-0.0071 -0.0041,0.007 0.0023,0.0085 0.01269,0.0071 z"
           style="opacity:1;fill:#6600ff;fill-opacity:1;stroke:#000000;stroke-width:0.2662088;stroke-miterlimit:4;stroke-dasharray:none;stroke-opacity:0" />
        <path
           style="opacity:1;fill:#330080;fill-opacity:1;stroke:#000000;stroke-width:0.26256189;stroke-miterlimit:4;stroke-dasharray:none;stroke-opacity:0"
           d="m -101.129,32.064055 c 0.008,8.8e-5 0.006,0.0059 -5.2e-4,0.0142 -0.006,-0.0083 -0.008,-0.01429 5.2e-4,-0.0142 z m -5.2e-4,0.0142 c 0.61365,0.803437 69.293302,40.672353 70.295227,40.8067 -0.386519,0.885882 -1.173301,73.266485 -0.893528,79.665975 -0.46481,0.27953 -0.767704,0.47062 -0.804642,0.51641 -0.613553,-0.80331 -69.272097,-40.65963 -70.294707,-40.80619 0.38653,-0.88691 1.17279,-73.267034 0.89301,-79.666485 0.46481,-0.27955 0.76771,-0.470598 0.80464,-0.516408 z m -1.69765,80.182895 c -0.004,0.009 -0.008,0.0136 -0.0124,0.007 -0.004,-0.007 0.002,-0.008 0.0124,-0.007 z m 70.294707,40.80619 c 0.0063,0.008 0.0077,0.0143 -5.16e-4,0.0142 -0.0083,-8e-5 -0.0062,-0.006 5.16e-4,-0.0142 z m 1.69817,-80.182385 c 0.0041,-0.0095 0.0084,-0.01413 0.0124,-0.0071 0.004,0.007 -0.0022,0.0085 -0.0124,0.0071 z"
           id="path931"
           inkscape:connector-curvature="0" />
      </g>
      <g
         id="g941"
         transform="translate(77.689327,-89.355106)">
        <path
           style="opacity:1;fill:#ff80e5;fill-opacity:1;stroke:#000000;stroke-width:0.26643947;stroke-miterlimit:4;stroke-dasharray:none;stroke-opacity:0"
           d="m 47.610924,-165.40706 c -0.008,1e-4 -0.0062,0.006 0,0.0143 0.0064,-0.009 0.0082,-0.0144 0,-0.0143 z m 0,0.0143 c -0.604725,0.82602 -65.508732,40.58081 -69.292509,42.46205 -0.0154,0.87803 -0.0346,1.55919 -0.0622,1.63157 0.99262,0.11854 69.688649,40.199101 70.298379,41.015519 0.604746,-0.826049 65.513476,-40.583979 69.293016,-42.462579 0.0154,-0.87929 0.034,-1.56061 0.0618,-1.63157 -0.99376,-0.11917 -69.688688,-40.19819 -70.298414,-41.01499 z m 70.298386,41.01499 c 10e-4,1.9e-4 0.004,0.001 0.006,0.001 -1e-4,-0.002 -4.1e-4,-0.006 -5.1e-4,-0.009 -0.002,10e-4 -0.003,0.004 -0.005,0.008 z m -69.354796,44.094149 c -0.0064,0.0088 -0.0082,0.01436 0,0.01427 0.008,-8.9e-5 0.0062,-0.0059 0,-0.01427 z m -70.298379,-41.015519 c -0.002,-1.9e-4 -0.004,-0.001 -0.006,-0.001 1.1e-4,0.003 4.1e-4,0.007 5.1e-4,0.01 0.002,-0.001 0.003,-0.004 0.005,-0.008 z"
           id="path935"
           inkscape:connector-curvature="0" />
        <path
           style="opacity:1;fill:#ff2ad4;fill-opacity:1;stroke:#000000;stroke-width:0.2662088;stroke-miterlimit:4;stroke-dasharray:none;stroke-opacity:0"
           d="m 117.85144,-123.71175 c -0.008,9e-5 -0.006,0.006 5.3e-4,0.0143 0.006,-0.008 0.008,-0.0144 -5.3e-4,-0.0143 z m 5.3e-4,0.0143 c -0.62787,0.80721 -70.89853,40.863426 -71.923665,40.998404 0.395473,0.890043 1.200481,73.610676 0.914227,80.040226 0.475578,0.28084 0.785488,0.47283 0.823282,0.51884 0.627766,-0.80709 70.876836,-40.85065 71.923136,-40.9979 -0.39548,-0.89107 -1.19996,-73.61122 -0.9137,-80.04073 -0.47558,-0.28087 -0.78549,-0.47281 -0.82328,-0.51884 z m 1.73698,80.55957 c 0.004,0.009 0.009,0.0137 0.0127,0.007 0.004,-0.007 -0.002,-0.008 -0.0127,-0.007 z m -71.923136,40.9979 c -0.0064,0.008 -0.0079,0.0144 5.28e-4,0.0143 0.0085,-8e-5 0.0063,-0.006 -5.28e-4,-0.0143 z m -1.737509,-80.559069 c -0.0042,-0.0095 -0.0086,-0.0142 -0.01269,-0.0071 -0.0041,0.007 0.0023,0.0085 0.01269,0.0071 z"
           id="path937"
           inkscape:connector-curvature="0" />
        <path
           inkscape:connector-curvature="0"
           id="path939"
           d="m -21.754005,-123.66214 c 0.008,9e-5 0.006,0.006 -5.2e-4,0.0142 -0.006,-0.008 -0.008,-0.0143 5.2e-4,-0.0142 z m -5.2e-4,0.0142 c 0.61365,0.80343 69.293302,40.672348 70.295227,40.806695 -0.386519,0.885882 -1.173301,73.266485 -0.893528,79.665975 -0.46481,0.27953 -0.767704,0.47062 -0.804642,0.51641 -0.613553,-0.80331 -69.272097,-40.65963 -70.294707,-40.80619 0.38653,-0.88691 1.17279,-73.26703 0.89301,-79.66648 0.46481,-0.27955 0.76771,-0.4706 0.80464,-0.51641 z m -1.69765,80.18289 c -0.004,0.009 -0.008,0.0136 -0.0124,0.007 -0.004,-0.007 0.002,-0.008 0.0124,-0.007 z m 70.294707,40.80619 c 0.0063,0.008 0.0077,0.0143 -5.16e-4,0.0142 -0.0083,-8e-5 -0.0062,-0.006 5.16e-4,-0.0142 z m 1.69817,-80.182385 c 0.0041,-0.0095 0.0084,-0.01413 0.0124,-0.0071 0.004,0.007 -0.0022,0.0085 -0.0124,0.0071 z"
           style="opacity:1;fill:#aa0088;fill-opacity:1;stroke:#000000;stroke-width:0.26256189;stroke-miterlimit:4;stroke-dasharray:none;stroke-opacity:0" />
      </g>
      <g
         id="g949"
         transform="matrix(0.99999447,0,0,1.0046252,-219.22468,18.848681)">
        <path
           inkscape:connector-curvature="0"
           id="path943"
           d="m 272.88473,-152.55587 c -0.008,1e-4 -0.006,0.006 0,0.0143 0.006,-0.009 0.008,-0.0144 0,-0.0143 z m 0,0.0143 c -0.60472,0.82602 -65.50873,40.58081 -69.29251,42.46205 -0.0154,0.87803 -0.0346,1.55919 -0.0622,1.63157 0.99262,0.11854 69.68865,40.199101 70.29838,41.015519 0.60475,-0.826049 65.51348,-40.583979 69.29302,-42.462579 0.0154,-0.87929 0.034,-1.56061 0.0618,-1.63157 -0.99376,-0.11917 -69.68869,-40.19819 -70.29841,-41.01499 z m 70.29839,41.01499 c 0.001,1.9e-4 0.004,10e-4 0.006,10e-4 -10e-5,-0.002 -4.1e-4,-0.006 -5.1e-4,-0.009 -0.002,0.001 -0.003,0.004 -0.005,0.008 z m -69.3548,44.094149 c -0.006,0.0088 -0.008,0.01436 0,0.01427 0.008,-8.9e-5 0.006,-0.0059 0,-0.01427 z m -70.29838,-41.015519 c -0.002,-1.9e-4 -0.004,-10e-4 -0.006,-10e-4 1.1e-4,0.003 4.1e-4,0.007 5.1e-4,0.01 0.002,-10e-4 0.003,-0.004 0.005,-0.008 z"
           style="opacity:1;fill:#55ddff;fill-opacity:1;stroke:#000000;stroke-width:0.26643947;stroke-miterlimit:4;stroke-dasharray:none;stroke-opacity:0" />
        <path
           inkscape:connector-curvature="0"
           id="path945"
           d="m 343.12525,-110.86056 c -0.008,9e-5 -0.006,0.006 5.3e-4,0.0143 0.006,-0.008 0.008,-0.0144 -5.3e-4,-0.0143 z m 5.3e-4,0.0143 c -0.62787,0.80721 -70.89853,40.863426 -71.92367,40.998404 0.39548,0.890043 1.20049,73.6106765 0.91423,80.040226 0.47558,0.28084 0.78549,0.47283 0.82328,0.51884 0.62777,-0.8070895 70.87684,-40.85065 71.92314,-40.9979 -0.39548,-0.89107 -1.19996,-73.61122 -0.9137,-80.04073 -0.47558,-0.28087 -0.78549,-0.47281 -0.82328,-0.51884 z m 1.73698,80.55957 c 0.004,0.009 0.009,0.0137 0.0127,0.007 0.004,-0.007 -0.002,-0.008 -0.0127,-0.007 z m -71.92314,40.9979 c -0.006,0.008 -0.008,0.0144 5.3e-4,0.0143 0.008,-8e-5 0.006,-0.006 -5.3e-4,-0.0143 z m -1.73751,-80.559069 c -0.004,-0.0095 -0.009,-0.0142 -0.0127,-0.0071 -0.004,0.007 0.002,0.0085 0.0127,0.0071 z"
           style="opacity:1;fill:#00ccff;fill-opacity:1;stroke:#000000;stroke-width:0.2662088;stroke-miterlimit:4;stroke-dasharray:none;stroke-opacity:0" />
        <path
           style="opacity:1;fill:#0088aa;fill-opacity:1;stroke:#000000;stroke-width:0.26256189;stroke-miterlimit:4;stroke-dasharray:none;stroke-opacity:0"
           d="m 203.5198,-110.81095 c 0.008,9e-5 0.006,0.006 -5.2e-4,0.0142 -0.006,-0.008 -0.008,-0.0143 5.2e-4,-0.0142 z m -5.2e-4,0.0142 c 0.61365,0.80343 69.29331,40.672348 70.29523,40.806695 -0.38652,0.885882 -1.1733,73.2664855 -0.89353,79.6659755 -0.46481,0.27953 -0.7677,0.4706195 -0.80464,0.5164095 -0.61355,-0.8033095 -69.2721,-40.65963 -70.29471,-40.80619 0.38653,-0.88691 1.17279,-73.26703 0.89301,-79.66648 0.46481,-0.27955 0.76771,-0.4706 0.80464,-0.51641 z m -1.69765,80.18289 c -0.004,0.009 -0.008,0.0136 -0.0124,0.007 -0.004,-0.007 0.002,-0.008 0.0124,-0.007 z m 70.29471,40.80619 c 0.006,0.008 0.008,0.0143 -5.1e-4,0.0142 -0.008,-8e-5 -0.006,-0.006 5.1e-4,-0.0142 z m 1.69817,-80.182385 c 0.004,-0.0095 0.008,-0.01413 0.0124,-0.0071 0.004,0.007 -0.002,0.0085 -0.0124,0.0071 z"
           id="path947"
           inkscape:connector-curvature="0" />
      </g>
    </g>
  </g>
</svg>
