<?xml version="1.0" encoding="UTF-8" standalone="no"?>
<!-- Created with Inkscape (http://www.inkscape.org/) -->

<svg
   xmlns:dc="http://purl.org/dc/elements/1.1/"
   xmlns:cc="http://creativecommons.org/ns#"
   xmlns:rdf="http://www.w3.org/1999/02/22-rdf-syntax-ns#"
   xmlns:svg="http://www.w3.org/2000/svg"
   xmlns="http://www.w3.org/2000/svg"
   xmlns:xlink="http://www.w3.org/1999/xlink"
   xmlns:sodipodi="http://sodipodi.sourceforge.net/DTD/sodipodi-0.dtd"
   xmlns:inkscape="http://www.inkscape.org/namespaces/inkscape"
   width="210mm"
   height="297mm"
   viewBox="0 0 210 297"
   version="1.1"
   id="svg8"
   inkscape:version="0.92.4 (5da689c313, 2019-01-14)"
   sodipodi:docname="Hexagon-2.0.svg">
  <defs
     id="defs2">
    <linearGradient
       inkscape:collect="always"
       id="linearGradient842">
      <stop
         style="stop-color:#ff00ff;stop-opacity:1;"
         offset="0"
         id="stop838" />
      <stop
         style="stop-color:#00ffff;stop-opacity:1"
         offset="1"
         id="stop840" />
    </linearGradient>
    <linearGradient
       inkscape:collect="always"
       xlink:href="#linearGradient842"
       id="linearGradient844"
       x1="-441.57913"
       y1="176.73978"
       x2="437.94345"
       y2="165.3112"
       gradientUnits="userSpaceOnUse" />
    <linearGradient
       inkscape:collect="always"
       xlink:href="#linearGradient842"
       id="linearGradient848"
       gradientUnits="userSpaceOnUse"
       x1="-441.57913"
       y1="176.73978"
       x2="437.94345"
       y2="165.3112"
       gradientTransform="matrix(0.13229167,-0.22913589,0.22913589,0.13229167,-135.20229,12.307964)" />
    <linearGradient
       inkscape:collect="always"
       xlink:href="#linearGradient842"
       id="linearGradient852"
       gradientUnits="userSpaceOnUse"
       gradientTransform="matrix(-0.13229167,-0.22913589,0.22913589,-0.13229167,-192.14442,135.55056)"
       x1="-441.57913"
       y1="176.73978"
       x2="437.94345"
       y2="165.3112" />
    <linearGradient
       inkscape:collect="always"
       xlink:href="#linearGradient842"
       id="linearGradient856"
       gradientUnits="userSpaceOnUse"
       gradientTransform="matrix(-0.26458334,0,0,-0.26458334,-113.88427,246.48519)"
       x1="-441.57913"
       y1="176.73978"
       x2="437.94345"
       y2="165.3112" />
    <linearGradient
       inkscape:collect="always"
       xlink:href="#linearGradient842"
       id="linearGradient860"
       gradientUnits="userSpaceOnUse"
       gradientTransform="matrix(-0.13581117,0.22706754,-0.22706754,-0.13581117,21.150938,234.33045)"
       x1="-441.57913"
       y1="176.73978"
       x2="437.94345"
       y2="165.3112" />
    <linearGradient
       inkscape:collect="always"
       xlink:href="#linearGradient842"
       id="linearGradient864"
       gradientUnits="userSpaceOnUse"
       gradientTransform="matrix(0.12874067,0.23114969,-0.23114969,0.12874067,77.461866,110.12342)"
       x1="-441.57913"
       y1="176.73978"
       x2="437.94345"
       y2="165.3112" />
  </defs>
  <sodipodi:namedview
     id="base"
     pagecolor="#ffffff"
     bordercolor="#666666"
     borderopacity="1.0"
     inkscape:pageopacity="0.0"
     inkscape:pageshadow="2"
     inkscape:zoom="0.35"
     inkscape:cx="-64.285714"
     inkscape:cy="560"
     inkscape:document-units="mm"
     inkscape:current-layer="layer1"
     showgrid="false"
     inkscape:showpageshadow="false"
     showborder="false"
     inkscape:window-width="1600"
     inkscape:window-height="1137"
     inkscape:window-x="-8"
     inkscape:window-y="-8"
     inkscape:window-maximized="1" />
  <metadata
     id="metadata5">
    <rdf:RDF>
      <cc:Work
         rdf:about="">
        <dc:format>image/svg+xml</dc:format>
        <dc:type
           rdf:resource="http://purl.org/dc/dcmitype/StillImage" />
        <dc:title></dc:title>
      </cc:Work>
    </rdf:RDF>
  </metadata>
  <g
     inkscape:label="Layer 1"
     inkscape:groupmode="layer"
     id="layer1">
    <g
       id="g872"
       transform="translate(53.672619,7.5595233)">
      <path
         d="M -16.267578,-172.61914 -473.15234,87.154297 -474.57031,301.76758 c 3.88222,0.12556 8.00021,1.94146 11.27929,5.49219 L -16.267578,53.095703 435.66016,318.00977 437.14453,93.167969 Z M -474.36523,496.36914 c -0.41687,2.30965 -0.88807,5.37372 -0.60938,6.5625 0.18767,-0.10921 0.37826,-0.20287 0.56836,-0.30078 z"
         style="opacity:1;fill:url(#linearGradient844);fill-opacity:1;stroke:#fcfcfc;stroke-width:1.59182632;stroke-miterlimit:4;stroke-dasharray:none;stroke-opacity:0"
         transform="scale(0.26458333)"
         id="path815"
         inkscape:connector-curvature="0" />
      <path
         inkscape:connector-curvature="0"
         id="path846"
         style="opacity:1;fill:url(#linearGradient848);fill-opacity:1;stroke:#fcfcfc;stroke-width:0.42117071;stroke-miterlimit:4;stroke-dasharray:none;stroke-opacity:0"
         d="m -176.90759,-6.8006189 -0.91863,139.0545489 48.98802,28.71645 c 0.54235,-0.87294 1.50322,-1.57629 2.75061,-1.85792 L -125.18822,23.059574 -4.7006297,-45.447366 -56.023585,-75.532185 Z M -84.220872,186.66756 c 0.474075,0.40106 1.113828,0.91438 1.423088,1.00779 -1.96e-4,-0.0574 0.0036,-0.11351 0.0063,-0.17002 z" />
      <path
         d="m -229.54559,162.11412 119.96546,70.32283 49.363182,-28.06664 c -0.484813,-0.90616 -0.613497,-2.08997 -0.233701,-3.31106 l -117.375571,-68.80532 0.91505,-138.598784 -51.7157,29.404573 z m 213.891716,16.46504 c 0.584366,-0.21003 1.348791,-0.50741 1.584316,-0.72854 -0.04981,-0.0285 -0.0965,-0.0599 -0.144091,-0.0905 z"
         style="opacity:1;fill:url(#linearGradient852);fill-opacity:1;stroke:#fcfcfc;stroke-width:0.42117071;stroke-miterlimit:4;stroke-dasharray:none;stroke-opacity:0"
         id="path850"
         inkscape:connector-curvature="0" />
      <path
         inkscape:connector-curvature="0"
         id="path854"
         style="opacity:1;fill:url(#linearGradient856);fill-opacity:1;stroke:#fcfcfc;stroke-width:0.42117071;stroke-miterlimit:4;stroke-dasharray:none;stroke-opacity:0"
         d="m -109.58014,292.15733 120.88409,-68.73172 0.375168,-56.78309 c -1.027164,-0.0332 -2.116715,-0.51368 -2.984312,-1.45313 l -118.274936,67.24756 -119.57255,-70.09185 -0.39274,59.4894 z M 11.624864,115.1542 c 0.110292,-0.6111 0.234966,-1.4218 0.161224,-1.73633 -0.04959,0.0289 -0.100125,0.0536 -0.150421,0.0795 z" />
      <path
         d="M 62.556451,254.08021 65.620397,115.05638 17.081265,85.587526 C 16.525528,86.45201 15.553907,87.14044 14.302324,87.4028 l -2.998374,136.02281 -121.53024,66.63982 50.852701,30.87308 z M -27.134271,59.205036 c -0.467837,-0.408332 -1.099591,-0.931463 -1.407375,-1.029626 -6.35e-4,0.05739 -0.0054,0.113442 -0.009,0.169901 z"
         style="opacity:1;fill:url(#linearGradient860);fill-opacity:1;stroke:#fcfcfc;stroke-width:0.42117071;stroke-miterlimit:4;stroke-dasharray:none;stroke-opacity:0"
         id="path858"
         inkscape:connector-curvature="0" />
      <path
         inkscape:connector-curvature="0"
         id="path862"
         style="opacity:1;fill:url(#linearGradient864);fill-opacity:1;stroke:#fcfcfc;stroke-width:0.42117071;stroke-miterlimit:4;stroke-dasharray:none;stroke-opacity:0"
         d="M 115.26842,84.140084 -3.5977801,11.974709 -53.388122,39.276404 c 0.470797,0.91352 0.581184,2.09919 0.182603,3.31427 L 63.094503,113.19874 60.04116,251.76693 112.20438,223.16374 Z M -98.343796,64.376934 c -0.58754,0.20099 -1.35647,0.48654 -1.59537,0.70401 0.0494,0.0293 0.0955,0.0614 0.14264,0.0928 z" />
    </g>
  </g>
</svg>
