<?xml version="1.0" encoding="UTF-8" standalone="no"?>
<!-- Created with Inkscape (http://www.inkscape.org/) -->

<svg
   xmlns:dc="http://purl.org/dc/elements/1.1/"
   xmlns:cc="http://creativecommons.org/ns#"
   xmlns:rdf="http://www.w3.org/1999/02/22-rdf-syntax-ns#"
   xmlns:svg="http://www.w3.org/2000/svg"
   xmlns="http://www.w3.org/2000/svg"
   xmlns:xlink="http://www.w3.org/1999/xlink"
   xmlns:sodipodi="http://sodipodi.sourceforge.net/DTD/sodipodi-0.dtd"
   xmlns:inkscape="http://www.inkscape.org/namespaces/inkscape"
   width="210mm"
   height="297mm"
   viewBox="0 0 210 297"
   version="1.1"
   id="svg8"
   inkscape:version="0.92.4 (5da689c313, 2019-01-14)"
   sodipodi:docname="LINES.svg">
  <defs
     id="defs2">
    <linearGradient
       inkscape:collect="always"
       id="linearGradient4535">
      <stop
         style="stop-color:#5500d4;stop-opacity:1"
         offset="0"
         id="stop4531" />
      <stop
         style="stop-color:#00ccff;stop-opacity:1"
         offset="1"
         id="stop4533" />
    </linearGradient>
    <inkscape:path-effect
       effect="curvestitching"
       id="path-effect821"
       is_visible="true"
       count="30"
       startpoint_edge_variation="0;1"
       startpoint_spacing_variation="0;1"
       endpoint_edge_variation="0;1"
       endpoint_spacing_variation="0;1"
       strokepath="M 0,0 H 1"
       prop_scale="1"
       scale_y_rel="false" />
    <linearGradient
       inkscape:collect="always"
       xlink:href="#linearGradient4535"
       id="linearGradient4537"
       x1="-86.892578"
       y1="99.429688"
       x2="101.07253"
       y2="96.445204"
       gradientUnits="userSpaceOnUse"
       gradientTransform="translate(-31.75,39.6875)" />
  </defs>
  <sodipodi:namedview
     id="base"
     pagecolor="#ffffff"
     bordercolor="#666666"
     borderopacity="1.0"
     inkscape:pageopacity="0.0"
     inkscape:pageshadow="2"
     inkscape:zoom="1"
     inkscape:cx="-183.92857"
     inkscape:cy="602.85714"
     inkscape:document-units="mm"
     inkscape:current-layer="layer1"
     showgrid="false"
     inkscape:showpageshadow="false"
     showborder="false"
     inkscape:window-width="1600"
     inkscape:window-height="1137"
     inkscape:window-x="-8"
     inkscape:window-y="-8"
     inkscape:window-maximized="1" />
  <metadata
     id="metadata5">
    <rdf:RDF>
      <cc:Work
         rdf:about="">
        <dc:format>image/svg+xml</dc:format>
        <dc:type
           rdf:resource="http://purl.org/dc/dcmitype/StillImage" />
        <dc:title />
      </cc:Work>
    </rdf:RDF>
  </metadata>
  <g
     inkscape:label="Layer 1"
     inkscape:groupmode="layer"
     id="layer1">
    <path
       style="color:#000000;font-style:normal;font-variant:normal;font-weight:normal;font-stretch:normal;font-size:medium;line-height:normal;font-family:sans-serif;font-variant-ligatures:normal;font-variant-position:normal;font-variant-caps:normal;font-variant-numeric:normal;font-variant-alternates:normal;font-feature-settings:normal;text-indent:0;text-align:start;text-decoration:none;text-decoration-line:none;text-decoration-style:solid;text-decoration-color:#000000;letter-spacing:normal;word-spacing:normal;text-transform:none;writing-mode:lr-tb;direction:ltr;text-orientation:mixed;dominant-baseline:auto;baseline-shift:baseline;text-anchor:start;white-space:normal;shape-padding:0;clip-rule:nonzero;display:inline;overflow:visible;visibility:visible;opacity:1;isolation:auto;mix-blend-mode:normal;color-interpolation:sRGB;color-interpolation-filters:linearRGB;solid-color:#000000;solid-opacity:1;vector-effect:none;fill:url(#linearGradient4537);fill-opacity:1;fill-rule:nonzero;stroke:none;stroke-width:0.26458332px;stroke-linecap:butt;stroke-linejoin:miter;stroke-miterlimit:4;stroke-dasharray:none;stroke-dashoffset:0;stroke-opacity:1;color-rendering:auto;image-rendering:auto;shape-rendering:auto;text-rendering:auto;enable-background:accumulate"
       d="m -71.597656,82.339844 -0.208985,0.166015 41.134766,51.863281 -0.839844,0.29883 -1.521484,0.41601 -2.470703,0.50977 -3.66211,0.55664 -6.578125,0.69531 -12.763671,0.84961 -42.148438,1.36328 -17.98633,0.0586 v 0.26563 l 8.875,-0.0293 -2.75586,0.0898 0.008,0.26562 11.87109,-0.38476 18.535162,-0.0586 -24.417972,1.62304 0.0176,0.26367 28.585941,-1.90038 9.763672,-0.0312 -32.457033,3.43554 0.0273,0.26367 35.021486,-3.70898 6.380859,-0.0195 -35.332035,5.36524 -24.68164,0.0312 v 0.26564 l 24.47266,-0.0312 0.006,0.0332 0.21679,-0.0332 14.453131,-0.0176 -8.892581,1.83789 0.0547,0.25976 10.156253,-2.09961 10.175781,-0.0137 -14.601562,3.99024 0.07031,0.2539 15.53711,-4.24414 7.591796,-0.01 -15.314453,5.44336 -41.664065,0.11914 0.002,0.26562 40.908206,-0.11718 -1.369141,0.48632 0.08789,0.24806 2.074219,-0.73633 9.582031,-0.0293 -6.001953,2.75977 0.111328,0.24023 6.527344,-3 7.580078,-0.0234 -8.494141,5.06836 0.01172,0.0195 -48.011721,0.20507 0.002,0.26562 56.353518,-0.24218 -2.644531,2.07421 0.164062,0.20899 2.91211,-2.28516 6.839843,-0.0293 -4.21875,4.46094 0.19336,0.18164 4.392578,-4.64258 5.710938,-0.0254 -3.216797,4.79492 -63.021491,0.34766 0.002,0.26563 62.841803,-0.34766 -1.21289,1.80859 0.21875,0.14844 1.314453,-1.95898 6.007812,-0.0332 -1.859375,4.25196 0.242188,0.10742 1.90625,-4.35938 5.115234,-0.0293 -1.080078,4.57031 -69.724617,0.46289 0.002,0.26562 69.658211,-0.46289 -0.44336,1.87696 0.257813,0.0605 0.458984,-1.93945 5.228516,-0.0352 -0.271485,4.36133 -70.857429,0.54492 0.002,0.26563 76.32032,-0.58789 0.203125,2.24414 0.263672,-0.0234 -0.201172,-2.22265 4.527344,-0.0352 1.074219,4.76172 0.259765,-0.0586 -1.0625,-4.70507 3.941407,-0.0293 2.521484,7.2832 0.25,-0.0859 -2.492187,-7.19921 3.439453,-0.0273 4.455078,9.81446 0.242187,-0.10938 -4.408203,-9.70703 2.990235,-0.0234 6.816406,12.36914 0.232422,-0.12695 -6.748047,-12.24414 2.611328,-0.0195 9.541016,14.92773 0.222656,-0.14258 -9.451172,-14.78906 2.285156,-0.0176 12.578125,17.48438 0.214844,-0.1543 -12.46875,-17.33203 2,-0.0156 15.890625,20.03516 0.207031,-0.16406 -15.761718,-19.87305 71.486332,-0.55078 -0.002,-0.26367 -71.693357,0.55078 -3.414062,-4.30664 71.220703,-0.47266 -0.002,-0.26562 -71.427735,0.47461 -3.576172,-4.50781 71.361328,-0.39454 -0.002,-0.26367 -71.568359,0.39453 -3.742188,-4.71875 71.94336,-0.30859 -0.002,-0.26367 -72.150391,0.30859 -3.949219,-4.97851 73.134766,-0.21094 v -0.26563 l -73.345703,0.21088 -4.222657,-5.32617 75.226563,-0.0937 v -0.26563 l -75.43758,0.0959 -4.267578,-5.38086 78.601562,-0.25391 v -0.26367 l -78.810547,0.25391 -0.652343,-0.82422 -0.544922,-0.75586 -0.167969,-0.26367 76.203125,-2.4668 -0.0098,-0.26367 -76.359376,2.4707 -0.09375,-0.14648 -0.326172,-0.58985 71.859376,-4.77929 -0.01758,-0.26368 -71.960938,4.78516 -0.173828,-0.38086 67,-7.09375 -0.02734,-0.26172 -67.062504,7.09961 -0.06445,-0.18359 61.884766,-9.39844 -0.03906,-0.26172 -61.90625,9.40234 -0.01563,-0.0683 56.644566,-11.71101 -0.05469,-0.25977 -56.226563,11.625 50.917969,-13.91211 -0.06836,-0.25586 -50.048829,13.67578 44.722657,-15.89648 -0.08789,-0.24805 -44.322266,15.75391 38.994141,-17.92773 -0.111328,-0.24024 -38.84375,17.85742 33.519531,-19.99804 -0.136718,-0.22657 -33.501954,19.98828 28.187501,-22.10546 -0.164063,-0.20899 -28.248047,22.15235 22.947266,-24.25782 -0.193359,-0.18164 -23.023438,24.33985 17.738281,-26.44532 -0.21875,-0.14843 -17.802734,26.53906 12.53125,-28.65625 -0.242188,-0.10742 -12.568359,28.74218 7.306641,-30.88085 -0.257813,-0.0606 -7.320313,30.9414 2.060547,-33.103516 -0.263672,-0.01563 -2.064453,33.144526 -3.199219,-35.32812 -0.263671,0.02539 3.201171,35.35156 -8.476562,-37.552732 -0.259765,0.05859 8.480468,37.570312 -13.769531,-39.785156 -0.25,0.08789 13.779297,39.810546 -19.083984,-42.033203 -0.240235,0.109376 19.132812,42.140627 -24.453124,-44.369143 -0.230469,0.128906 24.490234,44.437497 -29.826171,-46.666013 -0.222657,0.142579 29.855469,46.714844 -35.205078,-48.937501 -0.214844,0.15625 35.261719,49.013671 z m 41.195312,52.746096 -0.09766,0.14648 -0.06445,0.008 0.142578,-0.15039 z m 0.308594,0.0137 0.002,0.004 -0.03906,0.0898 -0.02734,0.004 z m -0.75586,0.0547 -0.11914,0.1289 -0.08594,0.008 0.166015,-0.13086 z m -0.572265,0.0879 -0.13086,0.10156 -0.08789,0.01 0.175782,-0.10547 z m -0.742188,0.11133 h 0.0078 l -0.111328,0.0664 -0.05078,0.006 z m 2.251953,0.082 -0.08594,0.36328 -0.111328,0.008 0.160156,-0.36719 z m -0.339843,0.0371 -0.15625,0.35351 -0.179688,0.0117 0.238281,-0.35547 z m -0.439454,0.0469 -0.230468,0.3418 -0.246094,0.0156 0.324219,-0.34179 z m -0.55664,0.0586 -0.308594,0.32422 -0.304687,0.0215 0.414062,-0.32617 z m 1.564453,0.0391 0.01172,0.0137 -0.0098,0.14844 -0.04102,0.002 z m -2.259766,0.0332 -0.388672,0.30469 -0.355468,0.0234 0.505859,-0.30274 z m -0.867187,0.0918 -0.458985,0.27539 -0.392578,0.0254 0.59375,-0.27344 z m -1.082031,0.11524 -0.509766,0.23437 -0.408203,0.0273 0.660156,-0.23438 z m -1.376953,0.14648 -0.507813,0.17969 -0.373047,0.0254 0.669922,-0.1836 z m 5.847656,0.0215 0.06641,0.72656 -0.121094,0.004 0.04492,-0.72851 z m -0.275391,0.0195 -0.04492,0.71875 -0.214844,0.008 0.171875,-0.7207 z m -0.365234,0.0234 -0.167969,0.71289 -0.308594,0.01 0.310547,-0.71094 z m -0.464844,0.0312 -0.306641,0.70117 -0.408203,0.0117 0.46875,-0.69726 z m -0.580078,0.0391 -0.458985,0.68555 -0.511718,0.0156 0.644531,-0.67969 z m -0.716797,0.0469 -0.630859,0.66601 -0.615235,0.0215 0.839844,-0.66015 z m -5.294922,0.0137 -0.355468,0.0977 -0.171875,0.0117 z m 4.419922,0.0449 -0.820313,0.64259 -0.730468,0.0234 1.0625,-0.63282 z m -1.070313,0.0703 -1.027343,0.61328 -0.849609,0.0273 1.310546,-0.60156 z m -1.30664,0.0879 -1.251953,0.57617 -0.988281,0.0312 1.58789,-0.56445 z m -1.61914,0.10742 -1.484375,0.52734 -1.138672,0.0371 1.886718,-0.51562 z m 7.583984,0.0156 0.04883,0.2168 -0.0293,0.002 z m -9.644531,0.12109 -1.699219,0.46485 -1.275391,0.041 2.195313,-0.45313 z m -2.712891,0.18165 -1.816406,0.375 -1.333985,0.043 2.453125,-0.37305 z m 12.466797,0.17773 0.410156,1.82227 h -0.310547 l -0.164063,-1.82031 z m -0.330079,0.01 0.164063,1.81445 h -0.4375 l 0.111328,-1.80859 z m -0.425781,0.0137 -0.113281,1.80273 -0.574219,0.002 0.425781,-1.79492 z m -0.535156,0.0176 -0.423828,1.78711 -0.716797,0.002 0.775391,-1.77735 z m -0.658203,0.0215 -0.773438,1.76953 -0.876953,0.002 1.177735,-1.75586 z m -14.349609,0.0137 -1.556641,0.23633 -1.197266,0.0391 2.333985,-0.24805 z m 13.552734,0.0117 -1.171875,1.74805 -1.054688,0.004 1.638672,-1.73243 z m -0.964844,0.0312 -1.626953,1.7207 -1.251953,0.004 2.167969,-1.70117 z m -1.160156,0.0391 -2.152344,1.6875 -1.486328,0.004 2.791016,-1.66406 z m -1.392578,0.0449 -2.765625,1.64844 -1.765625,0.006 3.529297,-1.62305 z m 6.582031,0 0.560547,1.61719 h -0.195313 z m -8.265625,0.0547 -3.486328,1.60156 -2.121094,0.008 4.419922,-1.57226 z M -39,137.33038 l -4.349609,1.54492 -2.589844,0.008 5.519531,-1.50781 z m -2.556641,0.082 -5.396484,1.47461 -3.214844,0.01 6.917969,-1.42972 z m -3.248047,0.10547 -6.695312,1.38281 -4.103516,0.0137 8.767578,-1.33203 z m -4.271484,0.13867 -8.328125,1.26367 -5.582031,0.0176 11.324219,-1.19922 z m -6.203125,0.19922 -10.298828,1.0918 -8.154297,0.0254 15.212891,-1.01172 z m 27.15625,0.16406 0.365234,0.80469 h -0.08594 z m -38.15625,0.19336 -11.638672,0.77344 -13.623051,0.043 z m 38.933594,0.875 h 0.002 l 2.966796,5.38086 h -0.52734 z m -0.685547,0.002 1.861328,5.38086 -0.873047,0.002 -1.214844,-5.38087 z m 0.279297,0 h 0.115234 l 2.441406,5.37891 -0.695312,0.002 z m -0.779297,0.002 1.214843,5.38086 -1.074218,0.002 -0.488282,-5.38086 z m -0.613282,0.002 0.488282,5.38086 -1.300782,0.002 0.333985,-5.38086 z m -0.742187,0.002 -0.335938,5.38086 -1.55664,0.002 1.271484,-5.38087 z m -0.892578,0.004 -1.273438,5.37891 -1.849609,0.002 2.351562,-5.37891 z m -1.060547,0.004 -2.351563,5.37695 -2.195312,0.004 3.607422,-5.37891 z m -1.259766,0.004 -3.605468,5.37696 -2.607422,0.004 5.08789,-5.37695 z m -1.492187,0.004 -5.085937,5.37695 -3.109375,0.004 6.855468,-5.37695 z m -1.771484,0.006 -6.855469,5.375 -3.748047,0.004 9.009766,-5.37304 z m -2.113282,0.008 -9.007812,5.37305 -4.580078,0.006 11.6875,-5.37305 z m -2.539062,0.008 -11.685547,5.3711 -5.720703,0.008 15.113281,-5.3711 z m -3.085937,0.01 -15.109376,5.36914 -7.365234,0.01 19.65625,-5.37109 z m -3.832032,0.0117 -19.648437,5.36914 -9.859375,0.0117 25.970703,-5.36914 z m -4.86914,0.0156 -25.957032,5.36719 -13.982424,0.0176 35.355471,-5.36915 z m 26.339843,0.9668 2.767578,4.33008 -0.380859,0.002 z m 1.0625,1.17187 2.271484,3.15821 h -0.251953 z m 1.251953,1.28711 1.484375,1.8711 h -0.138672 z m 0.623047,2.13672 3.40625,5.33008 -0.871093,0.004 -2.939454,-5.33203 z m 0.3125,0 h 0.275391 l 3.833984,5.32813 -0.703125,0.002 z m 0.601563,0 h 0.158203 l 4.222656,5.32617 h -0.548828 z m -2.462891,0.002 2.421875,5.33593 -1.298828,0.004 -1.847656,-5.33789 z m 0.291016,0 h 0.550781 l 2.939453,5.33203 -1.068359,0.004 z m -1.294922,0.002 1.847656,5.33789 -1.546875,0.006 -1.207031,-5.3418 z m -2.289063,0.002 h 1.111328 l 1.205078,5.3418 -1.832031,0.006 z m -0.265625,0.002 0.484375,5.34571 -2.158203,0.006 0.332031,-5.34961 z m -1.605469,0.002 -0.333984,5.35156 -2.537109,0.006 1.267578,-5.35547 z m -1.876953,0.002 -1.267578,5.35742 -2.980468,0.008 2.343749,-5.36329 z m -2.193359,0.002 -2.345703,5.36524 -3.513672,0.01 3.601563,-5.37109 z m -2.576172,0.004 -3.603515,5.37109 -4.164063,0.0117 5.087891,-5.3789 z m -3.044922,0.004 -5.089843,5.38086 -4.980469,0.0137 6.875,-5.39063 z m -3.626953,0.004 -6.876953,5.39258 -6.037109,0.0176 9.058594,-5.4043 z m -4.373047,0.006 -9.060546,5.40625 -7.445313,0.0215 11.791016,-5.42188 z m -5.349609,0.008 -11.794922,5.42188 -9.408203,0.0254 15.310547,-5.44141 z m 35.259766,5.55079 3.949219,4.98046 -0.933594,0.004 -3.583985,-4.98242 z m -0.894531,0.004 3.583984,4.98047 -1.121094,0.006 -3.185547,-4.98438 z m -1.035157,0.002 3.185547,4.98438 -1.332031,0.006 -2.75,-4.98828 z m -1.197265,0.004 2.75,4.98828 -1.578125,0.006 -2.265626,-4.99219 z m -1.384766,0.004 2.267578,4.99218 -1.865235,0.008 -1.730468,-4.9961 z m -1.607422,0.004 1.730469,4.99805 -2.181641,0.01 -1.128906,-5.00378 z m -1.851563,0.006 1.128907,5.00196 -2.542969,0.0117 -0.455078,-5.00782 z m -2.134765,0.006 0.455078,5.00782 -2.966797,0.0137 0.3125,-5.01563 z m -2.462891,0.008 -0.3125,5.01367 -3.460937,0.0156 1.1875,-5.02148 z m -2.857422,0.008 -1.189453,5.02343 -4.044922,0.0156 2.199219,-5.03125 z m -3.324218,0.01 -2.201172,5.03125 -4.757813,0.0195 3.38086,-5.04101 z m -3.896485,0.0117 -3.382812,5.04102 -5.636719,0.0234 4.78125,-5.05273 z m -4.605468,0.0117 -4.78125,5.05469 -6.751954,0.0293 6.464844,-5.06836 z m -5.501954,0.0176 -6.46289,5.06836 -8.208984,0.0352 8.527343,-5.08593 z m 36.91211,5.14844 3.742187,4.71875 -1.296875,0.008 -3.398437,-4.72266 z m -1.277344,0.004 3.396484,4.72266 -1.519531,0.01 -3.019531,-4.72785 z m -1.457031,0.008 3.021484,4.72657 -1.769531,0.01 -2.607422,-4.73242 z m -1.65625,0.006 2.607422,4.73047 -2.058594,0.0117 -2.150391,-4.73437 z m -1.892578,0.008 2.15039,4.73632 -2.402343,0.0137 -1.640626,-4.74219 z m -2.171876,0.01 1.640626,4.74219 -2.781251,0.0156 -1.072265,-4.74805 z m -2.486328,0.0117 1.072266,4.7461 -3.220703,0.0176 -0.429688,-4.7539 z m -2.84375,0.0117 0.429688,4.75391 -3.732422,0.0215 0.296875,-4.76367 z m -3.271484,0.0137 -0.296875,4.76172 -4.33789,0.0254 1.128906,-4.77148 z m -3.779297,0.0156 -1.128906,4.77148 -5.060547,0.0293 2.089844,-4.7832 z m -4.388672,0.0195 -2.091796,4.7832 -5.945313,0.0312 3.216797,-4.79621 z m 29.175782,4.875 3.576172,4.50781 -1.646485,0.0117 -3.246093,-4.51367 z m -1.642578,0.008 3.248046,4.51367 -1.90039,0.0137 -2.886719,-4.51757 z m -1.851563,0.0117 2.886719,4.51758 -2.1875,0.0137 -2.492188,-4.52149 z m -2.095703,0.0117 2.492188,4.52148 -2.519532,0.0176 -2.05664,-4.5293 z m -2.375,0.0117 2.056641,4.52929 -2.917969,0.0195 -1.56836,-4.53515 z m -2.708984,0.0156 1.568359,4.5332 -3.357422,0.0234 -1.025391,-4.54101 z m -3.085938,0.0176 1.02539,4.54102 -3.86914,0.0254 -0.41211,-4.54883 z m -3.521485,0.0195 0.41211,4.54883 -4.470703,0.0293 0.285156,-4.5586 z m -4.039062,0.0215 -0.283203,4.55859 -5.183594,0.0352 1.082032,-4.57032 z m 25.107422,4.65625 3.414063,4.30664 -1.980469,0.0137 -3.101563,-4.31055 z m -1.992187,0.0117 3.101562,4.3125 -2.263672,0.0176 -2.759765,-4.3164 z m -2.234375,0.0156 2.759765,4.31641 -2.58789,0.0195 -2.382813,-4.32032 z m -2.511719,0.0176 2.382812,4.32031 -2.964843,0.0234 -1.964844,-4.32813 z m -2.837891,0.0176 1.964844,4.32812 -3.410156,0.0254 -1.5,-4.33398 z m -3.224609,0.0215 1.5,4.33398 -3.908203,0.0312 -0.980469,-4.34179 z m -3.66211,0.0254 0.980469,4.3418 -4.490234,0.0352 -0.394532,-4.35156 z m -4.169922,0.0273 0.394532,4.35157 -5.175782,0.0391 0.271485,-4.36133 z"
       id="path817"
       inkscape:connector-curvature="0" />
  </g>
</svg>
