<?xml version="1.0" encoding="UTF-8" standalone="no"?>
<svg
   xmlns:dc="http://purl.org/dc/elements/1.1/"
   xmlns:cc="http://creativecommons.org/ns#"
   xmlns:rdf="http://www.w3.org/1999/02/22-rdf-syntax-ns#"
   xmlns:svg="http://www.w3.org/2000/svg"
   xmlns="http://www.w3.org/2000/svg"
   xmlns:xlink="http://www.w3.org/1999/xlink"
   xmlns:sodipodi="http://sodipodi.sourceforge.net/DTD/sodipodi-0.dtd"
   xmlns:inkscape="http://www.inkscape.org/namespaces/inkscape"
   sodipodi:docname="swirly.svg"
   inkscape:version="1.0 (4035a4fb49, 2020-05-01)"
   id="svg8"
   version="1.1"
   viewBox="0 0 210 297"
   height="297mm"
   width="210mm">
  <defs
     id="defs2">
    <linearGradient
       id="linearGradient848"
       inkscape:collect="always">
      <stop
         id="stop844"
         offset="0"
         style="stop-color:#ff00ff;stop-opacity:1" />
      <stop
         id="stop846"
         offset="1"
         style="stop-color:#00ffff;stop-opacity:1" />
    </linearGradient>
    <linearGradient
       gradientUnits="userSpaceOnUse"
       y2="110.62063"
       x2="109.50528"
       y1="-50.73914"
       x1="24.851908"
       id="linearGradient850"
       xlink:href="#linearGradient848"
       inkscape:collect="always" />
    <linearGradient
       y2="110.62063"
       x2="109.50528"
       y1="-50.73914"
       x1="24.851908"
       gradientUnits="userSpaceOnUse"
       id="linearGradient860"
       xlink:href="#linearGradient848"
       inkscape:collect="always" />
    <linearGradient
       y2="110.62063"
       x2="109.50528"
       y1="-50.73914"
       x1="24.851908"
       gradientUnits="userSpaceOnUse"
       id="linearGradient862"
       xlink:href="#linearGradient848"
       inkscape:collect="always" />
    <linearGradient
       y2="110.62063"
       x2="109.50528"
       y1="-50.73914"
       x1="24.851908"
       gradientUnits="userSpaceOnUse"
       id="linearGradient868"
       xlink:href="#linearGradient848"
       inkscape:collect="always" />
    <linearGradient
       y2="110.62063"
       x2="109.50528"
       y1="-50.73914"
       x1="24.851908"
       gradientUnits="userSpaceOnUse"
       id="linearGradient870"
       xlink:href="#linearGradient848"
       inkscape:collect="always" />
    <linearGradient
       y2="110.62063"
       x2="109.50528"
       y1="-50.73914"
       x1="24.851908"
       gradientUnits="userSpaceOnUse"
       id="linearGradient882"
       xlink:href="#linearGradient848"
       inkscape:collect="always" />
    <linearGradient
       y2="110.62063"
       x2="109.50528"
       y1="-50.73914"
       x1="24.851908"
       gradientUnits="userSpaceOnUse"
       id="linearGradient884"
       xlink:href="#linearGradient848"
       inkscape:collect="always" />
    <linearGradient
       y2="110.62063"
       x2="109.50528"
       y1="-50.73914"
       x1="24.851908"
       gradientUnits="userSpaceOnUse"
       id="linearGradient886"
       xlink:href="#linearGradient848"
       inkscape:collect="always" />
    <linearGradient
       y2="110.62063"
       x2="109.50528"
       y1="-50.73914"
       x1="24.851908"
       gradientUnits="userSpaceOnUse"
       id="linearGradient894"
       xlink:href="#linearGradient848"
       inkscape:collect="always" />
    <linearGradient
       y2="110.62063"
       x2="109.50528"
       y1="-50.73914"
       x1="24.851908"
       gradientUnits="userSpaceOnUse"
       id="linearGradient896"
       xlink:href="#linearGradient848"
       inkscape:collect="always" />
    <linearGradient
       y2="110.62063"
       x2="109.50528"
       y1="-50.73914"
       x1="24.851908"
       gradientUnits="userSpaceOnUse"
       id="linearGradient898"
       xlink:href="#linearGradient848"
       inkscape:collect="always" />
    <linearGradient
       y2="110.62063"
       x2="109.50528"
       y1="-50.73914"
       x1="24.851908"
       gradientUnits="userSpaceOnUse"
       id="linearGradient906"
       xlink:href="#linearGradient848"
       inkscape:collect="always" />
    <linearGradient
       y2="110.62063"
       x2="109.50528"
       y1="-50.73914"
       x1="24.851908"
       gradientUnits="userSpaceOnUse"
       id="linearGradient908"
       xlink:href="#linearGradient848"
       inkscape:collect="always" />
    <linearGradient
       y2="110.62063"
       x2="109.50528"
       y1="-50.73914"
       x1="24.851908"
       gradientUnits="userSpaceOnUse"
       id="linearGradient910"
       xlink:href="#linearGradient848"
       inkscape:collect="always" />
    <linearGradient
       y2="110.62063"
       x2="109.50528"
       y1="-50.73914"
       x1="24.851908"
       gradientUnits="userSpaceOnUse"
       id="linearGradient916"
       xlink:href="#linearGradient848"
       inkscape:collect="always" />
    <linearGradient
       y2="110.62063"
       x2="109.50528"
       y1="-50.73914"
       x1="24.851908"
       gradientUnits="userSpaceOnUse"
       id="linearGradient918"
       xlink:href="#linearGradient848"
       inkscape:collect="always" />
    <linearGradient
       y2="110.62063"
       x2="109.50528"
       y1="-50.73914"
       x1="24.851908"
       gradientUnits="userSpaceOnUse"
       id="linearGradient963"
       xlink:href="#linearGradient848"
       inkscape:collect="always" />
    <linearGradient
       y2="110.62063"
       x2="109.50528"
       y1="-50.73914"
       x1="24.851908"
       gradientUnits="userSpaceOnUse"
       id="linearGradient965"
       xlink:href="#linearGradient848"
       inkscape:collect="always" />
    <linearGradient
       y2="110.62063"
       x2="109.50528"
       y1="-50.73914"
       x1="24.851908"
       gradientUnits="userSpaceOnUse"
       id="linearGradient967"
       xlink:href="#linearGradient848"
       inkscape:collect="always" />
    <linearGradient
       y2="110.62063"
       x2="109.50528"
       y1="-50.73914"
       x1="24.851908"
       gradientUnits="userSpaceOnUse"
       id="linearGradient969"
       xlink:href="#linearGradient848"
       inkscape:collect="always" />
    <linearGradient
       y2="110.62063"
       x2="109.50528"
       y1="-50.73914"
       x1="24.851908"
       gradientUnits="userSpaceOnUse"
       id="linearGradient971"
       xlink:href="#linearGradient848"
       inkscape:collect="always" />
    <linearGradient
       y2="110.62063"
       x2="109.50528"
       y1="-50.73914"
       x1="24.851908"
       gradientUnits="userSpaceOnUse"
       id="linearGradient973"
       xlink:href="#linearGradient848"
       inkscape:collect="always" />
    <linearGradient
       y2="110.62063"
       x2="109.50528"
       y1="-50.73914"
       x1="24.851908"
       gradientUnits="userSpaceOnUse"
       id="linearGradient975"
       xlink:href="#linearGradient848"
       inkscape:collect="always" />
    <linearGradient
       y2="110.62063"
       x2="109.50528"
       y1="-50.73914"
       x1="24.851908"
       gradientUnits="userSpaceOnUse"
       id="linearGradient977"
       xlink:href="#linearGradient848"
       inkscape:collect="always" />
    <linearGradient
       y2="110.62063"
       x2="109.50528"
       y1="-50.73914"
       x1="24.851908"
       gradientUnits="userSpaceOnUse"
       id="linearGradient979"
       xlink:href="#linearGradient848"
       inkscape:collect="always" />
    <linearGradient
       y2="110.62063"
       x2="109.50528"
       y1="-50.73914"
       x1="24.851908"
       gradientUnits="userSpaceOnUse"
       id="linearGradient981"
       xlink:href="#linearGradient848"
       inkscape:collect="always" />
    <linearGradient
       y2="110.62063"
       x2="109.50528"
       y1="-50.73914"
       x1="24.851908"
       gradientUnits="userSpaceOnUse"
       id="linearGradient983"
       xlink:href="#linearGradient848"
       inkscape:collect="always" />
    <linearGradient
       y2="110.62063"
       x2="109.50528"
       y1="-50.73914"
       x1="24.851908"
       gradientUnits="userSpaceOnUse"
       id="linearGradient985"
       xlink:href="#linearGradient848"
       inkscape:collect="always" />
    <linearGradient
       y2="110.62063"
       x2="109.50528"
       y1="-50.73914"
       x1="24.851908"
       gradientUnits="userSpaceOnUse"
       id="linearGradient987"
       xlink:href="#linearGradient848"
       inkscape:collect="always" />
    <linearGradient
       y2="110.62063"
       x2="109.50528"
       y1="-50.73914"
       x1="24.851908"
       gradientUnits="userSpaceOnUse"
       id="linearGradient989"
       xlink:href="#linearGradient848"
       inkscape:collect="always" />
  </defs>
  <sodipodi:namedview
     inkscape:window-maximized="1"
     inkscape:window-y="-8"
     inkscape:window-x="-8"
     inkscape:window-height="1137"
     inkscape:window-width="1600"
     showborder="true"
     inkscape:showpageshadow="false"
     showgrid="false"
     inkscape:document-rotation="0"
     inkscape:current-layer="g866"
     inkscape:document-units="mm"
     inkscape:cy="560"
     inkscape:cx="400"
     inkscape:zoom="0.35"
     inkscape:pageshadow="2"
     inkscape:pageopacity="0.0"
     borderopacity="1.0"
     bordercolor="#666666"
     pagecolor="#ffffff"
     id="base" />
  <metadata
     id="metadata5">
    <rdf:RDF>
      <cc:Work
         rdf:about="">
        <dc:format>image/svg+xml</dc:format>
        <dc:type
           rdf:resource="http://purl.org/dc/dcmitype/StillImage" />
        <dc:title></dc:title>
      </cc:Work>
    </rdf:RDF>
  </metadata>
  <g
     id="layer1"
     inkscape:groupmode="layer"
     inkscape:label="Layer 1">
    <g
       transform="rotate(20.975086,-4.4605886,133.82915)"
       style="stroke:url(#linearGradient850)"
       id="g842">
      <g
         style="stroke:url(#linearGradient870);stroke-width:2.40938278;stroke-miterlimit:4;stroke-dasharray:none"
         transform="matrix(0.36850365,0.00458306,0.00458306,0.37870147,68.645206,68.226566)"
         id="g866">
        <g
           inkscape:export-ydpi="96"
           inkscape:export-xdpi="96"
           id="g1019">
          <g
             id="g933">
            <g
               transform="translate(17.07007,44.526917)"
               style="stroke:url(#linearGradient918)"
               inkscape:transform-center-y="-93.738096"
               inkscape:transform-center-x="1.5119048"
               id="g874">
              <g
                 style="stroke:url(#linearGradient916)"
                 id="g914">
                <path
                   d="m 40.82143,59.720234 c -0.701579,2.618321 -3.875578,0.346073 -4.351821,-1.16607 C 35.17902,54.45635 39.494306,51.18639 43.15357,51.016591 49.699136,50.712862 54.197472,57.14048 53.876894,63.218444 53.406434,72.138101 44.624903,78.011088 36.15715,77.127519 24.870967,75.949861 17.587005,64.738884 19.062324,53.889883 20.918861,40.237524 34.591255,31.527804 47.817851,33.609306 63.837031,36.130284 73.98014,52.280505 71.284179,67.882725 68.107082,86.269401 49.469497,97.850408 31.492869,94.534804 10.738141,90.706809 -2.2836655,69.575827 1.6550386,49.225603 6.1304446,26.102385 29.758886,11.637794 52.482131,16.202021 77.974178,21.322394 93.882976,47.451161 88.691464,72.547005 82.927902,100.40815 54.296712,117.76221 26.828589,111.94209 -3.4018644,105.53667 -22.201986,74.401475 -15.752247,44.561322 -8.7059993,11.961388 24.934427,-8.285424 57.146412,-1.2052641 92.115966,6.4810069 113.80997,42.627629 106.09875,77.211286 97.773099,114.55058 59.119506,137.69217 22.164308,129.34937 c -39.70912,-8.9645 -64.298639,-50.125698 -55.32384,-89.452328 9.60293,-42.0790321 53.272253,-68.11675 94.970224,-58.509591 44.449008,10.2409944 71.935158,56.41888 61.695338,100.488115 -5.69144,24.494344 -22.26207,45.612524 -44.534641,57.223894"
                   transform="matrix(1.0312543,0,0,1.0312562,28.065698,-32.82655)"
                   style="fill:none;fill-rule:evenodd;stroke:url(#linearGradient868);stroke-width:2.33636;stroke-miterlimit:4;stroke-dasharray:none"
                   id="path833" />
                <path
                   d="m 40.82143,59.720234 c -0.701579,2.618321 -3.875578,0.346073 -4.351821,-1.16607 C 35.17902,54.45635 39.494306,51.18639 43.15357,51.016591 49.699136,50.712862 54.197472,57.14048 53.876894,63.218444 53.406434,72.138101 44.624903,78.011088 36.15715,77.127519 24.870967,75.949861 17.587005,64.738884 19.062324,53.889883 20.918861,40.237524 34.591255,31.527804 47.817851,33.609306 63.837031,36.130284 73.98014,52.280505 71.284179,67.882725 68.107082,86.269401 49.469497,97.850408 31.492869,94.534804 10.738141,90.706809 -2.2836655,69.575827 1.6550386,49.225603 6.1304446,26.102385 29.758886,11.637794 52.482131,16.202021 77.974178,21.322394 93.882976,47.451161 88.691464,72.547005 82.927902,100.40815 54.296712,117.76221 26.828589,111.94209 -3.4018644,105.53667 -22.201986,74.401475 -15.752247,44.561322 -8.7059993,11.961388 24.934427,-8.285424 57.146412,-1.2052641 92.115966,6.4810069 113.80997,42.627629 106.09875,77.211286 97.773099,114.55058 59.119506,137.69217 22.164308,129.34937 c -39.70912,-8.9645 -64.298639,-50.125698 -55.32384,-89.452328 9.60293,-42.0790321 53.272253,-68.11675 94.970224,-58.509591 44.449008,10.2409944 71.935158,56.41888 61.695338,100.488115 -5.69144,24.494344 -22.26207,45.612524 -44.534641,57.223894"
                   transform="matrix(-1.0312543,0,0,-1.0312562,190.94487,254.06781)"
                   style="fill:none;fill-rule:evenodd;stroke:url(#linearGradient862);stroke-width:2.33636;stroke-miterlimit:4;stroke-dasharray:none"
                   id="path835" />
              </g>
            </g>
            <g
               transform="matrix(-0.02454268,0.97336863,-1.0279788,0.02454268,528.56967,159.14317)"
               style="stroke:url(#linearGradient886)"
               id="g880"
               inkscape:transform-center-x="-93.738098"
               inkscape:transform-center-y="-1.5119045">
              <path
                 d="m 40.82143,59.720234 c -0.701579,2.618321 -3.875578,0.346073 -4.351821,-1.16607 C 35.17902,54.45635 39.494306,51.18639 43.15357,51.016591 49.699136,50.712862 54.197472,57.14048 53.876894,63.218444 53.406434,72.138101 44.624903,78.011088 36.15715,77.127519 24.870967,75.949861 17.587005,64.738884 19.062324,53.889883 20.918861,40.237524 34.591255,31.527804 47.817851,33.609306 63.837031,36.130284 73.98014,52.280505 71.284179,67.882725 68.107082,86.269401 49.469497,97.850408 31.492869,94.534804 10.738141,90.706809 -2.2836655,69.575827 1.6550386,49.225603 6.1304446,26.102385 29.758886,11.637794 52.482131,16.202021 77.974178,21.322394 93.882976,47.451161 88.691464,72.547005 82.927902,100.40815 54.296712,117.76221 26.828589,111.94209 -3.4018644,105.53667 -22.201986,74.401475 -15.752247,44.561322 -8.7059993,11.961388 24.934427,-8.285424 57.146412,-1.2052641 92.115966,6.4810069 113.80997,42.627629 106.09875,77.211286 97.773099,114.55058 59.119506,137.69217 22.164308,129.34937 c -39.70912,-8.9645 -64.298639,-50.125698 -55.32384,-89.452328 9.60293,-42.0790321 53.272253,-68.11675 94.970224,-58.509591 44.449008,10.2409944 71.935158,56.41888 61.695338,100.488115 -5.69144,24.494344 -22.26207,45.612524 -44.534641,57.223894"
                 transform="matrix(1.0312543,0,0,1.0312562,28.065698,-32.82655)"
                 style="fill:none;fill-rule:evenodd;stroke:url(#linearGradient882);stroke-width:2.33636;stroke-miterlimit:4;stroke-dasharray:none"
                 id="path876" />
              <path
                 d="m 40.82143,59.720234 c -0.701579,2.618321 -3.875578,0.346073 -4.351821,-1.16607 C 35.17902,54.45635 39.494306,51.18639 43.15357,51.016591 49.699136,50.712862 54.197472,57.14048 53.876894,63.218444 53.406434,72.138101 44.624903,78.011088 36.15715,77.127519 24.870967,75.949861 17.587005,64.738884 19.062324,53.889883 20.918861,40.237524 34.591255,31.527804 47.817851,33.609306 63.837031,36.130284 73.98014,52.280505 71.284179,67.882725 68.107082,86.269401 49.469497,97.850408 31.492869,94.534804 10.738141,90.706809 -2.2836655,69.575827 1.6550386,49.225603 6.1304446,26.102385 29.758886,11.637794 52.482131,16.202021 77.974178,21.322394 93.882976,47.451161 88.691464,72.547005 82.927902,100.40815 54.296712,117.76221 26.828589,111.94209 -3.4018644,105.53667 -22.201986,74.401475 -15.752247,44.561322 -8.7059993,11.961388 24.934427,-8.285424 57.146412,-1.2052641 92.115966,6.4810069 113.80997,42.627629 106.09875,77.211286 97.773099,114.55058 59.119506,137.69217 22.164308,129.34937 c -39.70912,-8.9645 -64.298639,-50.125698 -55.32384,-89.452328 9.60293,-42.0790321 53.272253,-68.11675 94.970224,-58.509591 44.449008,10.2409944 71.935158,56.41888 61.695338,100.488115 -5.69144,24.494344 -22.26207,45.612524 -44.534641,57.223894"
                 transform="matrix(-1.0312543,0,0,-1.0312562,190.94487,254.06781)"
                 style="fill:none;fill-rule:evenodd;stroke:url(#linearGradient884);stroke-width:2.33636;stroke-miterlimit:4;stroke-dasharray:none"
                 id="path878" />
            </g>
            <g
               inkscape:transform-center-y="-1.5119049"
               inkscape:transform-center-x="93.738096"
               id="g892"
               style="stroke:url(#linearGradient898)"
               transform="matrix(0.66893445,0.70751362,0.78094143,-0.66893443,-161.27403,423.60525)">
              <path
                 id="path888"
                 style="fill:none;fill-rule:evenodd;stroke:url(#linearGradient894);stroke-width:2.33636;stroke-miterlimit:4;stroke-dasharray:none"
                 transform="matrix(1.0312543,0,0,1.0312562,28.065698,-32.82655)"
                 d="m 40.82143,59.720234 c -0.701579,2.618321 -3.875578,0.346073 -4.351821,-1.16607 C 35.17902,54.45635 39.494306,51.18639 43.15357,51.016591 49.699136,50.712862 54.197472,57.14048 53.876894,63.218444 53.406434,72.138101 44.624903,78.011088 36.15715,77.127519 24.870967,75.949861 17.587005,64.738884 19.062324,53.889883 20.918861,40.237524 34.591255,31.527804 47.817851,33.609306 63.837031,36.130284 73.98014,52.280505 71.284179,67.882725 68.107082,86.269401 49.469497,97.850408 31.492869,94.534804 10.738141,90.706809 -2.2836655,69.575827 1.6550386,49.225603 6.1304446,26.102385 29.758886,11.637794 52.482131,16.202021 77.974178,21.322394 93.882976,47.451161 88.691464,72.547005 82.927902,100.40815 54.296712,117.76221 26.828589,111.94209 -3.4018644,105.53667 -22.201986,74.401475 -15.752247,44.561322 -8.7059993,11.961388 24.934427,-8.285424 57.146412,-1.2052641 92.115966,6.4810069 113.80997,42.627629 106.09875,77.211286 97.773099,114.55058 59.119506,137.69217 22.164308,129.34937 c -39.70912,-8.9645 -64.298639,-50.125698 -55.32384,-89.452328 9.60293,-42.0790321 53.272253,-68.11675 94.970224,-58.509591 44.449008,10.2409944 71.935158,56.41888 61.695338,100.488115 -5.69144,24.494344 -22.26207,45.612524 -44.534641,57.223894" />
              <path
                 id="path890"
                 style="fill:none;fill-rule:evenodd;stroke:url(#linearGradient896);stroke-width:2.33636;stroke-miterlimit:4;stroke-dasharray:none"
                 transform="matrix(-1.0312543,0,0,-1.0312562,190.94487,254.06781)"
                 d="m 40.82143,59.720234 c -0.701579,2.618321 -3.875578,0.346073 -4.351821,-1.16607 C 35.17902,54.45635 39.494306,51.18639 43.15357,51.016591 49.699136,50.712862 54.197472,57.14048 53.876894,63.218444 53.406434,72.138101 44.624903,78.011088 36.15715,77.127519 24.870967,75.949861 17.587005,64.738884 19.062324,53.889883 20.918861,40.237524 34.591255,31.527804 47.817851,33.609306 63.837031,36.130284 73.98014,52.280505 71.284179,67.882725 68.107082,86.269401 49.469497,97.850408 31.492869,94.534804 10.738141,90.706809 -2.2836655,69.575827 1.6550386,49.225603 6.1304446,26.102385 29.758886,11.637794 52.482131,16.202021 77.974178,21.322394 93.882976,47.451161 88.691464,72.547005 82.927902,100.40815 54.296712,117.76221 26.828589,111.94209 -3.4018644,105.53667 -22.201986,74.401475 -15.752247,44.561322 -8.7059993,11.961388 24.934427,-8.285424 57.146412,-1.2052641 92.115966,6.4810069 113.80997,42.627629 106.09875,77.211286 97.773099,114.55058 59.119506,137.69217 22.164308,129.34937 c -39.70912,-8.9645 -64.298639,-50.125698 -55.32384,-89.452328 9.60293,-42.0790321 53.272253,-68.11675 94.970224,-58.509591 44.449008,10.2409944 71.935158,56.41888 61.695338,100.488115 -5.69144,24.494344 -22.26207,45.612524 -44.534641,57.223894" />
            </g>
            <g
               transform="matrix(0.74372646,-0.66848408,-0.66848405,-0.74372646,267.02211,696.52152)"
               style="stroke:url(#linearGradient910)"
               id="g904"
               inkscape:transform-center-x="1.5119062"
               inkscape:transform-center-y="93.738096">
              <path
                 d="m 40.82143,59.720234 c -0.701579,2.618321 -3.875578,0.346073 -4.351821,-1.16607 C 35.17902,54.45635 39.494306,51.18639 43.15357,51.016591 49.699136,50.712862 54.197472,57.14048 53.876894,63.218444 53.406434,72.138101 44.624903,78.011088 36.15715,77.127519 24.870967,75.949861 17.587005,64.738884 19.062324,53.889883 20.918861,40.237524 34.591255,31.527804 47.817851,33.609306 63.837031,36.130284 73.98014,52.280505 71.284179,67.882725 68.107082,86.269401 49.469497,97.850408 31.492869,94.534804 10.738141,90.706809 -2.2836655,69.575827 1.6550386,49.225603 6.1304446,26.102385 29.758886,11.637794 52.482131,16.202021 77.974178,21.322394 93.882976,47.451161 88.691464,72.547005 82.927902,100.40815 54.296712,117.76221 26.828589,111.94209 -3.4018644,105.53667 -22.201986,74.401475 -15.752247,44.561322 -8.7059993,11.961388 24.934427,-8.285424 57.146412,-1.2052641 92.115966,6.4810069 113.80997,42.627629 106.09875,77.211286 97.773099,114.55058 59.119506,137.69217 22.164308,129.34937 c -39.70912,-8.9645 -64.298639,-50.125698 -55.32384,-89.452328 9.60293,-42.0790321 53.272253,-68.11675 94.970224,-58.509591 44.449008,10.2409944 71.935158,56.41888 61.695338,100.488115 -5.69144,24.494344 -22.26207,45.612524 -44.534641,57.223894"
                 transform="matrix(1.0312543,0,0,1.0312562,28.065698,-32.82655)"
                 style="fill:none;fill-rule:evenodd;stroke:url(#linearGradient906);stroke-width:2.33636;stroke-miterlimit:4;stroke-dasharray:none"
                 id="path900" />
              <path
                 d="m 40.82143,59.720234 c -0.701579,2.618321 -3.875578,0.346073 -4.351821,-1.16607 C 35.17902,54.45635 39.494306,51.18639 43.15357,51.016591 49.699136,50.712862 54.197472,57.14048 53.876894,63.218444 53.406434,72.138101 44.624903,78.011088 36.15715,77.127519 24.870967,75.949861 17.587005,64.738884 19.062324,53.889883 20.918861,40.237524 34.591255,31.527804 47.817851,33.609306 63.837031,36.130284 73.98014,52.280505 71.284179,67.882725 68.107082,86.269401 49.469497,97.850408 31.492869,94.534804 10.738141,90.706809 -2.2836655,69.575827 1.6550386,49.225603 6.1304446,26.102385 29.758886,11.637794 52.482131,16.202021 77.974178,21.322394 93.882976,47.451161 88.691464,72.547005 82.927902,100.40815 54.296712,117.76221 26.828589,111.94209 -3.4018644,105.53667 -22.201986,74.401475 -15.752247,44.561322 -8.7059993,11.961388 24.934427,-8.285424 57.146412,-1.2052641 92.115966,6.4810069 113.80997,42.627629 106.09875,77.211286 97.773099,114.55058 59.119506,137.69217 22.164308,129.34937 c -39.70912,-8.9645 -64.298639,-50.125698 -55.32384,-89.452328 9.60293,-42.0790321 53.272253,-68.11675 94.970224,-58.509591 44.449008,10.2409944 71.935158,56.41888 61.695338,100.488115 -5.69144,24.494344 -22.26207,45.612524 -44.534641,57.223894"
                 transform="matrix(-1.0312543,0,0,-1.0312562,190.94487,254.06781)"
                 style="fill:none;fill-rule:evenodd;stroke:url(#linearGradient908);stroke-width:2.33636;stroke-miterlimit:4;stroke-dasharray:none"
                 id="path902" />
            </g>
          </g>
          <g
             id="g961"
             style="stroke:url(#linearGradient989)"
             transform="matrix(0.68975248,0.68827555,-0.7268908,0.72446107,315.63184,-43.577125)">
            <g
               id="g941"
               inkscape:transform-center-x="1.5119048"
               inkscape:transform-center-y="-93.738096"
               style="stroke:url(#linearGradient969)"
               transform="translate(17.07007,44.526917)">
              <g
                 id="g939"
                 style="stroke:url(#linearGradient967)">
                <path
                   id="path935"
                   style="fill:none;fill-rule:evenodd;stroke:url(#linearGradient963);stroke-width:2.33636;stroke-miterlimit:4;stroke-dasharray:none"
                   transform="matrix(1.0312543,0,0,1.0312562,28.065698,-32.82655)"
                   d="m 40.82143,59.720234 c -0.701579,2.618321 -3.875578,0.346073 -4.351821,-1.16607 C 35.17902,54.45635 39.494306,51.18639 43.15357,51.016591 49.699136,50.712862 54.197472,57.14048 53.876894,63.218444 53.406434,72.138101 44.624903,78.011088 36.15715,77.127519 24.870967,75.949861 17.587005,64.738884 19.062324,53.889883 20.918861,40.237524 34.591255,31.527804 47.817851,33.609306 63.837031,36.130284 73.98014,52.280505 71.284179,67.882725 68.107082,86.269401 49.469497,97.850408 31.492869,94.534804 10.738141,90.706809 -2.2836655,69.575827 1.6550386,49.225603 6.1304446,26.102385 29.758886,11.637794 52.482131,16.202021 77.974178,21.322394 93.882976,47.451161 88.691464,72.547005 82.927902,100.40815 54.296712,117.76221 26.828589,111.94209 -3.4018644,105.53667 -22.201986,74.401475 -15.752247,44.561322 -8.7059993,11.961388 24.934427,-8.285424 57.146412,-1.2052641 92.115966,6.4810069 113.80997,42.627629 106.09875,77.211286 97.773099,114.55058 59.119506,137.69217 22.164308,129.34937 c -39.70912,-8.9645 -64.298639,-50.125698 -55.32384,-89.452328 9.60293,-42.0790321 53.272253,-68.11675 94.970224,-58.509591 44.449008,10.2409944 71.935158,56.41888 61.695338,100.488115 -5.69144,24.494344 -22.26207,45.612524 -44.534641,57.223894" />
                <path
                   id="path937"
                   style="fill:none;fill-rule:evenodd;stroke:url(#linearGradient965);stroke-width:2.33636;stroke-miterlimit:4;stroke-dasharray:none"
                   transform="matrix(-1.0312543,0,0,-1.0312562,190.94487,254.06781)"
                   d="m 40.82143,59.720234 c -0.701579,2.618321 -3.875578,0.346073 -4.351821,-1.16607 C 35.17902,54.45635 39.494306,51.18639 43.15357,51.016591 49.699136,50.712862 54.197472,57.14048 53.876894,63.218444 53.406434,72.138101 44.624903,78.011088 36.15715,77.127519 24.870967,75.949861 17.587005,64.738884 19.062324,53.889883 20.918861,40.237524 34.591255,31.527804 47.817851,33.609306 63.837031,36.130284 73.98014,52.280505 71.284179,67.882725 68.107082,86.269401 49.469497,97.850408 31.492869,94.534804 10.738141,90.706809 -2.2836655,69.575827 1.6550386,49.225603 6.1304446,26.102385 29.758886,11.637794 52.482131,16.202021 77.974178,21.322394 93.882976,47.451161 88.691464,72.547005 82.927902,100.40815 54.296712,117.76221 26.828589,111.94209 -3.4018644,105.53667 -22.201986,74.401475 -15.752247,44.561322 -8.7059993,11.961388 24.934427,-8.285424 57.146412,-1.2052641 92.115966,6.4810069 113.80997,42.627629 106.09875,77.211286 97.773099,114.55058 59.119506,137.69217 22.164308,129.34937 c -39.70912,-8.9645 -64.298639,-50.125698 -55.32384,-89.452328 9.60293,-42.0790321 53.272253,-68.11675 94.970224,-58.509591 44.449008,10.2409944 71.935158,56.41888 61.695338,100.488115 -5.69144,24.494344 -22.26207,45.612524 -44.534641,57.223894" />
              </g>
            </g>
            <g
               inkscape:transform-center-y="-1.5119045"
               inkscape:transform-center-x="-93.738098"
               id="g947"
               style="stroke:url(#linearGradient975)"
               transform="matrix(-0.02454268,0.97336863,-1.0279788,0.02454268,528.56967,159.14317)">
              <path
                 id="path943"
                 style="fill:none;fill-rule:evenodd;stroke:url(#linearGradient971);stroke-width:2.33636;stroke-miterlimit:4;stroke-dasharray:none"
                 transform="matrix(1.0312543,0,0,1.0312562,28.065698,-32.82655)"
                 d="m 40.82143,59.720234 c -0.701579,2.618321 -3.875578,0.346073 -4.351821,-1.16607 C 35.17902,54.45635 39.494306,51.18639 43.15357,51.016591 49.699136,50.712862 54.197472,57.14048 53.876894,63.218444 53.406434,72.138101 44.624903,78.011088 36.15715,77.127519 24.870967,75.949861 17.587005,64.738884 19.062324,53.889883 20.918861,40.237524 34.591255,31.527804 47.817851,33.609306 63.837031,36.130284 73.98014,52.280505 71.284179,67.882725 68.107082,86.269401 49.469497,97.850408 31.492869,94.534804 10.738141,90.706809 -2.2836655,69.575827 1.6550386,49.225603 6.1304446,26.102385 29.758886,11.637794 52.482131,16.202021 77.974178,21.322394 93.882976,47.451161 88.691464,72.547005 82.927902,100.40815 54.296712,117.76221 26.828589,111.94209 -3.4018644,105.53667 -22.201986,74.401475 -15.752247,44.561322 -8.7059993,11.961388 24.934427,-8.285424 57.146412,-1.2052641 92.115966,6.4810069 113.80997,42.627629 106.09875,77.211286 97.773099,114.55058 59.119506,137.69217 22.164308,129.34937 c -39.70912,-8.9645 -64.298639,-50.125698 -55.32384,-89.452328 9.60293,-42.0790321 53.272253,-68.11675 94.970224,-58.509591 44.449008,10.2409944 71.935158,56.41888 61.695338,100.488115 -5.69144,24.494344 -22.26207,45.612524 -44.534641,57.223894" />
              <path
                 id="path945"
                 style="fill:none;fill-rule:evenodd;stroke:url(#linearGradient973);stroke-width:2.33636;stroke-miterlimit:4;stroke-dasharray:none"
                 transform="matrix(-1.0312543,0,0,-1.0312562,190.94487,254.06781)"
                 d="m 40.82143,59.720234 c -0.701579,2.618321 -3.875578,0.346073 -4.351821,-1.16607 C 35.17902,54.45635 39.494306,51.18639 43.15357,51.016591 49.699136,50.712862 54.197472,57.14048 53.876894,63.218444 53.406434,72.138101 44.624903,78.011088 36.15715,77.127519 24.870967,75.949861 17.587005,64.738884 19.062324,53.889883 20.918861,40.237524 34.591255,31.527804 47.817851,33.609306 63.837031,36.130284 73.98014,52.280505 71.284179,67.882725 68.107082,86.269401 49.469497,97.850408 31.492869,94.534804 10.738141,90.706809 -2.2836655,69.575827 1.6550386,49.225603 6.1304446,26.102385 29.758886,11.637794 52.482131,16.202021 77.974178,21.322394 93.882976,47.451161 88.691464,72.547005 82.927902,100.40815 54.296712,117.76221 26.828589,111.94209 -3.4018644,105.53667 -22.201986,74.401475 -15.752247,44.561322 -8.7059993,11.961388 24.934427,-8.285424 57.146412,-1.2052641 92.115966,6.4810069 113.80997,42.627629 106.09875,77.211286 97.773099,114.55058 59.119506,137.69217 22.164308,129.34937 c -39.70912,-8.9645 -64.298639,-50.125698 -55.32384,-89.452328 9.60293,-42.0790321 53.272253,-68.11675 94.970224,-58.509591 44.449008,10.2409944 71.935158,56.41888 61.695338,100.488115 -5.69144,24.494344 -22.26207,45.612524 -44.534641,57.223894" />
            </g>
            <g
               transform="matrix(0.66893445,0.70751362,0.78094143,-0.66893443,-161.27403,423.60525)"
               style="stroke:url(#linearGradient981)"
               id="g953"
               inkscape:transform-center-x="93.738096"
               inkscape:transform-center-y="-1.5119049">
              <path
                 d="m 40.82143,59.720234 c -0.701579,2.618321 -3.875578,0.346073 -4.351821,-1.16607 C 35.17902,54.45635 39.494306,51.18639 43.15357,51.016591 49.699136,50.712862 54.197472,57.14048 53.876894,63.218444 53.406434,72.138101 44.624903,78.011088 36.15715,77.127519 24.870967,75.949861 17.587005,64.738884 19.062324,53.889883 20.918861,40.237524 34.591255,31.527804 47.817851,33.609306 63.837031,36.130284 73.98014,52.280505 71.284179,67.882725 68.107082,86.269401 49.469497,97.850408 31.492869,94.534804 10.738141,90.706809 -2.2836655,69.575827 1.6550386,49.225603 6.1304446,26.102385 29.758886,11.637794 52.482131,16.202021 77.974178,21.322394 93.882976,47.451161 88.691464,72.547005 82.927902,100.40815 54.296712,117.76221 26.828589,111.94209 -3.4018644,105.53667 -22.201986,74.401475 -15.752247,44.561322 -8.7059993,11.961388 24.934427,-8.285424 57.146412,-1.2052641 92.115966,6.4810069 113.80997,42.627629 106.09875,77.211286 97.773099,114.55058 59.119506,137.69217 22.164308,129.34937 c -39.70912,-8.9645 -64.298639,-50.125698 -55.32384,-89.452328 9.60293,-42.0790321 53.272253,-68.11675 94.970224,-58.509591 44.449008,10.2409944 71.935158,56.41888 61.695338,100.488115 -5.69144,24.494344 -22.26207,45.612524 -44.534641,57.223894"
                 transform="matrix(1.0312543,0,0,1.0312562,28.065698,-32.82655)"
                 style="fill:none;fill-rule:evenodd;stroke:url(#linearGradient977);stroke-width:2.33636;stroke-miterlimit:4;stroke-dasharray:none"
                 id="path949" />
              <path
                 d="m 40.82143,59.720234 c -0.701579,2.618321 -3.875578,0.346073 -4.351821,-1.16607 C 35.17902,54.45635 39.494306,51.18639 43.15357,51.016591 49.699136,50.712862 54.197472,57.14048 53.876894,63.218444 53.406434,72.138101 44.624903,78.011088 36.15715,77.127519 24.870967,75.949861 17.587005,64.738884 19.062324,53.889883 20.918861,40.237524 34.591255,31.527804 47.817851,33.609306 63.837031,36.130284 73.98014,52.280505 71.284179,67.882725 68.107082,86.269401 49.469497,97.850408 31.492869,94.534804 10.738141,90.706809 -2.2836655,69.575827 1.6550386,49.225603 6.1304446,26.102385 29.758886,11.637794 52.482131,16.202021 77.974178,21.322394 93.882976,47.451161 88.691464,72.547005 82.927902,100.40815 54.296712,117.76221 26.828589,111.94209 -3.4018644,105.53667 -22.201986,74.401475 -15.752247,44.561322 -8.7059993,11.961388 24.934427,-8.285424 57.146412,-1.2052641 92.115966,6.4810069 113.80997,42.627629 106.09875,77.211286 97.773099,114.55058 59.119506,137.69217 22.164308,129.34937 c -39.70912,-8.9645 -64.298639,-50.125698 -55.32384,-89.452328 9.60293,-42.0790321 53.272253,-68.11675 94.970224,-58.509591 44.449008,10.2409944 71.935158,56.41888 61.695338,100.488115 -5.69144,24.494344 -22.26207,45.612524 -44.534641,57.223894"
                 transform="matrix(-1.0312543,0,0,-1.0312562,190.94487,254.06781)"
                 style="fill:none;fill-rule:evenodd;stroke:url(#linearGradient979);stroke-width:2.33636;stroke-miterlimit:4;stroke-dasharray:none"
                 id="path951" />
            </g>
            <g
               inkscape:transform-center-y="93.738096"
               inkscape:transform-center-x="1.5119062"
               id="g959"
               style="stroke:url(#linearGradient987)"
               transform="matrix(0.74372646,-0.66848408,-0.66848405,-0.74372646,267.02211,696.52152)">
              <path
                 id="path955"
                 style="fill:none;fill-rule:evenodd;stroke:url(#linearGradient983);stroke-width:2.33636;stroke-miterlimit:4;stroke-dasharray:none"
                 transform="matrix(1.0312543,0,0,1.0312562,28.065698,-32.82655)"
                 d="m 40.82143,59.720234 c -0.701579,2.618321 -3.875578,0.346073 -4.351821,-1.16607 C 35.17902,54.45635 39.494306,51.18639 43.15357,51.016591 49.699136,50.712862 54.197472,57.14048 53.876894,63.218444 53.406434,72.138101 44.624903,78.011088 36.15715,77.127519 24.870967,75.949861 17.587005,64.738884 19.062324,53.889883 20.918861,40.237524 34.591255,31.527804 47.817851,33.609306 63.837031,36.130284 73.98014,52.280505 71.284179,67.882725 68.107082,86.269401 49.469497,97.850408 31.492869,94.534804 10.738141,90.706809 -2.2836655,69.575827 1.6550386,49.225603 6.1304446,26.102385 29.758886,11.637794 52.482131,16.202021 77.974178,21.322394 93.882976,47.451161 88.691464,72.547005 82.927902,100.40815 54.296712,117.76221 26.828589,111.94209 -3.4018644,105.53667 -22.201986,74.401475 -15.752247,44.561322 -8.7059993,11.961388 24.934427,-8.285424 57.146412,-1.2052641 92.115966,6.4810069 113.80997,42.627629 106.09875,77.211286 97.773099,114.55058 59.119506,137.69217 22.164308,129.34937 c -39.70912,-8.9645 -64.298639,-50.125698 -55.32384,-89.452328 9.60293,-42.0790321 53.272253,-68.11675 94.970224,-58.509591 44.449008,10.2409944 71.935158,56.41888 61.695338,100.488115 -5.69144,24.494344 -22.26207,45.612524 -44.534641,57.223894" />
              <path
                 id="path957"
                 style="fill:none;fill-rule:evenodd;stroke:url(#linearGradient985);stroke-width:2.33636;stroke-miterlimit:4;stroke-dasharray:none"
                 transform="matrix(-1.0312543,0,0,-1.0312562,190.94487,254.06781)"
                 d="m 40.82143,59.720234 c -0.701579,2.618321 -3.875578,0.346073 -4.351821,-1.16607 C 35.17902,54.45635 39.494306,51.18639 43.15357,51.016591 49.699136,50.712862 54.197472,57.14048 53.876894,63.218444 53.406434,72.138101 44.624903,78.011088 36.15715,77.127519 24.870967,75.949861 17.587005,64.738884 19.062324,53.889883 20.918861,40.237524 34.591255,31.527804 47.817851,33.609306 63.837031,36.130284 73.98014,52.280505 71.284179,67.882725 68.107082,86.269401 49.469497,97.850408 31.492869,94.534804 10.738141,90.706809 -2.2836655,69.575827 1.6550386,49.225603 6.1304446,26.102385 29.758886,11.637794 52.482131,16.202021 77.974178,21.322394 93.882976,47.451161 88.691464,72.547005 82.927902,100.40815 54.296712,117.76221 26.828589,111.94209 -3.4018644,105.53667 -22.201986,74.401475 -15.752247,44.561322 -8.7059993,11.961388 24.934427,-8.285424 57.146412,-1.2052641 92.115966,6.4810069 113.80997,42.627629 106.09875,77.211286 97.773099,114.55058 59.119506,137.69217 22.164308,129.34937 c -39.70912,-8.9645 -64.298639,-50.125698 -55.32384,-89.452328 9.60293,-42.0790321 53.272253,-68.11675 94.970224,-58.509591 44.449008,10.2409944 71.935158,56.41888 61.695338,100.488115 -5.69144,24.494344 -22.26207,45.612524 -44.534641,57.223894" />
            </g>
          </g>
        </g>
      </g>
    </g>
  </g>
</svg>
