<?xml version="1.0" encoding="UTF-8" standalone="no"?>
<!-- Created with Inkscape (http://www.inkscape.org/) -->

<svg
   xmlns:dc="http://purl.org/dc/elements/1.1/"
   xmlns:cc="http://creativecommons.org/ns#"
   xmlns:rdf="http://www.w3.org/1999/02/22-rdf-syntax-ns#"
   xmlns:svg="http://www.w3.org/2000/svg"
   xmlns="http://www.w3.org/2000/svg"
   xmlns:sodipodi="http://sodipodi.sourceforge.net/DTD/sodipodi-0.dtd"
   xmlns:inkscape="http://www.inkscape.org/namespaces/inkscape"
   width="210mm"
   height="297mm"
   viewBox="0 0 210 297"
   version="1.1"
   id="svg8"
   inkscape:version="0.92.4 (5da689c313, 2019-01-14)"
   sodipodi:docname="Tear.svg"
   inkscape:export-filename="C:\Users\mallika\Documents\Tear.png"
   inkscape:export-xdpi="96"
   inkscape:export-ydpi="96">
  <defs
     id="defs2" />
  <sodipodi:namedview
     id="base"
     pagecolor="#ffffff"
     bordercolor="#000000"
     borderopacity="1"
     inkscape:pageopacity="0.0"
     inkscape:pageshadow="2"
     inkscape:zoom="0.8088945"
     inkscape:cx="396.85039"
     inkscape:cy="561.25984"
     inkscape:document-units="mm"
     inkscape:current-layer="layer1"
     showgrid="false"
     inkscape:showpageshadow="false"
     showborder="false"
     inkscape:snap-nodes="false"
     inkscape:window-width="1600"
     inkscape:window-height="1137"
     inkscape:window-x="-8"
     inkscape:window-y="-8"
     inkscape:window-maximized="1" />
  <metadata
     id="metadata5">
    <rdf:RDF>
      <cc:Work
         rdf:about="">
        <dc:format>image/svg+xml</dc:format>
        <dc:type
           rdf:resource="http://purl.org/dc/dcmitype/StillImage" />
        <dc:title></dc:title>
      </cc:Work>
    </rdf:RDF>
  </metadata>
  <g
     inkscape:label="Layer 1"
     inkscape:groupmode="layer"
     id="layer1">
    <g
       id="g871"
       transform="translate(-13.0837,1.9625551)">
      <path
         sodipodi:nodetypes="cazac"
         inkscape:connector-curvature="0"
         id="rect817"
         d="m 95.093695,61.862108 c 0,0 46.299825,58.458402 38.615285,90.271382 -3.92701,16.25732 -16.89232,32.03682 -38.615285,32.03684 -21.722968,1e-5 -34.688275,-15.7795 -38.615296,-32.03683 C 48.79385,120.32051 95.093695,61.862108 95.093695,61.862108 Z"
         style="opacity:1;fill:#0074ff;fill-opacity:1;stroke-width:0.3216452;stroke-miterlimit:4;stroke-dasharray:none" />
      <path
         style="opacity:1;fill:#00aaff;fill-opacity:1;stroke-width:0.28465724;stroke-miterlimit:4;stroke-dasharray:none"
         d="m 95.093695,66.441403 c 0,0 40.975515,51.735907 34.174675,79.890517 -3.47542,14.38779 -14.94977,28.35271 -34.174675,28.35272 -19.22491,1e-5 -30.699256,-13.96491 -34.174685,-28.35271 -6.800855,-28.15462 34.174685,-79.890527 34.174685,-79.890527 z"
         id="path820"
         inkscape:connector-curvature="0"
         sodipodi:nodetypes="cazac" />
      <path
         sodipodi:nodetypes="cazac"
         inkscape:connector-curvature="0"
         id="path822"
         d="m 95.093695,67.749773 c 0,0 30.326915,38.290917 25.293455,59.128787 -2.57224,10.64873 -11.06467,20.98449 -25.293455,20.98449 -14.228793,1e-5 -22.721218,-10.33574 -25.293462,-20.98448 -5.033468,-20.83788 25.293462,-59.128797 25.293462,-59.128797 z"
         style="opacity:1;fill:#12d0ff;fill-opacity:1;stroke-width:0.2106813;stroke-miterlimit:4;stroke-dasharray:none" />
      <path
         style="opacity:1;fill:#52ddff;fill-opacity:1;stroke-width:0.13842572;stroke-miterlimit:4;stroke-dasharray:none"
         d="m 95.093695,71.347791 c 0,0 19.925955,25.158606 16.618775,38.849889 -1.69007,6.99663 -7.26992,13.78762 -16.618775,13.78762 -9.348865,0 -14.928714,-6.79098 -16.618777,-13.78762 C 75.167735,96.506397 95.093695,71.347791 95.093695,71.347791 Z"
         id="path824"
         inkscape:connector-curvature="0"
         sodipodi:nodetypes="cazac" />
      <path
         id="path826"
         d="m 62.573348,135.73204 c -0.216517,3.14856 -0.04619,6.13909 0.617535,8.88679 3.244379,13.43129 13.956127,26.46765 31.90296,26.46764 17.946827,-1e-5 28.658077,-13.03635 31.902447,-26.46764 0.66364,-2.7474 0.83446,-5.73758 0.61805,-8.88576 -0.1074,1.37277 -0.30961,2.70218 -0.61805,3.97909 -3.24437,13.43128 -13.95562,26.46814 -31.902447,26.46815 -17.946833,1e-5 -28.658581,-13.03686 -31.90296,-26.46815 -0.30852,-1.27723 -0.510157,-2.60699 -0.617535,-3.98012 z"
         style="opacity:1;fill:#ffffff;fill-opacity:1;stroke-width:0.26573315;stroke-miterlimit:4;stroke-dasharray:none"
         inkscape:connector-curvature="0" />
      <path
         id="path831"
         d="m 118.92805,118.98422 c -4.34511,11.66459 -14.56571,22.35905 -30.513901,24.99021 2.048454,0.60905 4.274941,0.94465 6.679694,0.94465 13.124997,0 20.958697,-9.9558 23.331397,-20.21324 0.41313,-1.78601 0.56348,-3.70723 0.50281,-5.72162 z"
         style="opacity:1;fill:#ffffff;fill-opacity:1;stroke-width:0.19859214;stroke-miterlimit:4;stroke-dasharray:none"
         inkscape:connector-curvature="0" />
      <ellipse
         style="opacity:1;fill:#ffffff;fill-opacity:1;stroke-width:0.14993142;stroke-miterlimit:4;stroke-dasharray:none"
         id="ellipse840"
         cx="144.41135"
         cy="126.56144"
         rx="1.7990086"
         ry="2.3130112" />
      <g
         transform="rotate(-11.770744,1.5259614,165.90667)"
         id="g851">
        <ellipse
           style="opacity:1;fill:#ffffff;fill-opacity:1;stroke-width:0.28623271;stroke-miterlimit:4;stroke-dasharray:none"
           id="path838"
           cx="114.64592"
           cy="136.56113"
           rx="3.4344711"
           ry="4.4157491" />
        <ellipse
           ry="3.5980177"
           rx="2.7802861"
           cy="124.29515"
           cx="114.64592"
           id="ellipse844"
           style="opacity:1;fill:#ffffff;fill-opacity:1;stroke-width:0.23246819;stroke-miterlimit:4;stroke-dasharray:none" />
        <ellipse
           style="opacity:1;fill:#ffffff;fill-opacity:1;stroke-width:0.16785917;stroke-miterlimit:4;stroke-dasharray:none"
           id="ellipse846"
           cx="114.31883"
           cy="113.99174"
           rx="2.126101"
           ry="2.4531941" />
      </g>
    </g>
  </g>
</svg>
